<svg width="480" height="57" viewBox="0 0 480 57" fill="none" xmlns="http://www.w3.org/2000/svg">
<g clip-path="url(#clip0_145_392)">
<path d="M42.2743 37.9997C35.8909 49.1837 23.4324 53.9986 14.4485 48.7511C5.46368 43.5046 3.3571 30.1834 9.74051 18.9993C16.1248 7.81534 28.5824 3.00043 37.5663 8.24786C46.5502 13.4944 48.6577 26.8147 42.2743 37.9997ZM26.007 2.1925C11.6436 2.1925 0 13.9704 0 28.4995C0 43.0286 11.6436 54.8074 26.007 54.8074C40.3703 54.8074 52.0139 43.0286 52.0139 28.4995C52.0139 13.9704 40.3703 2.1925 26.007 2.1925Z" fill="#010101"/>
<path d="M106.686 2.92346H99.4619V54.0776H121.136V51.1542H106.687L106.686 2.92346Z" fill="#010101"/>
<path d="M86.9418 44.6082L63.149 2.92346H57.3223V54.0776H60.2114V12.3919L84.0042 54.0767H89.831V2.92346H86.9418V44.6082Z" fill="#010101"/>
<path d="M149.497 2.92346H146.383L136.575 27.6935L126.765 2.92346H118.982L130.631 32.337V54.0776H137.855V32.337H137.848L149.497 2.92346Z" fill="#010101"/>
<path d="M176.643 2.92339V54.0775H183.867V29.9621H192.537V27.0387H183.867V5.84589H198.315V2.92249L176.643 2.92339Z" fill="#010101"/>
<path d="M211.946 2.92346H204.722V54.0776H211.946V2.92346Z" fill="#010101"/>
<path d="M250.098 44.6082L226.306 2.92346H220.479V54.0776H223.369V12.3919L247.16 54.0767H252.988V2.92346H250.098V44.6082Z" fill="#010101"/>
<path d="M326.824 44.6082L303.031 2.92346H297.203V54.0776H300.092V12.3919L323.885 54.0767H329.713V2.92346H326.824V44.6082Z" fill="#010101"/>
<path d="M265.557 39.8269L273.162 8.9353L280.847 39.8269H265.557ZM271.667 2.92346L259.072 54.0776H262.05L264.839 42.7503H281.576L284.393 54.0776H291.843L279.116 2.92346H271.667Z" fill="#010101"/>
<path d="M377.793 37.9997C371.41 49.1837 358.951 53.9986 349.967 48.7512C340.983 43.5047 338.876 30.1834 345.259 18.9994C351.643 7.81448 364.101 3.00048 373.085 8.24792C378.516 11.4198 381.43 17.5431 381.478 24.3602H387.212C385.249 11.7979 374.498 2.19165 361.527 2.19165C347.164 2.19165 335.521 13.9705 335.521 28.4996C335.521 43.0286 347.164 54.8075 361.527 54.8075C374.83 54.8075 385.793 44.7025 387.341 31.6687H380.464C379.855 33.8086 378.969 35.9404 377.793 37.9997Z" fill="#010101"/>
<path d="M414.981 5.84589V2.92249H393.309V54.0766H414.981V51.1532H400.533V29.9612H409.202V27.0378H400.533V5.84589H414.981Z" fill="#010101"/>
<path d="M480 0H458.327V57H480V0Z" fill="#010101"/>
</g>
<defs>
<clipPath id="clip0_145_392">
<rect width="480" height="57" fill="white"/>
</clipPath>
</defs>
</svg>
