<svg width="488" height="181" viewBox="0 0 488 181" fill="none" xmlns="http://www.w3.org/2000/svg">
<g clip-path="url(#clip0_253_349)">
<path d="M41.1367 0C18.4243 0 0.0117188 18.4126 0.0117188 41.125C0.0117188 63.8374 18.4243 82.2482 41.1367 82.2482C63.8491 82.2482 82.2617 63.8374 82.2617 41.125C82.2617 18.4126 63.8491 0 41.1367 0ZM66.8593 55.975C56.7637 73.4584 37.0651 80.9858 22.8599 72.7829C8.65293 64.5818 5.32214 43.7585 15.4159 26.275C25.5097 8.78973 45.2083 1.26421 59.4135 9.46711C73.6205 17.6682 76.9531 38.4915 66.8593 55.975Z" fill="#010101"/>
<path d="M168.708 1.14258H157.285V81.1068H191.557V76.5372H168.71L168.708 1.14258Z" fill="#010101"/>
<path d="M137.489 66.3057L99.8669 1.14258H90.6533V81.1068H95.223V15.9437L132.845 81.1068H142.06V1.14258H137.491L137.489 66.3057Z" fill="#010101"/>
<path d="M236.405 1.14258H231.481L215.97 39.8623L200.46 1.14258H188.153L206.571 47.1216V81.1068H217.995V47.1216H217.984L236.405 1.14258Z" fill="#010101"/>
<path d="M7.6875 95.7168V175.681H19.1107V137.985H32.8196V133.415H19.1107V100.286H41.9571V95.7168H7.6875Z" fill="#010101"/>
<path d="M63.5131 95.7168H52.0898V175.681H63.5131V95.7168Z" fill="#010101"/>
<path d="M123.84 160.88L86.2193 95.7168H77.0039V175.681H81.5736V110.518L119.196 175.681H128.409V95.7168H123.84V160.88Z" fill="#010101"/>
<path d="M245.161 160.88L207.539 95.7168H198.323V175.681H202.893V110.518L240.515 175.681H249.729V95.7168H245.161V160.88Z" fill="#010101"/>
<path d="M157.944 95.7168L138.028 175.681H142.737L147.148 157.975H173.613L178.068 175.681H189.847L169.724 95.7168H157.944ZM148.283 153.405L160.308 105.115L172.461 153.405H148.283Z" fill="#010101"/>
<path d="M325.758 150.547C315.664 168.031 295.965 175.558 281.758 167.355C267.551 159.154 264.221 138.331 274.313 120.847C284.408 103.362 304.107 95.8384 318.312 104.04C326.901 108.997 331.506 118.571 331.583 129.228H340.648C337.543 109.591 320.545 94.5742 300.033 94.5742C277.323 94.5742 258.91 112.987 258.91 135.699C258.91 158.412 277.323 176.822 300.033 176.822C321.069 176.822 338.403 161.027 340.852 140.651H329.98C329.016 143.996 327.616 147.329 325.758 150.547Z" fill="#010101"/>
<path d="M384.56 100.286V95.7168H350.289V175.681H384.56V171.111H361.714V137.983H375.423V133.413H361.714V100.285L384.56 100.286Z" fill="#010101"/>
<path d="M487.988 90.8809H453.512V180.517H487.988V90.8809Z" fill="#010101"/>
</g>
<defs>
<clipPath id="clip0_253_349">
<rect width="488" height="180.516" fill="white"/>
</clipPath>
</defs>
</svg>
