<svg width="421" height="43" viewBox="0 0 421 43" fill="none" xmlns="http://www.w3.org/2000/svg">
<g clip-path="url(#clip0_559_1528)">
<path d="M31.8534 28.8987C27.1191 37.1935 17.8791 40.7646 11.216 36.8727C4.55223 32.9815 2.98985 23.1016 7.72421 14.8068C12.4592 6.512 21.6986 2.94095 28.3617 6.83279C35.0247 10.724 36.5878 20.6032 31.8534 28.8987ZM19.7885 2.34174C9.13567 2.34174 0.5 11.077 0.5 21.8528C0.5 32.6285 9.13567 41.3645 19.7885 41.3645C30.4413 41.3645 39.077 32.6285 39.077 21.8528C39.077 11.077 30.4413 2.34174 19.7885 2.34174Z" fill="#010101"/>
<path d="M79.6236 2.88367H74.2656V40.823H90.3403V38.6548H79.6243L79.6236 2.88367Z" fill="#010101"/>
<path d="M64.9834 33.7999L47.3371 2.88367H43.0156V40.823H45.1584V9.90608L62.8047 40.8223H67.1262V2.88367H64.9834V33.7999Z" fill="#010101"/>
<path d="M111.377 2.88367H109.068L101.794 21.2548L94.5183 2.88367H88.7461L97.3851 24.6987V40.823H102.743V24.6987H102.738L111.377 2.88367Z" fill="#010101"/>
<path d="M131.512 2.88385V40.8232H136.87V22.9376H143.3V20.7694H136.87V5.05137H147.586V2.88318L131.512 2.88385Z" fill="#010101"/>
<path d="M157.694 2.88367H152.336V40.823H157.694V2.88367Z" fill="#010101"/>
<path d="M185.991 33.7999L168.346 2.88367H164.023V40.823H166.167V9.90608L183.813 40.8223H188.135V2.88367H185.991V33.7999Z" fill="#010101"/>
<path d="M242.894 33.7999L225.248 2.88367H220.926V40.823H223.069V9.90608L240.715 40.8223H245.037V2.88367H242.894V33.7999Z" fill="#010101"/>
<path d="M197.454 30.2537L203.095 7.34245L208.794 30.2537H197.454ZM201.986 2.88367L192.645 40.823H194.853L196.921 32.4219H209.335L211.424 40.823H216.949L207.51 2.88367H201.986Z" fill="#010101"/>
<path d="M280.696 28.8986C275.962 37.1935 266.721 40.7645 260.058 36.8727C253.395 32.9815 251.832 23.1016 256.567 14.8068C261.301 6.51127 270.541 2.94089 277.204 6.83274C281.232 9.18519 283.393 13.7267 283.429 18.7827H287.681C286.226 9.46563 278.252 2.341 268.632 2.341C257.979 2.341 249.344 11.077 249.344 21.8527C249.344 32.6284 257.979 41.3644 268.632 41.3644C278.499 41.3644 286.629 33.8699 287.777 24.2031H282.677C282.225 25.7903 281.568 27.3714 280.696 28.8986Z" fill="#010101"/>
<path d="M308.277 5.05131V2.88312H292.203V40.8224H308.277V38.6542H297.561V22.9369H303.991V20.7687H297.561V5.05131H308.277Z" fill="#010101"/>
<path d="M392.574 0.715515H376.5V42.9905H392.574V0.715515Z" fill="#010101"/>
<path d="M342.943 40.7156C342.685 38.9456 342.419 37.194 342.144 35.4608C341.868 33.7277 341.592 31.9946 341.317 30.2614H332.361C332.067 31.9946 331.783 33.7277 331.507 35.4608C331.25 37.194 330.993 38.9456 330.736 40.7156H325.5C326.088 38.4846 326.667 36.1891 327.236 33.8291C327.805 31.4507 328.347 29.0906 328.862 26.7491C329.376 24.389 329.863 22.0751 330.322 19.8073C330.8 17.521 331.232 15.3454 331.617 13.2804C332.021 11.1969 332.389 9.26094 332.72 7.47249C333.05 5.68404 333.335 4.0984 333.574 2.71558H340.104C340.343 4.0984 340.628 5.68404 340.959 7.47249C341.289 9.26094 341.648 11.1969 342.033 13.2804C342.437 15.3454 342.869 17.521 343.328 19.8073C343.806 22.0751 344.302 24.389 344.816 26.7491C345.331 29.0906 345.873 31.4507 346.442 33.8291C347.012 36.1891 347.59 38.4846 348.178 40.7156H342.943ZM336.632 8.30218C335.879 11.4366 335.2 14.5525 334.593 17.6501C333.987 20.7476 333.418 23.8728 332.885 27.0256H340.766C340.233 23.8728 339.654 20.7476 339.03 17.6501C338.424 14.5525 337.753 11.4366 337.018 8.30218H336.632Z" fill="#010101"/>
<path d="M356.5 2.71558C356.39 4.28278 356.298 5.88685 356.224 7.5278C356.169 9.16875 356.123 10.8005 356.087 12.423C356.05 14.0455 356.022 15.6404 356.004 17.2076C355.986 18.7748 355.976 20.2682 355.976 21.6879C355.976 23.1076 355.986 24.6011 356.004 26.1683C356.022 27.7355 356.05 29.3395 356.087 30.9805C356.123 32.603 356.169 34.244 356.224 35.9034C356.28 37.5443 356.353 39.1484 356.445 40.7156H351.292C351.402 39.1484 351.485 37.5443 351.54 35.9034C351.613 34.244 351.669 32.603 351.705 30.9805C351.742 29.3395 351.77 27.7355 351.788 26.1683C351.806 24.6011 351.816 23.1076 351.816 21.6879C351.816 20.2682 351.806 18.7748 351.788 17.2076C351.77 15.6404 351.742 14.0455 351.705 12.423C351.669 10.8005 351.613 9.16875 351.54 7.5278C351.485 5.88685 351.402 4.28278 351.292 2.71558H356.5Z" fill="#010101"/>
<path d="M314.5 37.621C314.5 37.2299 314.574 36.8574 314.723 36.5035C314.872 36.1497 315.077 35.8424 315.338 35.5816C315.599 35.3023 315.906 35.0881 316.26 34.9391C316.614 34.7901 316.996 34.7156 317.405 34.7156C317.797 34.7156 318.169 34.7901 318.523 34.9391C318.877 35.0881 319.184 35.3023 319.445 35.5816C319.724 35.8424 319.938 36.1497 320.087 36.5035C320.236 36.8574 320.311 37.2299 320.311 37.621C320.311 38.0308 320.236 38.4126 320.087 38.7664C319.938 39.1203 319.724 39.4276 319.445 39.6884C319.184 39.9491 318.877 40.154 318.523 40.303C318.169 40.452 317.797 40.5265 317.405 40.5265C316.586 40.5265 315.897 40.2471 315.338 39.6884C314.779 39.1296 314.5 38.4405 314.5 37.621Z" fill="#010101"/>
</g>
<defs>
<clipPath id="clip0_559_1528">
<rect width="420" height="42" fill="white" transform="translate(0.5 0.715576)"/>
</clipPath>
</defs>
</svg>
