<svg width="208" height="209" viewBox="0 0 208 209" fill="none" xmlns="http://www.w3.org/2000/svg">
<path d="M104.018 207.037C160.914 207.037 207.037 160.914 207.037 104.018C207.037 47.1229 160.914 1 104.018 1C47.1229 1 1 47.1229 1 104.018C1 160.914 47.1229 207.037 104.018 207.037Z" stroke="#010101" stroke-width="1.5" stroke-miterlimit="10"/>
<path d="M104.019 207.037C144.908 207.037 178.056 160.914 178.056 104.018C178.056 47.1229 144.908 1 104.019 1C63.1287 1 29.981 47.1229 29.981 104.018C29.981 160.914 63.1287 207.037 104.019 207.037Z" stroke="#010101" stroke-width="1.5" stroke-miterlimit="10"/>
<path d="M104.019 207.037C124.464 207.037 141.038 160.914 141.038 104.018C141.038 47.1229 124.464 1 104.019 1C83.5739 1 67 47.1229 67 104.018C67 160.914 83.5739 207.037 104.019 207.037Z" stroke="#010101" stroke-width="1.5" stroke-miterlimit="10"/>
<path d="M104.019 1V207.037" stroke="#010101" stroke-width="1.5" stroke-miterlimit="10"/>
<path d="M38.8762 80.4883H21.0854V127.549H38.8762V80.4883Z" fill="#010101"/>
<path d="M112.914 40.98H95.123V88.0408H112.914V40.98Z" fill="#010101"/>
<path d="M56.9563 141.037H39.1655V188.098H56.9563V141.037Z" fill="#010101"/>
<path d="M65.8518 6.45068H48.061V53.5115H65.8518V6.45068Z" fill="#010101"/>
<path d="M112.914 161.019H95.123V208.079H112.914V161.019Z" fill="#010101"/>
<path d="M151.079 80.4883H133.289V127.549H151.079V80.4883Z" fill="#010101"/>
<path d="M178.055 130.994H160.264V178.055H178.055V130.994Z" fill="#010101"/>
<path d="M169.159 17.4482H151.369V64.509H169.159V17.4482Z" fill="#010101"/>
</svg>
