<svg width="238" height="197" viewBox="0 0 238 197" fill="none" xmlns="http://www.w3.org/2000/svg">
<g clip-path="url(#clip0_16_897)">
<path d="M32.7355 0H14.7748V47.5103H32.7355V0Z" fill="#010101"/>
<path d="M47.5104 107.48V89.5196H2.67029e-05V107.48H47.5104Z" fill="#010101"/>
<path d="M32.7355 149.49H14.7748V197H32.7355V149.49Z" fill="#010101"/>
<path d="M142.532 32.7355V14.7748L95.022 14.7748V32.7355H142.532Z" fill="#010101"/>
<path d="M127.758 74.7448H109.797V122.255H127.758V74.7448Z" fill="#010101"/>
<path d="M142.532 182.225V164.264H95.022V182.225H142.532Z" fill="#010101"/>
<path d="M222.778 0H204.818V47.5103H222.778V0Z" fill="#010101"/>
<path d="M190.044 89.521V107.482H237.554V89.521H190.044Z" fill="#010101"/>
<path d="M222.778 149.49H204.818V197H222.778V149.49Z" fill="#010101"/>
<path d="M187.18 30.1059L193.531 23.7552L187.18 17.4058" stroke="#010101" stroke-width="1.5" stroke-miterlimit="10"/>
<path d="M156.831 23.7552H193.531" stroke="#010101" stroke-width="1.5" stroke-miterlimit="10"/>
<path d="M187.18 164.264L193.531 157.914L187.18 151.564" stroke="#010101" stroke-width="1.5" stroke-miterlimit="10"/>
<path d="M156.831 157.914H193.531" stroke="#010101" stroke-width="1.5" stroke-miterlimit="10"/>
<path d="M130.776 60.0903L137.127 53.7408L130.776 47.3901" stroke="#010101" stroke-width="1.5" stroke-miterlimit="10"/>
<path d="M100.428 53.7408H137.126" stroke="#010101" stroke-width="1.5" stroke-miterlimit="10"/>
<path d="M93.4337 142.534L99.7831 136.184L93.4337 129.834" stroke="#010101" stroke-width="1.5" stroke-miterlimit="10"/>
<path d="M63.0846 136.184H99.7831" stroke="#010101" stroke-width="1.5" stroke-miterlimit="10"/>
<path d="M75.0831 188.576L81.4339 182.225L75.0831 175.874" stroke="#010101" stroke-width="1.5" stroke-miterlimit="10"/>
<path d="M44.7354 182.225H81.4338" stroke="#010101" stroke-width="1.5" stroke-miterlimit="10"/>
<path d="M168.831 102.22L175.181 95.8691L168.831 89.5196" stroke="#010101" stroke-width="1.5" stroke-miterlimit="10"/>
<path d="M138.482 95.8691H175.181" stroke="#010101" stroke-width="1.5" stroke-miterlimit="10"/>
<path d="M63.0847 72.7904L69.4355 66.441L63.0847 60.0903" stroke="#010101" stroke-width="1.5" stroke-miterlimit="10"/>
<path d="M32.7356 66.441H69.4354" stroke="#010101" stroke-width="1.5" stroke-miterlimit="10"/>
</g>
<defs>
<clipPath id="clip0_16_897">
<rect width="237.554" height="197" fill="white"/>
</clipPath>
</defs>
</svg>
