<svg width="166" height="39" viewBox="0 0 166 39" fill="none" xmlns="http://www.w3.org/2000/svg">
<g clip-path="url(#clip0_253_508)">
<path fill-rule="evenodd" clip-rule="evenodd" d="M45.897 0C45.897 7.51284 42.5653 14.2265 37.3631 18.6207V0H22.9485C22.9485 13.2092 12.6549 23.9543 0 23.9543V39C8.6447 39 16.6109 35.9192 22.9485 30.757V39C31.5932 39 39.5616 35.9214 45.8993 30.757V38.3789H60.3139V0H45.897ZM24.5747 37.2659V27.28L21.9488 29.4192C16.0454 34.2274 9.04957 36.9231 1.62625 37.2682V25.5993C13.8876 24.7601 23.7198 14.4959 24.5227 1.70068H35.7029C35.3931 8.90411 33.1199 15.7759 29.0758 21.6681L26.1105 25.9911L30.926 24.2592C40.3374 20.8779 46.8221 11.9426 47.4712 1.69846H58.6514C57.8236 20.9202 42.9905 36.4022 24.5747 37.2659Z" fill="white"/>
<path d="M69.6719 13.2297V4.41016H71.418L73.9445 10.0665H74.4873L77.0138 4.41016H78.7599V13.2297H77.6765V5.54543H77.6539L75.1975 11.0882H73.2116L70.7711 5.54543H70.7462V13.2297H69.6741H69.6719Z" fill="white"/>
<path d="M81.6147 12.3885C81.2755 12.0991 81.0086 11.7563 80.8322 11.3757C80.6535 10.995 80.5698 10.5899 80.5811 10.1803C80.5788 9.77071 80.6716 9.36558 80.8525 8.98715C81.0335 8.60873 81.3003 8.26592 81.6351 7.97431C81.9721 7.68493 82.3702 7.45342 82.8112 7.29537C83.25 7.13732 83.7228 7.05496 84.2 7.05273C84.6773 7.05273 85.15 7.13065 85.5933 7.28424C86.0344 7.44006 86.437 7.66712 86.774 7.95428C87.1132 8.24143 87.3824 8.58424 87.5679 8.96044C87.7511 9.33664 87.8483 9.74178 87.8506 10.1514C87.8325 10.7613 87.6086 11.3534 87.206 11.8565C86.8034 12.3596 86.2379 12.7514 85.5797 12.9851C84.9215 13.2188 84.2 13.2834 83.4988 13.1721C82.7977 13.0608 82.1508 12.7781 81.6351 12.3596L81.617 12.3841L81.6147 12.3885ZM82.4064 8.57979C82.1712 8.78904 81.9879 9.03613 81.8658 9.3077C81.7437 9.57928 81.6849 9.86643 81.6962 10.158C81.6871 10.4474 81.7459 10.7368 81.8681 11.0062C81.9902 11.2777 82.1734 11.5248 82.4064 11.7341C82.8904 12.1303 83.535 12.3529 84.2045 12.3529C84.874 12.3529 85.5187 12.1325 86.0027 11.7341C86.2379 11.5248 86.4211 11.2777 86.5433 11.0062C86.6654 10.7346 86.7242 10.4474 86.7129 10.1558C86.7242 9.86643 86.6677 9.57705 86.5455 9.30547C86.4234 9.0339 86.2402 8.78681 86.0049 8.57756C85.5232 8.17688 84.8786 7.95205 84.2068 7.95205C83.535 7.95205 82.8904 8.17688 82.4086 8.57756L82.4064 8.57979Z" fill="white"/>
<path d="M89.6786 12.3611C89.3709 12.0673 89.1312 11.7178 88.9729 11.3372C88.8145 10.9543 88.7422 10.5469 88.758 10.1396C88.7467 9.73443 88.8213 9.33152 88.9797 8.95309C89.138 8.57467 89.3777 8.23186 89.6831 7.94025C90.002 7.64641 90.382 7.41713 90.8027 7.26576C91.2211 7.11439 91.669 7.04316 92.1191 7.05874C92.5692 7.07433 93.0102 7.1745 93.4174 7.3548C93.8222 7.53511 94.1841 7.79111 94.4782 8.10498C94.7405 8.41217 94.9396 8.76165 95.0594 9.13785H94.0416C93.9398 8.91748 93.7973 8.71713 93.6164 8.5435C93.4038 8.34316 93.1482 8.18734 92.8677 8.08494C92.5873 7.98254 92.2842 7.9358 91.9834 7.94693C91.6893 7.94025 91.3975 7.99367 91.1284 8.10275C90.8592 8.21183 90.6172 8.3721 90.4227 8.57467C89.9975 8.99761 89.7645 9.55635 89.7781 10.1351C89.76 10.7161 89.9907 11.2815 90.4227 11.7045C90.6172 11.9026 90.8547 12.0629 91.1216 12.1719C91.3862 12.281 91.6735 12.3344 91.9653 12.3344C92.2819 12.35 92.6008 12.2988 92.8949 12.1853C93.1889 12.0718 93.4513 11.9004 93.6639 11.6822C93.8561 11.493 94.0032 11.2704 94.1027 11.03H95.1205C94.9441 11.6733 94.537 12.2432 93.9647 12.6416C93.3925 13.0401 92.689 13.2493 91.9698 13.2271C91.5446 13.2382 91.1216 13.167 90.7258 13.0178C90.3322 12.8687 89.9726 12.6438 89.6786 12.3611Z" fill="white"/>
<path d="M96.0273 13.2252V7.05469H97.1469V9.52335H98.5606L100.82 7.05469H102.177L99.5671 9.95298L102.39 13.2097H100.976L98.5719 10.4494H97.1583V13.2252H96.0273Z" fill="white"/>
<path d="M103.293 12.3749C102.997 12.0922 102.764 11.7516 102.608 11.3799C102.452 11.0059 102.379 10.6074 102.388 10.2067C102.375 9.79715 102.447 9.38979 102.601 9.00914C102.755 8.62849 102.985 8.279 103.284 7.98517C103.58 7.69133 103.935 7.4576 104.329 7.29732C104.72 7.13705 105.143 7.05469 105.571 7.05469C105.998 7.05469 106.419 7.13705 106.812 7.29732C107.204 7.4576 107.561 7.69133 107.855 7.98517C108.151 8.279 108.384 8.62626 108.538 9.00914C108.692 9.38979 108.764 9.79715 108.751 10.2067C108.735 10.8055 108.538 11.3888 108.185 11.8829C107.83 12.3771 107.335 12.7622 106.758 12.9937C106.181 13.223 105.546 13.2876 104.931 13.1785C104.315 13.0694 103.748 12.7912 103.295 12.3771L103.293 12.3749ZM103.99 8.63072C103.784 8.83551 103.621 9.07815 103.515 9.34527C103.408 9.61239 103.359 9.8951 103.368 10.18C103.359 10.465 103.411 10.7499 103.517 11.0148C103.623 11.2797 103.786 11.5246 103.992 11.7293C104.417 12.1189 104.983 12.3371 105.571 12.3371C106.159 12.3371 106.724 12.1189 107.147 11.7293C107.353 11.5223 107.514 11.2797 107.62 11.0148C107.726 10.7499 107.778 10.465 107.771 10.18C107.781 9.8951 107.728 9.61017 107.622 9.34527C107.516 9.07815 107.353 8.83551 107.147 8.63072C106.724 8.23671 106.159 8.01411 105.571 8.01411C104.983 8.01411 104.413 8.23448 103.99 8.63072Z" fill="white"/>
<path d="M110.566 13.2279V7.05962H113.785C114.307 7.03291 114.821 7.1865 115.23 7.49369C115.4 7.63171 115.536 7.80089 115.626 7.99455C115.717 8.18599 115.76 8.39524 115.755 8.60448C115.755 8.79369 115.726 8.98291 115.665 9.16544C115.617 9.30791 115.54 9.44147 115.438 9.55945C115.357 9.64849 115.262 9.72863 115.158 9.79318C115.081 9.84438 114.997 9.88667 114.909 9.91784C114.864 9.93342 114.819 9.94232 114.771 9.94678C114.825 9.95123 114.877 9.96236 114.927 9.98017C115.036 10.0113 115.14 10.0581 115.237 10.1137C115.368 10.1872 115.488 10.2718 115.601 10.3675C115.73 10.4899 115.83 10.6368 115.895 10.7971C115.981 10.9975 116.022 11.2134 116.02 11.4293C116.031 11.6742 115.983 11.9168 115.884 12.1439C115.784 12.3709 115.628 12.5713 115.434 12.7338C114.975 13.0855 114.391 13.2636 113.801 13.2279H110.566ZM111.607 9.59284H113.708C114.364 9.59284 114.692 9.32572 114.692 8.78924C114.692 8.25277 114.364 7.98787 113.708 7.98787H111.607V9.59284ZM111.607 12.3064H113.774C114.09 12.3264 114.402 12.2374 114.654 12.0593C114.755 11.9747 114.834 11.8701 114.886 11.7521C114.939 11.6341 114.961 11.5072 114.954 11.3803C114.961 11.2535 114.939 11.1266 114.886 11.0086C114.834 10.8906 114.755 10.786 114.654 10.6992C114.4 10.5211 114.088 10.4343 113.774 10.4543H111.607V12.3064Z" fill="white"/>
<path d="M117.851 12.3278C117.548 12.0384 117.309 11.6934 117.152 11.3172C116.994 10.941 116.919 10.5381 116.931 10.1329C116.919 9.7278 116.994 9.32712 117.152 8.94869C117.311 8.57249 117.548 8.22746 117.854 7.93808C118.173 7.64424 118.553 7.41496 118.971 7.26359C119.389 7.11222 119.837 7.04321 120.285 7.0588C120.735 7.07438 121.174 7.17455 121.579 7.35486C121.984 7.53516 122.343 7.78893 122.637 8.10503C122.9 8.40999 123.097 8.76171 123.212 9.13568H122.196C122.097 8.9153 121.952 8.71496 121.773 8.54356C121.563 8.34321 121.307 8.18739 121.027 8.08499C120.747 7.9826 120.446 7.93585 120.145 7.94698C119.851 7.9403 119.561 7.99373 119.292 8.1028C119.023 8.21188 118.783 8.37215 118.586 8.57472C118.168 9.00434 117.946 9.5653 117.967 10.1418C117.949 10.7228 118.179 11.286 118.607 11.709C118.801 11.9071 119.039 12.0674 119.303 12.1742C119.568 12.2833 119.855 12.3367 120.145 12.3367C120.462 12.3523 120.778 12.3011 121.072 12.1876C121.364 12.074 121.626 11.9026 121.839 11.6845C122.031 11.4975 122.181 11.2749 122.276 11.0323H123.291C123.18 11.4352 122.979 11.8114 122.703 12.1364C122.398 12.4881 122.009 12.7708 121.565 12.96C121.122 13.1492 120.638 13.2405 120.149 13.2271C119.72 13.236 119.292 13.1603 118.896 13.0045C118.501 12.8487 118.145 12.6194 117.851 12.3278Z" fill="white"/>
<path d="M124.198 13.2252V7.05469H125.319V9.52335H126.733L128.997 7.05469H130.343L127.726 9.95298L130.558 13.2097H129.142L126.742 10.4494H125.328V13.2252H124.198Z" fill="white"/>
<path d="M131.467 13.2294V7.05664H132.448V11.8092H132.471L135.805 7.05664H136.92V13.2294H135.938V8.47685H135.911L132.582 13.2294H131.467Z" fill="white"/>
<path d="M138.736 13.2299V6.93029H139.718V11.7808H139.741L143.072 6.93029H144.187V13.2299H143.206V8.37944H143.181L139.849 13.2299H138.736ZM139.625 4.41043H140.546C140.544 4.51505 140.562 4.61745 140.602 4.71094C140.643 4.80666 140.704 4.89125 140.781 4.95803C140.982 5.1094 141.227 5.18063 141.475 5.16505C141.726 5.18731 141.98 5.11385 142.183 4.95803C142.26 4.88903 142.319 4.80444 142.36 4.71094C142.4 4.61522 142.419 4.51283 142.414 4.41043H143.344C143.348 4.62635 143.305 4.84005 143.217 5.03594C143.129 5.23183 143 5.40546 142.837 5.54348C142.45 5.85512 141.964 6.01094 141.471 5.982C140.98 6.01094 140.494 5.85512 140.109 5.54348C139.951 5.40324 139.827 5.22738 139.741 5.03149C139.657 4.8356 139.616 4.62413 139.625 4.41043Z" fill="white"/>
<path d="M69.6719 23.8134V17.6406H70.6535V22.3954H70.6807L74.0101 17.6406H75.1229V23.8134H74.1412V19.0586H74.1186L70.7892 23.8134H69.6719Z" fill="white"/>
<path d="M76.9437 23.8134V17.6406H77.9276V20.1716H81.4108V17.6406H82.3947V23.8134H81.4108V21.0976H77.9366V23.8134H76.9414H76.9437Z" fill="white"/>
<path d="M84.2129 23.8134V17.6406H85.199V20.1716H88.68V17.6406H89.6662V23.8134H88.68V21.0976H85.199V23.8134H84.2129Z" fill="white"/>
<path d="M92.3888 22.9569C92.0925 22.672 91.8595 22.3336 91.7034 21.9619C91.5474 21.5879 91.4727 21.1895 91.484 20.7888C91.4705 20.3792 91.5428 19.9718 91.6966 19.5912C91.8505 19.2105 92.0812 18.861 92.3797 18.5672C92.676 18.2734 93.0311 18.0396 93.4224 17.8794C93.816 17.7191 94.2367 17.6367 94.6642 17.6367C95.0916 17.6367 95.5123 17.7191 95.9059 17.8794C96.2995 18.0396 96.6546 18.2734 96.9509 18.5672C97.2472 18.861 97.4801 19.2083 97.6339 19.5912C97.7877 19.974 97.8601 20.3792 97.8465 20.7888C97.8307 21.3876 97.6339 21.9708 97.2811 22.465C96.9282 22.9592 96.4329 23.3443 95.8539 23.5758C95.2771 23.805 94.6415 23.8696 94.0263 23.7605C93.4111 23.6514 92.8434 23.3732 92.391 22.9592L92.3888 22.9569ZM93.0854 19.2127C92.8796 19.4175 92.7167 19.6602 92.6104 19.9273C92.5041 20.1944 92.4544 20.4771 92.4634 20.7621C92.4544 21.047 92.5041 21.3319 92.6104 21.5968C92.719 21.8639 92.8796 22.1066 93.0854 22.3114C93.5084 22.7054 94.0738 22.928 94.6619 22.928C95.25 22.928 95.8177 22.7076 96.2407 22.3114C96.4465 22.1066 96.6093 21.8639 96.7156 21.5968C96.8219 21.3297 96.874 21.047 96.8627 20.7621C96.8717 20.4771 96.8219 20.1922 96.7156 19.9273C96.6093 19.6602 96.4465 19.4175 96.2407 19.2127C95.8177 18.8187 95.2522 18.5961 94.6619 18.5961C94.0716 18.5961 93.5061 18.8165 93.0854 19.2127Z" fill="white"/>
<path d="M99.6621 23.8127V17.6421H102.887C103.412 17.6132 103.928 17.7668 104.337 18.0718C104.507 18.2075 104.643 18.3789 104.733 18.5726C104.824 18.764 104.869 18.9733 104.862 19.1848C104.862 19.374 104.833 19.5632 104.772 19.7457C104.69 20.0062 104.509 20.231 104.265 20.3757C104.188 20.4269 104.104 20.4692 104.014 20.5003C103.969 20.5182 103.923 20.5293 103.876 20.5337C103.93 20.5382 103.984 20.5471 104.036 20.5627C104.145 20.5961 104.249 20.6406 104.346 20.6985C104.471 20.7697 104.586 20.8543 104.695 20.95C104.826 21.0724 104.925 21.2216 104.991 21.3841C105.077 21.5844 105.12 21.7981 105.115 22.014C105.127 22.2589 105.079 22.5015 104.977 22.7264C104.876 22.9512 104.724 23.1538 104.53 23.3163C104.068 23.668 103.482 23.8438 102.887 23.8082L99.6621 23.8149V23.8127ZM100.707 20.1731H102.811C103.471 20.1731 103.799 19.906 103.799 19.3718C103.799 18.8375 103.482 18.5793 102.822 18.5793H100.718L100.709 20.1731H100.707ZM100.707 22.8889H102.876C103.193 22.9111 103.507 22.8221 103.761 22.6418C103.856 22.5527 103.932 22.4481 103.984 22.3324C104.036 22.2166 104.064 22.092 104.064 21.9651C104.064 21.8382 104.036 21.7135 103.984 21.5978C103.932 21.482 103.856 21.3752 103.761 21.2884C103.507 21.1081 103.193 21.019 102.876 21.0413H100.707V22.8933V22.8889Z" fill="white"/>
<path d="M106.92 22.9336C106.323 22.337 106.002 21.5468 106.025 20.7299C106 19.9151 106.321 19.1227 106.92 18.5261C107.194 18.2434 107.529 18.0163 107.904 17.8627C108.28 17.7091 108.687 17.6334 109.094 17.6379C109.565 17.6245 110.028 17.7247 110.444 17.9251C110.763 18.0742 111.039 18.2901 111.254 18.555L111.369 18.7309V17.7425H112.383V23.6994H111.369V22.7355L111.254 22.9025C111.046 23.1607 110.775 23.3721 110.465 23.5168C110.04 23.7216 109.562 23.824 109.083 23.8084C108.676 23.8129 108.273 23.7372 107.9 23.5858C107.527 23.4345 107.192 23.2119 106.918 22.9292L106.92 22.9336ZM107.68 19.1382C107.264 19.5679 107.04 20.1333 107.063 20.712C107.043 21.2908 107.264 21.8562 107.68 22.2858C107.882 22.4817 108.124 22.6376 108.391 22.7444C108.658 22.8513 108.945 22.9069 109.237 22.9069C109.528 22.9069 109.813 22.8513 110.082 22.7444C110.349 22.6376 110.591 22.4817 110.793 22.2858C111.211 21.8562 111.433 21.2908 111.41 20.712C111.431 20.1333 111.209 19.5679 110.793 19.1382C110.591 18.9424 110.352 18.7865 110.082 18.6797C109.816 18.5728 109.528 18.5172 109.237 18.5172C108.945 18.5172 108.658 18.5728 108.391 18.6797C108.124 18.7865 107.882 18.9424 107.68 19.1382Z" fill="white"/>
<path d="M114.2 24.0939V17.6406H115.231V23.1256H118.617V17.6406H119.648V23.1256H120.56V25.5764H119.528V24.0939H114.197H114.2Z" fill="white"/>
<path d="M121.471 23.8134V17.6406H122.452V22.3954H122.475L125.809 17.6406H126.924V23.8134H125.942V19.0586H125.92L122.586 23.8134H121.471Z" fill="white"/>
<path d="M129.647 22.9569C129.35 22.672 129.117 22.3336 128.961 21.9619C128.805 21.5879 128.733 21.1895 128.742 20.7888C128.728 20.3792 128.801 19.9718 128.954 19.5912C129.108 19.2105 129.339 18.861 129.638 18.5672C129.936 18.2734 130.289 18.0396 130.682 17.8794C131.074 17.7191 131.497 17.6367 131.924 17.6367C132.352 17.6367 132.772 17.7191 133.166 17.8794C133.557 18.0396 133.912 18.2734 134.209 18.5672C134.505 18.861 134.738 19.2083 134.892 19.5912C135.046 19.9718 135.118 20.3792 135.104 20.7888C135.089 21.3876 134.892 21.9708 134.539 22.465C134.184 22.9592 133.688 23.3443 133.112 23.5758C132.535 23.805 131.899 23.8696 131.284 23.7605C130.669 23.6514 130.101 23.3732 129.649 22.9592L129.647 22.9569ZM130.343 19.2127C130.137 19.4175 129.975 19.6602 129.868 19.9273C129.76 20.1944 129.71 20.4771 129.721 20.7621C129.712 21.047 129.762 21.3319 129.868 21.5968C129.975 21.8639 130.137 22.1066 130.343 22.3114C130.766 22.7054 131.332 22.928 131.922 22.928C132.512 22.928 133.078 22.7076 133.498 22.3114C133.704 22.1066 133.867 21.8639 133.973 21.5968C134.082 21.3297 134.132 21.047 134.12 20.7621C134.13 20.4771 134.08 20.1922 133.973 19.9273C133.865 19.6602 133.704 19.4175 133.498 19.2127C133.076 18.8187 132.51 18.5961 131.922 18.5961C131.334 18.5961 130.766 18.8165 130.343 19.2127Z" fill="white"/>
<path d="M136.92 23.8134V17.6406H137.904V20.1716H141.387V17.6406H142.371V23.8134H141.387V21.0976H137.913V23.8134H136.92Z" fill="white"/>
<path d="M144.189 23.8134V17.6406H145.176V20.1716H148.657V17.6406H149.643V23.8134H148.657V21.0976H145.176V23.8134H144.189Z" fill="white"/>
<path d="M151.459 23.8112V17.6406H152.538V19.7375H154.171C154.854 19.7108 155.522 19.9223 156.039 20.3252C156.266 20.5077 156.449 20.7304 156.573 20.9797C156.698 21.229 156.763 21.5006 156.763 21.7766C156.763 22.0526 156.698 22.322 156.573 22.5735C156.449 22.8228 156.266 23.0476 156.039 23.228C155.522 23.6309 154.854 23.8401 154.171 23.8156H151.457L151.459 23.8112ZM152.538 22.8851H154.171C154.569 22.9074 154.963 22.7983 155.277 22.5757C155.402 22.4756 155.501 22.3509 155.569 22.2129C155.637 22.0749 155.673 21.9257 155.673 21.7744C155.673 21.623 155.639 21.4738 155.569 21.3358C155.501 21.1978 155.402 21.0732 155.277 20.973C154.965 20.7459 154.572 20.6302 154.171 20.648H152.538V22.8874V22.8851ZM157.648 23.8112V17.6406H158.727V23.8112H157.648Z" fill="white"/>
<path d="M160.547 23.8117V17.5143H161.529V22.3648H161.551L164.885 17.5143H166V23.8117H165.019V18.9612H164.991L161.66 23.8117H160.547ZM161.438 14.9922H162.368C162.363 15.0968 162.383 15.1992 162.424 15.2949C162.465 15.3906 162.526 15.4752 162.603 15.542C162.809 15.6778 163.051 15.7513 163.297 15.7513C163.544 15.7513 163.784 15.6778 163.992 15.542C164.069 15.4752 164.13 15.3906 164.17 15.2949C164.211 15.1992 164.229 15.0968 164.227 14.9922H165.156C165.166 15.2103 165.125 15.4263 165.037 15.6244C164.951 15.8225 164.822 16.0006 164.659 16.1408C164.261 16.428 163.784 16.5838 163.297 16.5838C162.811 16.5838 162.334 16.4302 161.936 16.1408C161.773 16.0006 161.644 15.8225 161.558 15.6244C161.472 15.4263 161.429 15.2103 161.438 14.9922Z" fill="white"/>
<path d="M69.6719 34.3954V28.2227H70.6332V30.6935H71.8478L73.7907 28.2227H74.9419L72.6982 31.1232L75.1251 34.3821H73.9196L71.8545 31.6062H70.6399V34.3821L69.6719 34.3954Z" fill="white"/>
<path d="M75.125 34.3954L76.9367 28.2227H79.6735L81.4853 34.3954H80.3702L78.8796 29.1487H77.7148L76.2265 34.3954H75.125Z" fill="white"/>
<path d="M83.2834 33.5061C82.7112 32.8962 82.3945 32.1149 82.3945 31.3068C82.3945 30.4988 82.7112 29.7174 83.2834 29.1075C83.5571 28.8248 83.8919 28.5978 84.2696 28.4464C84.645 28.2928 85.0499 28.2171 85.4616 28.2216C85.932 28.2104 86.3957 28.3084 86.8141 28.5065C87.1308 28.6579 87.409 28.8738 87.6261 29.1342L87.7415 29.3123V28.3217H88.757V34.2719H87.7415V33.3303L87.6261 33.4972C87.4203 33.751 87.1557 33.9558 86.8503 34.1005C86.4228 34.3031 85.9479 34.4032 85.4661 34.3899C85.0544 34.3966 84.6473 34.3186 84.2718 34.1673C83.8941 34.0137 83.5594 33.7888 83.2834 33.5039V33.5061ZM84.0321 29.7174C83.6317 30.1627 83.4123 30.7214 83.4123 31.3002C83.4123 31.8789 83.6317 32.4399 84.0321 32.8829C84.2334 33.0765 84.4754 33.2323 84.7423 33.3392C85.0092 33.4438 85.2965 33.4995 85.5882 33.4995C85.88 33.4995 86.165 33.4438 86.4342 33.3392C86.701 33.2323 86.9431 33.0787 87.1444 32.8829C87.547 32.4399 87.7686 31.8789 87.7686 31.3002C87.7686 30.7214 87.547 30.1604 87.1444 29.7174C86.9431 29.5216 86.701 29.3657 86.4342 29.2611C86.1673 29.1543 85.88 29.1008 85.5882 29.1008C85.2965 29.1008 85.0092 29.1565 84.7423 29.2611C84.4754 29.368 84.2334 29.5238 84.0321 29.7174Z" fill="white"/>
<path d="M91.5035 33.5139C90.9064 32.9106 90.5762 32.1248 90.5762 31.3079C90.5762 30.4909 90.9064 29.7051 91.5035 29.1019C91.8224 28.808 92.2024 28.581 92.6231 28.4296C93.0416 28.2782 93.4917 28.2092 93.9418 28.2248C94.3919 28.2404 94.8329 28.3406 95.2401 28.5209C95.6449 28.7012 96.0068 28.9549 96.3031 29.2688C96.5678 29.5738 96.7668 29.9233 96.8844 30.2995H95.8643C95.7625 30.0746 95.6155 29.8698 95.4301 29.694C95.2174 29.4959 94.9619 29.3401 94.6814 29.2377C94.4009 29.1353 94.0978 29.0885 93.7948 29.0996C93.5007 29.093 93.2089 29.1464 92.9398 29.2555C92.6706 29.3645 92.4286 29.5248 92.2318 29.7274C91.8111 30.1548 91.5849 30.7157 91.6076 31.2945C91.5895 31.8755 91.8224 32.4387 92.2544 32.8616C92.449 33.0597 92.6865 33.22 92.9534 33.3269C93.2203 33.4359 93.5075 33.4894 93.797 33.4894C94.1159 33.5027 94.4326 33.4537 94.7266 33.3402C95.0207 33.2267 95.283 33.0553 95.4957 32.8371C95.6834 32.6546 95.8281 32.4387 95.9209 32.2049H96.941C96.8301 32.6056 96.6288 32.9818 96.3506 33.3068C96.0453 33.6585 95.6562 33.939 95.2129 34.1282C94.7696 34.3174 94.2856 34.4087 93.797 34.3976C93.3695 34.4065 92.9443 34.333 92.5507 34.1817C92.1572 34.0303 91.7998 33.8032 91.5081 33.5183L91.5035 33.5139Z" fill="white"/>
<path d="M96.9355 29.1467V28.2207H102.389V29.1467H100.17V34.3935H99.1657V29.1467H96.9355Z" fill="white"/>
<path d="M104.206 33.5131C103.623 32.9143 103.297 32.1263 103.297 31.3071C103.297 30.4879 103.62 29.7021 104.206 29.1011C104.5 28.8139 104.853 28.5869 105.244 28.4355C105.636 28.2841 106.054 28.2107 106.475 28.2218C106.898 28.2129 107.316 28.2864 107.707 28.4355C108.099 28.5846 108.454 28.8095 108.75 29.0922C109.049 29.3771 109.282 29.7155 109.438 30.0872C109.594 30.459 109.668 30.8596 109.657 31.2603V31.6054H104.299C104.349 32.1285 104.602 32.6138 105.009 32.9677C105.407 33.3216 105.934 33.5131 106.477 33.4997C107.056 33.5131 107.619 33.3239 108.063 32.9677C108.255 32.8208 108.415 32.6405 108.538 32.4357H109.526C109.295 33.0233 108.877 33.5287 108.332 33.8781C107.784 34.2298 107.137 34.4079 106.477 34.3923C106.056 34.4035 105.636 34.33 105.244 34.1787C104.853 34.0273 104.5 33.8002 104.206 33.5131ZM104.319 30.7751H108.601C108.533 30.3165 108.291 29.898 107.922 29.593C107.524 29.2658 107.013 29.0944 106.486 29.11C105.957 29.0966 105.443 29.268 105.038 29.593C104.656 29.8913 104.403 30.3098 104.319 30.7751Z" fill="white"/>
<path d="M111.475 37.0395V28.358H112.489V29.3552L112.617 29.166C112.823 28.8989 113.09 28.6808 113.396 28.5316C113.821 28.3135 114.296 28.2066 114.775 28.2222C115.185 28.2177 115.592 28.2979 115.965 28.4604C116.34 28.6229 116.675 28.8611 116.949 29.1593C117.521 29.8027 117.835 30.6308 117.835 31.4855C117.835 32.3403 117.521 33.1662 116.949 33.8117C116.501 34.277 115.913 34.5886 115.273 34.7022C114.633 34.8157 113.972 34.7244 113.386 34.4439C113.077 34.297 112.81 34.0744 112.613 33.7962L112.484 33.6203V37.0417H111.471L111.475 37.0395ZM113.12 29.8294C112.719 30.2968 112.498 30.8912 112.498 31.5034C112.498 32.1155 112.719 32.7099 113.12 33.1773C113.321 33.3821 113.561 33.5468 113.828 33.6582C114.094 33.7695 114.382 33.8273 114.671 33.8273C114.961 33.8273 115.248 33.7695 115.515 33.6582C115.782 33.5468 116.021 33.3821 116.223 33.1773C116.623 32.7099 116.845 32.1155 116.845 31.5034C116.845 30.8912 116.623 30.2968 116.223 29.8294C116.021 29.6224 115.782 29.4576 115.515 29.3463C115.248 29.235 114.961 29.1749 114.671 29.1749C114.382 29.1749 114.094 29.2328 113.828 29.3463C113.561 29.4599 113.321 29.6224 113.12 29.8294Z" fill="white"/>
</g>
<defs>
<clipPath id="clip0_253_508">
<rect width="166" height="39" fill="white"/>
</clipPath>
</defs>
</svg>
