<svg width="183" height="99" viewBox="0 0 183 99" fill="none" xmlns="http://www.w3.org/2000/svg">
<path d="M182.075 49.2812H163V98.875H182.075V49.2812Z" fill="#010101"/>
<path d="M128 59H109V99H128V59Z" fill="#010101"/>
<path d="M155 69H136V99H155V69Z" fill="#010101"/>
<path d="M101 80H82V99H101V80Z" fill="#010101"/>
<path d="M74 89H55V99H74V89Z" fill="#010101"/>
<g clip-path="url(#clip0_2012_6)">
<path d="M122.635 3.125V0.625H110.135H103.885V3.125V21.25V23.75V44.375H110.135V23.75H117.635V21.25H110.135V3.125H122.635Z" fill="black"/>
<path d="M155.605 0.625H149.355H143.105H136.855V3.125H143.105V44.375H149.355V3.125H155.605V0.625Z" fill="black"/>
<path d="M132.736 0.625H126.486V44.375H132.736V0.625Z" fill="black"/>
<path d="M77.1562 0C64.73 0 54.6562 10.0737 54.6562 22.5C54.6562 34.9263 64.73 45 77.1562 45C89.5825 45 99.6563 34.9263 99.6563 22.5C99.6563 10.0737 89.5825 0 77.1562 0ZM91.2294 30.625C85.7063 40.1906 74.9287 44.3081 67.1562 39.8206C59.3837 35.3331 57.5606 23.9412 63.0831 14.375C68.6063 4.80937 79.3838 0.691875 87.1563 5.17937C94.9288 9.66687 96.7519 21.0588 91.2294 30.625Z" fill="black"/>
<path d="M52.4395 11.5625C52.4395 5.52187 47.5426 0.625 41.502 0.625H28.0645V44.375H34.3145V22.5H39.8651L45.3701 44.375H51.8145L46.0576 21.4969C49.8207 19.7681 52.4395 15.975 52.4395 11.5625ZM34.3145 20V3.125H39.627C43.2457 3.125 46.1895 6.91 46.1895 11.5625C46.1895 16.215 43.2457 20 39.627 20H34.3145Z" fill="black"/>
<path d="M13.4375 0.625H0V44.375H6.25V22.5H13.4375C19.4781 22.5 24.375 17.6031 24.375 11.5625C24.375 5.52187 19.4781 0.625 13.4375 0.625ZM11.5625 20H6.25V3.125H11.5625C15.1812 3.125 18.125 6.91 18.125 11.5625C18.125 16.215 15.1812 20 11.5625 20Z" fill="black"/>
</g>
<defs>
<clipPath id="clip0_2012_6">
<rect width="155.605" height="45" fill="white"/>
</clipPath>
</defs>
</svg>
