<svg width="16" height="13" viewBox="0 0 16 13" fill="none" xmlns="http://www.w3.org/2000/svg">
<path fill-rule="evenodd" clip-rule="evenodd" d="M14.3945 11.7333L2.6612 0L1.60521 1.05594L13.3385 12.7893L14.3945 11.7333ZM16 6.39466C16 7.26956 14.929 8.62284 13.2361 9.66976L10.5917 7.02537C10.6406 6.82316 10.6667 6.61195 10.6667 6.39466C10.6667 4.9219 9.47279 3.72799 8 3.72799C7.78268 3.72799 7.57148 3.75398 7.36927 3.80302L5.49896 1.93274C6.28581 1.71971 7.12656 1.59466 8 1.59466C12.4182 1.59466 16 4.79466 16 6.39466ZM5.33333 6.39466C5.33333 6.17744 5.35925 5.96628 5.40833 5.76413L2.7638 3.11965C1.07083 4.16655 0 5.51979 0 6.39466C0 7.99466 3.58177 11.1947 8 11.1947C8.87331 11.1947 9.71406 11.0696 10.5008 10.8566L8.63047 8.98634C8.42839 9.03536 8.21719 9.06133 8 9.06133C6.52721 9.06133 5.33333 7.86742 5.33333 6.39466Z" fill="#010101"/>
</svg>
