<svg width="12" height="12" viewBox="0 0 12 12" fill="none" xmlns="http://www.w3.org/2000/svg">
<path d="M6 12C2.69281 12 0 9.30719 0 6C0 2.69281 2.69281 0 6 0C9.30719 0 12 2.69281 12 6C12 9.30719 9.30719 12 6 12ZM6 10.8758C8.69281 10.8758 10.8758 8.69281 10.8758 6C10.8758 3.30719 8.69281 1.12418 6 1.12418C3.30719 1.12418 1.12418 3.30719 1.12418 6C1.12418 8.69281 3.30719 10.8758 6 10.8758ZM6 3.86928C5.60784 3.86928 5.28105 3.72549 5.28105 3.22876C5.28105 2.70588 5.64706 2.58824 6 2.58824C6.44444 2.58824 6.70588 2.78431 6.70588 3.22876C6.70588 3.72549 6.35294 3.86928 6 3.86928ZM5.33333 9.28105V4.47059H6.65359V9.28105H5.33333Z" fill="#010101"/>
</svg>
