<svg width="14" height="16" viewBox="0 0 14 16" fill="none" xmlns="http://www.w3.org/2000/svg">
<path d="M6.6665 15.53V13.13C3.3265 12.9566 0.666504 10.1833 0.666504 6.8033C0.666504 3.30997 3.5065 0.469971 6.99984 0.469971C10.4932 0.469971 13.3332 3.30997 13.3332 6.8033C13.3332 10.1033 11.0398 13.4233 7.61984 15.07L6.6665 15.53ZM6.99984 1.8033C4.23984 1.8033 1.99984 4.0433 1.99984 6.8033C1.99984 9.5633 4.23984 11.8033 6.99984 11.8033H7.99984V13.3366C10.4265 11.8033 11.9998 9.2833 11.9998 6.8033C11.9998 4.0433 9.75984 1.8033 6.99984 1.8033ZM6.33317 9.46997H7.6665V10.8033H6.33317V9.46997ZM7.6665 8.46997H6.33317C6.33317 6.3033 8.33317 6.46997 8.33317 5.13664C8.33317 4.4033 7.73317 3.8033 6.99984 3.8033C6.2665 3.8033 5.6665 4.4033 5.6665 5.13664H4.33317C4.33317 3.6633 5.5265 2.46997 6.99984 2.46997C8.47317 2.46997 9.6665 3.6633 9.6665 5.13664C9.6665 6.8033 7.6665 6.96997 7.6665 8.46997Z" fill="#F0F6F7"/>
</svg>
