<svg width="10" height="12" viewBox="0 0 10 12" fill="none" xmlns="http://www.w3.org/2000/svg">
<path d="M4.42897 11.8357C3.96472 11.7892 3.51904 11.6754 3.09192 11.4942C2.66481 11.3133 2.25627 11.0743 1.8663 10.7772L2.64624 9.96936C2.91551 10.1643 3.20112 10.3222 3.50307 10.4429C3.80465 10.5636 4.11328 10.6472 4.42897 10.6936V11.8357ZM5.54318 11.8357V10.6936C6.50883 10.5543 7.30734 10.1203 7.93872 9.39164C8.57011 8.66258 8.8858 7.81522 8.8858 6.84958C8.8858 5.76323 8.50734 4.84178 7.75042 4.08523C6.99388 3.32831 6.07243 2.94985 4.98608 2.94985H4.87466L5.76602 3.84122L4.98608 4.62117L2.75766 2.39275L4.98608 0.164337L5.76602 0.972137L4.90251 1.83565H4.98608C5.68246 1.83565 6.33482 1.96787 6.94318 2.23231C7.55117 2.49712 8.08042 2.85459 8.53093 3.30473C8.98107 3.75524 9.33854 4.28449 9.60335 4.89247C9.86779 5.50083 10 6.1532 10 6.84958C10 8.12163 9.57754 9.22897 8.7326 10.1716C7.88766 11.1138 6.82452 11.6685 5.54318 11.8357ZM1.0585 9.96936C0.761375 9.57939 0.522377 9.17084 0.341505 8.74373C0.16026 8.31662 0.0464253 7.87094 0 7.40668H1.14206C1.18849 7.72237 1.27205 8.03101 1.39276 8.33259C1.51346 8.63454 1.67131 8.92015 1.8663 9.18941L1.0585 9.96936ZM0 6.29248C0.0557103 5.81894 0.171774 5.36397 0.34819 4.92757C0.524606 4.49117 0.761375 4.09192 1.0585 3.7298L1.8663 4.50974C1.67131 4.77901 1.51346 5.06443 1.39276 5.36601C1.27205 5.66796 1.18849 5.97678 1.14206 6.29248H0Z" fill="#010101"/>
</svg>
