<svg width="22" height="23" viewBox="0 0 22 23" fill="none" xmlns="http://www.w3.org/2000/svg">
<path d="M6.4663 0.869652H15.5321C20.0932 0.869652 21.7992 2.57571 21.7992 7.13673V16.2026C21.7992 20.7636 20.0932 22.4697 15.5321 22.4697H6.4663C1.90528 22.4653 0.199219 20.7636 0.199219 16.2026V7.13673C0.199219 2.57571 1.90528 0.869652 6.4663 0.869652Z" fill="url(#paint0_linear_2010_922)"/>
<path fill-rule="evenodd" clip-rule="evenodd" d="M6.77539 17.939H15.2257V16.2532H6.77539V17.939ZM9.85035 10.6758L10.99 7.28863H11.0321L12.1085 10.6758H9.85035ZM12.4879 6.66335C12.2562 5.97249 11.9893 5.42678 11.0744 5.42678C10.1594 5.42678 9.87534 5.97023 9.63144 6.66335L7.11741 13.8087H8.78459L9.36495 12.1228H12.5728L13.1109 13.8087H14.8836L12.4879 6.66335Z" fill="white"/>
<defs>
<linearGradient id="paint0_linear_2010_922" x1="1080.13" y1="68.5425" x2="1080.13" y2="2160.52" gradientUnits="userSpaceOnUse">
<stop stop-color="#ED3024"/>
<stop offset="1" stop-color="#B6241C"/>
</linearGradient>
</defs>
</svg>
