<svg width="480" height="57" viewBox="0 0 480 57" fill="none" xmlns="http://www.w3.org/2000/svg">
<path d="M42.2743 37.9997C35.8909 49.1837 23.4324 53.9986 14.4485 48.7512C5.46368 43.5047 3.35709 30.1834 9.74051 18.9994C16.1248 7.81539 28.5824 3.00048 37.5663 8.24791C46.5502 13.4944 48.6577 26.8148 42.2743 37.9997ZM26.007 2.19255C11.6436 2.19255 0 13.9705 0 28.4995C0 43.0286 11.6436 54.8074 26.007 54.8074C40.3703 54.8074 52.0139 43.0286 52.0139 28.4995C52.0139 13.9705 40.3703 2.19255 26.007 2.19255Z" fill="#010101"/>
<path d="M106.686 2.9234H99.4614V54.0775H121.135V51.1541H106.687L106.686 2.9234Z" fill="#010101"/>
<path d="M86.942 44.6082L63.1492 2.9234H57.3225V54.0775H60.2117V12.3918L84.0045 54.0766H89.8312V2.9234H86.942V44.6082Z" fill="#010101"/>
<path d="M149.497 2.9234H146.384L136.575 27.6934L126.766 2.9234H118.983L130.631 32.337V54.0775H137.855V32.337H137.849L149.497 2.9234Z" fill="#010101"/>
<path d="M176.642 2.9234V54.0775H183.867V29.9622H192.537V27.0388H183.867V5.8459H198.315V2.9225L176.642 2.9234Z" fill="#010101"/>
<path d="M211.946 2.9234H204.722V54.0775H211.946V2.9234Z" fill="#010101"/>
<path d="M250.098 44.6082L226.306 2.9234H220.478V54.0775H223.368V12.3918L247.16 54.0766H252.988V2.9234H250.098V44.6082Z" fill="#010101"/>
<path d="M326.823 44.6082L303.03 2.9234H297.203V54.0775H300.092V12.3918L323.885 54.0766H329.712V2.9234H326.823V44.6082Z" fill="#010101"/>
<path d="M265.557 39.8268L273.163 8.93524L280.848 39.8268H265.557ZM271.667 2.9234L259.073 54.0775H262.051L264.839 42.7502H281.576L284.394 54.0775H291.843L279.117 2.9234H271.667Z" fill="#010101"/>
<path d="M377.793 37.9997C371.409 49.1837 358.951 53.9986 349.967 48.7512C340.983 43.5047 338.876 30.1834 345.259 18.9994C351.642 7.81448 364.101 3.00048 373.085 8.24791C378.516 11.4198 381.43 17.5431 381.478 24.3602H387.212C385.249 11.7979 374.498 2.19164 361.527 2.19164C347.164 2.19164 335.52 13.9705 335.52 28.4995C335.52 43.0286 347.164 54.8074 361.527 54.8074C374.83 54.8074 385.792 44.7025 387.341 31.6687H380.464C379.855 33.8086 378.969 35.9404 377.793 37.9997Z" fill="#010101"/>
<path d="M414.982 5.8459V2.9225H393.309V54.0766H414.982V51.1532H400.533V29.9612H409.202V27.0378H400.533V5.8459H414.982Z" fill="#010101"/>
<path d="M480 0H458.327V57H480V0Z" fill="#010101"/>
</svg>
