<svg width="272" height="131" viewBox="0 0 272 131" fill="none" xmlns="http://www.w3.org/2000/svg">
<path d="M29.793 0C13.8106 0 0.854004 13.6295 0.854004 30.4419C0.854004 47.2542 13.8106 60.8838 29.793 60.8838C45.7754 60.8838 58.732 47.2542 58.732 30.4419C58.732 13.6295 45.7754 0 29.793 0ZM47.8935 41.4348C40.7898 54.3768 26.928 59.9477 16.9312 53.8762C6.93441 47.8048 4.58954 32.391 11.6925 19.449C18.7962 6.50695 32.658 0.93609 42.6548 7.00755C52.6516 13.079 54.9964 28.4928 47.8935 41.4348Z" fill="black"/>
<path d="M119.565 0.84552H111.526V56.6556V60.0381H119.565H135.642V56.6556H119.565V0.84552Z" fill="black"/>
<path d="M97.5955 49.0815L71.1211 0.84552H67.8527H64.6372V5.94369V60.0381H67.8527V11.8021L94.327 60.0381H97.5955H100.811V54.9399V0.84552H97.5955V49.0815Z" fill="black"/>
<path d="M167.202 0.84552H163.737L152.822 29.5082L141.908 0.84552H133.248L146.209 34.8812V60.0381H154.248V34.8812H154.24L167.202 0.84552Z" fill="black"/>
<path d="M6.25635 70.8525V74.2349V98.7575V102.14V130.045H14.295V102.14H23.9413V98.7575H14.295V74.2349H30.3722V70.8525H14.295H6.25635Z" fill="black"/>
<path d="M45.5396 70.8525H37.501V130.045H45.5396V70.8525Z" fill="black"/>
<path d="M87.9905 119.088L61.517 70.8525H58.2477H55.0322V75.9506V130.045H58.2477V81.809L84.722 130.045H87.9905H91.206V124.947V70.8525H87.9905V119.088Z" fill="black"/>
<path d="M173.364 119.088L146.889 70.8525H143.621H140.405V75.9506V130.045H143.621V81.809L170.095 130.045H173.364H176.579V124.947V70.8525H173.364V119.088Z" fill="black"/>
<path d="M111.991 70.8525L97.9761 130.045H101.29L104.392 116.938H123.016L126.151 130.045H134.44L120.28 70.8525H111.991ZM105.192 113.556L113.655 77.8093L122.206 113.556H105.192Z" fill="black"/>
<path d="M230.079 111.442C222.976 124.384 209.113 129.955 199.116 123.883C189.119 117.812 186.775 102.398 193.878 89.4559C200.981 76.5131 214.843 70.9431 224.84 77.0145C230.883 80.6845 234.124 87.7707 234.178 95.6593H240.558C238.374 81.1233 226.411 70.007 211.978 70.007C195.996 70.007 183.039 83.6365 183.039 100.449C183.039 117.261 195.996 130.891 211.978 130.891C226.78 130.891 238.978 119.198 240.701 104.115H233.05C232.371 106.592 231.386 109.059 230.079 111.442Z" fill="black"/>
<path d="M271.459 74.2349V70.8525H255.382H247.343V74.2349V98.7575V102.14V126.663V130.045H255.382H271.459V126.663H255.382V102.14H265.028V98.7575H255.382V74.2349H271.459Z" fill="black"/>
</svg>
