<svg width="227" height="197" viewBox="0 0 227 197" fill="none" xmlns="http://www.w3.org/2000/svg">
<path d="M39.8945 133.762V124H30.1405" stroke="#010101" stroke-width="1.5" stroke-miterlimit="10"/>
<path d="M11.709 152.205L39.8945 124" stroke="#010101" stroke-width="1.5" stroke-miterlimit="10"/>
<path d="M123.59 133.762V124H113.836" stroke="#010101" stroke-width="1.5" stroke-miterlimit="10"/>
<path d="M95.4043 152.205L123.59 124" stroke="#010101" stroke-width="1.5" stroke-miterlimit="10"/>
<path d="M81.7422 133.762V124H71.9882" stroke="#010101" stroke-width="1.5" stroke-miterlimit="10"/>
<path d="M53.5566 152.205L81.7422 124" stroke="#010101" stroke-width="1.5" stroke-miterlimit="10"/>
<path d="M51.6031 19.5213V0L-2.67029e-05 0V19.5213L51.6031 19.5213Z" fill="#010101"/>
<path d="M51.6046 53.2384V33.7171H0.00143814V53.2384H51.6046Z" fill="#010101"/>
<path d="M51.6031 86.957V67.4357H-2.28882e-05V86.957H51.6031Z" fill="#010101"/>
<path d="M167.391 1.43604H80.231V52.9438H167.391V1.43604Z" stroke="#010101" stroke-width="1.5" stroke-miterlimit="10"/>
<path d="M196.657 37H109.497V88.5078H196.657V37Z" stroke="#010101" stroke-width="1.5" stroke-miterlimit="10"/>
<path d="M225.924 72H138.764V123.508H225.924V72Z" stroke="#010101" stroke-width="1.5" stroke-miterlimit="10"/>
<path d="M135.299 196.523V177.001H83.6957V196.523H135.299Z" fill="#010101"/>
<path d="M51.6035 196.523V177.001H0.000339508V196.523H51.6035Z" fill="#010101"/>
<path d="M225.922 196.521V177H174.319V196.521H225.922Z" fill="#010101"/>
</svg>
