<svg width="171" height="108" viewBox="0 0 171 108" fill="none" xmlns="http://www.w3.org/2000/svg">
<circle cx="159" cy="12" r="12" fill="#010101"/>
<path d="M45.3112 11C33.2885 11 23.542 20.9426 23.542 33.207C23.542 45.4714 33.2885 55.4139 45.3112 55.4139C57.3338 55.4139 67.0804 45.4714 67.0804 33.207C67.0804 20.9426 57.3338 11 45.3112 11ZM58.9272 41.2261C53.5835 50.6672 43.156 54.7311 35.636 50.302C28.1159 45.873 26.352 34.6294 31.6952 25.1878C37.0389 15.7467 47.4663 11.6829 54.9864 16.1119C62.5064 20.541 64.2703 31.7845 58.9272 41.2261Z" fill="black"/>
<path d="M114.995 64.7637V99.9512L95.0797 64.7637H90.2021V107.944H92.6209V72.7563L112.536 107.944H117.414V64.7637H114.995Z" fill="black"/>
<path d="M25.5419 11.6172H22.9363L14.725 32.5263L6.51443 11.6172H0L9.75018 36.4458V54.7974H15.7972V36.4458H15.7917L25.5419 11.6172Z" fill="black"/>
<path d="M80.3598 107.944H86.5948L75.943 64.7637H69.708L59.165 107.944H61.6576L63.9917 98.3825H78.0014L80.3598 107.944ZM64.594 95.9151L70.9597 69.8386L77.3925 95.9151H64.594Z" fill="black"/>
<path d="M133.119 64.7637H122.234V107.944H133.119C140.788 107.944 147.027 101.579 147.027 93.7561V78.9515C147.027 71.1284 140.788 64.7637 133.119 64.7637ZM133.119 105.476H128.281V67.2311H133.119C137.453 67.2311 140.98 72.4886 140.98 78.9515V93.7561C140.98 100.219 137.453 105.476 133.119 105.476Z" fill="black"/>
<path d="M22.716 85.0528C26.0171 83.2257 28.2581 79.659 28.2581 75.5587C28.2581 69.5968 23.5203 64.7637 17.6758 64.7637H4.6748V107.944H17.6758C24.1885 107.944 29.4675 102.559 29.4675 95.9151C29.4675 91.1141 26.7034 86.9817 22.716 85.0528ZM15.8617 67.2311C19.363 67.2311 22.2111 70.9668 22.2111 75.5587C22.2111 80.1506 19.363 83.8863 15.8617 83.8863H10.7218V67.2311H15.8617ZM15.8617 105.476H10.7218V86.3538H15.8617C20.0299 86.3538 23.4205 90.6428 23.4205 95.9151C23.4205 101.187 20.0299 105.476 15.8617 105.476Z" fill="black"/>
<path d="M56.9388 75.5587C56.9388 69.5968 52.2009 64.7637 46.3565 64.7637H33.3555V107.944H39.4025V86.3538H44.7728L50.099 107.944H56.3341L50.7642 85.3637C54.4051 83.6575 56.9388 79.9138 56.9388 75.5587ZM39.4025 83.8863V67.2311H44.5424C48.0436 67.2311 50.8918 70.9668 50.8918 75.5587C50.8918 80.1506 48.0436 83.8863 44.5424 83.8863H39.4025Z" fill="black"/>
<path d="M93.7733 11.6172V42.7686C93.7733 48.3808 90.1106 52.9468 85.6099 52.9468C81.1091 52.9468 77.4464 48.3808 77.4464 42.7686V11.6172H71.3994V42.7686C71.3994 49.7527 76.9493 55.4143 83.7958 55.4143C90.6422 55.4143 96.1921 49.7527 96.1921 42.7686V11.6172H93.7733Z" fill="black"/>
<path d="M106.979 11.6172H100.932V54.7974H106.979V11.6172Z" fill="black"/>
<path d="M105.293 30.7399V33.2073H113.934C119.778 33.2073 124.516 28.3742 124.516 22.4122C124.516 16.4503 119.778 11.6172 113.934 11.6172H103.352V14.0846H112.12C115.621 14.0846 118.469 17.8203 118.469 22.4122C118.469 27.0041 115.621 30.7399 112.12 30.7399H105.293Z" fill="black"/>
<path d="M123.916 54.7971L117.712 29.6465L112.271 32.8671L117.681 54.7971H123.916Z" fill="black"/>
</svg>
