<svg width="334" height="62" viewBox="0 0 334 62" fill="none" xmlns="http://www.w3.org/2000/svg">
<path d="M333.598 0H310.092V61.1155H333.598V0Z" fill="#010101"/>
<path d="M266.961 11.9766H243.547V61.2695H266.961V11.9766Z" fill="#010101"/>
<path d="M300.233 24.3008H276.818V61.2705H300.233V24.3008Z" fill="#010101"/>
<path d="M233.688 37.8555H210.273V61.2696H233.688V37.8555Z" fill="#010101"/>
<g clip-path="url(#clip0_351_562)">
<path d="M151.126 9.85034V6.76953H135.722H128.02V9.85034V32.1862V35.267V60.6837H135.722V35.267H144.964V32.1862H135.722V9.85034H151.126Z" fill="black"/>
<path d="M191.756 6.76953H184.054H176.352H168.65V9.85034H176.352V60.6837H184.054V9.85034H191.756V6.76953Z" fill="black"/>
<path d="M163.573 6.76953H155.871V60.6837H163.573V6.76953Z" fill="black"/>
<path d="M95.0808 6C79.7676 6 67.3535 18.4141 67.3535 33.7273C67.3535 49.0404 79.7676 61.4545 95.0808 61.4545C110.394 61.4545 122.808 49.0404 122.808 33.7273C122.808 18.4141 110.394 6 95.0808 6ZM112.423 43.7399C105.617 55.5278 92.3358 60.6019 82.7576 55.0719C73.1793 49.5418 70.9326 35.5034 77.7382 23.7146C84.5444 11.9267 97.8258 6.85261 107.404 12.3827C116.982 17.9127 119.229 31.9512 112.423 43.7399Z" fill="black"/>
<path d="M64.6238 20.2481C64.6238 12.8041 58.5893 6.76953 51.1453 6.76953H34.5859V60.6837H42.288V33.7266H49.1281L55.9121 60.6837H63.8536L56.7593 32.4904C61.3967 30.36 64.6238 25.6857 64.6238 20.2481ZM42.288 30.6458V9.85034H48.8347C53.2941 9.85034 56.9218 14.5147 56.9218 20.2481C56.9218 25.9814 53.2941 30.6458 48.8347 30.6458H42.288Z" fill="black"/>
<path d="M16.5593 6.76953H0V60.6837H7.70202V33.7266H16.5593C24.0033 33.7266 30.0379 27.6921 30.0379 20.2481C30.0379 12.8041 24.0033 6.76953 16.5593 6.76953ZM14.2487 30.6458H7.70202V9.85034H14.2487C18.7082 9.85034 22.3359 14.5147 22.3359 20.2481C22.3359 25.9814 18.7082 30.6458 14.2487 30.6458Z" fill="black"/>
</g>
<defs>
<clipPath id="clip0_351_562">
<rect width="191.756" height="55.4545" fill="white" transform="translate(0 6)"/>
</clipPath>
</defs>
</svg>
