<svg width="154" height="57" viewBox="0 0 154 57" fill="none" xmlns="http://www.w3.org/2000/svg">
<g clip-path="url(#clip0_16_997)">
<path d="M12.9818 0C5.81432 0 0.00378418 5.81054 0.00378418 12.978C0.00378418 20.1454 5.81432 25.9554 12.9818 25.9554C20.1492 25.9554 25.9597 20.1454 25.9597 12.978C25.9597 5.81054 20.1492 0 12.9818 0ZM21.0991 17.6642C17.9132 23.1816 11.6969 25.557 7.21408 22.9684C2.73072 20.3803 1.67961 13.809 4.86495 8.2917C8.05028 2.77381 14.2666 0.398953 18.7494 2.98757C23.2328 5.57562 24.2845 12.1469 21.0991 17.6642Z" fill="white"/>
<path d="M53.24 0.360596H49.6351V25.5952H60.4503V24.1532H53.2406L53.24 0.360596Z" fill="white"/>
<path d="M43.388 20.9244L31.5154 0.360596H28.6078V25.5952H30.0499V5.03143L41.9225 25.5952H44.8306V0.360596H43.3885L43.388 20.9244Z" fill="white"/>
<path d="M74.6034 0.360596H73.0493L68.1544 12.5795L63.2601 0.360596H59.3763L65.1886 14.8704V25.5952H68.7935V14.8704H68.79L74.6034 0.360596Z" fill="white"/>
<path d="M2.42615 30.2056V55.4402H6.03101V43.5442H10.3572V42.1021H6.03101V31.6476H13.2407V30.2056H2.42615Z" fill="white"/>
<path d="M20.0429 30.2056H16.438V55.4402H20.0429V30.2056Z" fill="white"/>
<path d="M39.0806 50.7694L27.2087 30.2056H24.3005V55.4402H25.7426V34.8764L37.6152 55.4402H40.5227V30.2056H39.0806V50.7694Z" fill="white"/>
<path d="M77.3664 50.7694L65.4938 30.2056H62.5857V55.4402H64.0278V34.8764L75.9003 55.4402H78.8079V30.2056H77.3664V50.7694Z" fill="white"/>
<path d="M49.8432 30.2056L43.5583 55.4402H45.0444L46.4361 49.8526H54.7878L56.1939 55.4402H59.9108L53.5607 30.2056H49.8432ZM46.7945 48.4105L50.5891 33.1714L54.4243 48.4105H46.7945Z" fill="white"/>
<path d="M102.8 47.5091C99.6151 53.0264 93.3988 55.4019 88.9154 52.8133C84.4321 50.2252 83.381 43.6539 86.5657 38.1366C89.7516 32.6187 95.968 30.2444 100.451 32.8325C103.161 34.3968 104.615 37.4181 104.639 40.7812H107.499C106.52 34.5843 101.156 29.8455 94.6825 29.8455C87.5157 29.8455 81.7051 35.656 81.7051 42.8234C81.7051 49.9909 87.5157 55.8008 94.6825 55.8008C101.321 55.8008 106.791 50.8162 107.564 44.3861H104.133C103.829 45.4418 103.387 46.4935 102.8 47.5091Z" fill="white"/>
<path d="M121.358 31.6476V30.2056H110.542V55.4402H121.358V53.9981H114.148V43.5436H118.474V42.1016H114.148V31.6471L121.358 31.6476Z" fill="white"/>
<path d="M153.996 28.6794H143.116V56.9662H153.996V28.6794Z" fill="white"/>
</g>
<defs>
<clipPath id="clip0_16_997">
<rect width="154" height="56.9662" fill="white"/>
</clipPath>
</defs>
</svg>
