<svg width="18" height="16" viewBox="0 0 18 16" fill="none" xmlns="http://www.w3.org/2000/svg">
<path fill-rule="evenodd" clip-rule="evenodd" d="M1.94868 0.968325C1.69144 1.22557 1.69144 1.64265 1.94868 1.89988L3.61395 3.56519C2.14177 4.59301 0.975601 6.0306 0.279938 7.71307C0.198354 7.91038 0.198354 8.13214 0.279938 8.32941C1.69746 11.7577 5.06856 14.1692 9.00159 14.1692C10.5186 14.1692 11.9519 13.8105 13.2218 13.1731L15.1229 15.0741C15.3802 15.3314 15.7973 15.3314 16.0545 15.0741C16.3118 14.8169 16.3118 14.3998 16.0545 14.1426L2.88023 0.968325C2.623 0.711079 2.20592 0.711079 1.94868 0.968325ZM4.56256 4.5138C3.26233 5.3664 2.22033 6.58322 1.58112 8.02124C2.84781 10.871 5.6964 12.8518 9.00159 12.8518C10.1488 12.8518 11.241 12.6131 12.2312 12.1824L11.134 11.0852C10.5295 11.5068 9.79445 11.7539 9.00159 11.7539C6.94006 11.7539 5.26888 10.0828 5.26888 8.02124C5.26888 7.22842 5.51607 6.49329 5.93758 5.88878L4.56256 4.5138ZM6.89237 6.84357C6.69742 7.19197 6.5863 7.59363 6.5863 8.02124C6.5863 9.35518 7.66769 10.4365 9.00159 10.4365C9.42919 10.4365 9.83085 10.3254 10.1793 10.1305L6.89237 6.84357Z" fill="#63696A"/>
<path d="M15.5378 11.5332C15.2926 11.7693 14.9057 11.7517 14.665 11.511C14.392 11.238 14.4154 10.7906 14.6905 10.5198C15.4131 9.80836 16.0038 8.96219 16.4221 8.02125C15.1554 5.1715 12.3068 3.19069 9.00158 3.19069C8.33858 3.19069 7.69393 3.27041 7.07677 3.42085C6.83181 3.48055 6.57069 3.41674 6.39241 3.23842C6.04067 2.88672 6.17044 2.29242 6.65221 2.1687C7.4033 1.97584 8.19049 1.87326 9.00158 1.87326C12.9346 1.87326 16.3057 4.28477 17.7232 7.71308C17.8048 7.9104 17.8048 8.13216 17.7232 8.32943C17.2201 9.54625 16.4709 10.635 15.5378 11.5332Z" fill="#63696A"/>
<path d="M12.7306 8.18888C12.7061 8.74188 12.0511 8.89717 11.6597 8.50571L11.5694 8.4154C11.4659 8.31192 11.4168 8.16761 11.4168 8.02124C11.4168 6.6873 10.3355 5.60596 9.00156 5.60596C8.85519 5.60596 8.71089 5.55694 8.6074 5.45342L8.51709 5.3631C8.12568 4.97169 8.28092 4.31667 8.83397 4.29222C8.8895 4.28978 8.94538 4.28853 9.00156 4.28853C11.0631 4.28853 12.7343 5.95972 12.7343 8.02124C12.7343 8.07742 12.733 8.1333 12.7306 8.18888Z" fill="#63696A"/>
</svg>
