<svg width="18" height="17" viewBox="0 0 18 17" fill="none" xmlns="http://www.w3.org/2000/svg">
<path d="M14.8365 5.75003H11.541L12.1882 3.80603C12.3889 3.19909 12.3852 2.54313 12.1777 1.9385C11.9702 1.33387 11.5703 0.813864 11.0392 0.45803C10.6418 0.196693 10.1584 0.0998943 9.69092 0.18804C9.22346 0.276185 8.8085 0.542388 8.5335 0.93053L5.01375 5.95553C4.87525 5.82359 4.69129 5.75001 4.5 5.75003H1.5C1.30109 5.75003 1.11032 5.82905 0.96967 5.9697C0.829018 6.11035 0.75 6.30112 0.75 6.50003V15.5C0.75 15.6989 0.829018 15.8897 0.96967 16.0304C1.11032 16.171 1.30109 16.25 1.5 16.25H4.5C4.69891 16.25 4.88968 16.171 5.03033 16.0304C5.17098 15.8897 5.25 15.6989 5.25 15.5V15.401L6.33375 16.124C6.45713 16.206 6.60189 16.2498 6.75 16.25H13.5C13.6394 16.2501 13.776 16.2113 13.8946 16.1381C14.0131 16.0648 14.109 15.96 14.1713 15.8353L16.9147 10.3475C17.1345 9.9062 17.2492 9.42004 17.25 8.92703V8.16353C17.2492 7.52367 16.9947 6.91025 16.5422 6.4578C16.0898 6.00536 15.4764 5.75082 14.8365 5.75003ZM3.75 14.75H2.25V7.25003H3.75V14.75ZM15.75 8.92703C15.7495 9.18732 15.6889 9.44398 15.573 9.67703L13.0365 14.75H6.975L5.25 13.5988V8.23628L9.76275 1.79003C9.81101 1.72044 9.8847 1.67262 9.96791 1.65691C10.0511 1.64119 10.1372 1.65883 10.2075 1.70603C10.4655 1.87876 10.6598 2.1313 10.7606 2.42498C10.8614 2.71865 10.8631 3.03727 10.7655 3.33203L9.7905 6.26303C9.75301 6.3756 9.74276 6.49546 9.76059 6.61276C9.77842 6.73006 9.82383 6.84146 9.89308 6.9378C9.96234 7.03414 10.0535 7.11267 10.159 7.16695C10.2645 7.22123 10.3814 7.2497 10.5 7.25003H14.8365C15.0787 7.25023 15.311 7.34654 15.4822 7.51781C15.6535 7.68908 15.7498 7.92132 15.75 8.16353V8.92703Z" fill="#F0F6F7"/>
</svg>
