<svg width="16" height="16" viewBox="0 0 16 16" fill="none" xmlns="http://www.w3.org/2000/svg">
<path d="M14.7465 2C14.3319 2 13.9965 2.33585 13.9965 2.75V3.50262C12.6039 1.64982 10.3953 0.5 7.99647 0.5C4.4699 0.5 1.4618 2.89902 0.6818 6.33372C0.590225 6.73768 0.843649 7.13975 1.24722 7.23132C1.30362 7.24415 1.35927 7.25 1.41417 7.25C1.75625 7.25 2.066 7.01413 2.14512 6.66628C2.76845 3.91895 5.1752 2 7.99647 2C10.1599 2 12.1227 3.17412 13.1822 5H11.7465C11.3319 5 10.9965 5.33585 10.9965 5.75C10.9965 6.16415 11.3319 6.5 11.7465 6.5H14.7465C15.161 6.5 15.4965 6.16415 15.4965 5.75V2.75C15.4965 2.33585 15.161 2 14.7465 2Z" fill="#F0F6F7"/>
<path d="M1.24609 14C1.66062 14 1.99609 13.6641 1.99609 13.25V12.4811C3.39619 14.3637 5.58724 15.5 7.99609 15.5C11.5227 15.5 14.5308 13.101 15.3108 9.66627C15.4023 9.26232 15.1489 8.86025 14.7453 8.76867C14.3374 8.67455 13.9389 8.92977 13.8474 9.33372C13.2241 12.081 10.8174 14 7.99609 14C5.83189 14 3.88759 12.8544 2.81502 11H4.24609C4.66062 11 4.99609 10.6641 4.99609 10.25C4.99609 9.83585 4.66062 9.5 4.24609 9.5H1.24609C0.831569 9.5 0.496094 9.83585 0.496094 10.25V13.25C0.496094 13.6641 0.831569 14 1.24609 14Z" fill="#F0F6F7"/>
</svg>
