<svg width="15" height="18" viewBox="0 0 15 18" fill="none" xmlns="http://www.w3.org/2000/svg">
<path d="M12.4408 1.40891C11.3234 0.469636 9.50569 0 6.98763 0H0V0.801619L2.23085 1.01215C2.24921 2.08367 2.26626 3.1552 2.26626 4.22672V9.86235H0V10.7368H2.26626V12.4858H0V13.3603H2.26626V13.8462C2.26626 14.9001 2.24921 15.9447 2.23085 16.9879L0 17.1984V18H8.2624V17.1984L5.67745 16.9595C5.66564 15.9177 5.65384 14.8758 5.64204 13.8704V13.3603H7.90829V12.4858H5.64204V10.7368H6.70434C8.49846 10.7368 9.93848 10.4939 11.0244 10.0081C12.1261 9.52227 12.9208 8.87449 13.4087 8.06478C13.8966 7.23887 14.1405 6.32389 14.1405 5.31984C14.1405 3.65182 13.5739 2.34818 12.4408 1.40891ZM10.505 7.67611C10.206 8.35628 9.73389 8.89069 9.08864 9.27935C8.45912 9.66802 7.64075 9.86235 6.63352 9.86235H5.64204V4.20243C5.65384 3.08232 5.66695 1.9892 5.67876 0.898785H6.94041C8.29387 0.898785 9.3011 1.27125 9.96209 2.01619C10.6388 2.76113 10.9772 3.85425 10.9772 5.29555C10.9772 6.20243 10.8198 6.99595 10.505 7.67611Z" fill="#010101"/>
</svg>
