<svg width="16" height="18" viewBox="0 0 16 18" fill="none" xmlns="http://www.w3.org/2000/svg">
<path d="M12.4955 11.25C12.0237 11.2511 11.5588 11.3638 11.1388 11.5789C10.7188 11.7939 10.3557 12.1053 10.079 12.4875L6.31777 9.98026C6.5548 9.34826 6.5548 8.65177 6.31777 8.01976L10.079 5.51251C10.5012 6.08486 11.1136 6.48791 11.8063 6.64923C12.499 6.81056 13.2264 6.71959 13.8581 6.39268C14.4897 6.06577 14.984 5.52433 15.2523 4.86565C15.5205 4.20697 15.5451 3.47423 15.3215 2.79906C15.098 2.1239 14.6411 1.55057 14.0328 1.18208C13.4245 0.813595 12.7047 0.674106 12.0028 0.788676C11.3009 0.903245 10.6628 1.26436 10.2033 1.80715C9.74369 2.34994 9.49275 3.03881 9.49552 3.75001C9.50038 3.8593 9.5114 3.96822 9.52852 4.07626L5.48527 6.77176C5.05438 6.38333 4.52012 6.12816 3.94718 6.03716C3.37424 5.94615 2.7872 6.02322 2.25716 6.25902C1.72712 6.49482 1.27682 6.87924 0.960792 7.36573C0.644762 7.85221 0.476562 8.41989 0.476562 9.00001C0.476562 9.58014 0.644762 10.1478 0.960792 10.6343C1.27682 11.1208 1.72712 11.5052 2.25716 11.741C2.7872 11.9768 3.37424 12.0539 3.94718 11.9629C4.52012 11.8719 5.05438 11.6167 5.48527 11.2283L9.52852 13.9238C9.5114 14.0318 9.50038 14.1407 9.49552 14.25C9.49552 14.8434 9.67147 15.4234 10.0011 15.9167C10.3308 16.4101 10.7993 16.7946 11.3475 17.0217C11.8956 17.2487 12.4988 17.3081 13.0808 17.1924C13.6627 17.0766 14.1973 16.7909 14.6168 16.3713C15.0364 15.9518 15.3221 15.4172 15.4379 14.8353C15.5536 14.2533 15.4942 13.6501 15.2672 13.102C15.0401 12.5538 14.6556 12.0852 14.1622 11.7556C13.6689 11.426 13.0889 11.25 12.4955 11.25ZM12.4955 2.25001C12.7922 2.25001 13.0822 2.33799 13.3289 2.50281C13.5755 2.66763 13.7678 2.9019 13.8813 3.17599C13.9949 3.45008 14.0246 3.75168 13.9667 4.04265C13.9088 4.33362 13.766 4.60089 13.5562 4.81067C13.3464 5.02045 13.0791 5.16331 12.7882 5.22119C12.4972 5.27907 12.1956 5.24936 11.9215 5.13583C11.6474 5.0223 11.4131 4.83004 11.2483 4.58337C11.0835 4.33669 10.9955 4.04668 10.9955 3.75001C10.9955 3.35219 11.1536 2.97066 11.4349 2.68935C11.7162 2.40805 12.0977 2.25001 12.4955 2.25001ZM3.49552 10.5C3.19885 10.5 2.90884 10.412 2.66216 10.2472C2.41549 10.0824 2.22323 9.84813 2.1097 9.57404C1.99617 9.29995 1.96646 8.99835 2.02434 8.70738C2.08222 8.41641 2.22508 8.14913 2.43486 7.93935C2.64464 7.72957 2.91191 7.58671 3.20288 7.52883C3.49385 7.47096 3.79546 7.50066 4.06954 7.61419C4.34363 7.72772 4.5779 7.91998 4.74272 8.16666C4.90755 8.41333 4.99552 8.70334 4.99552 9.00001C4.99552 9.39784 4.83748 9.77937 4.55618 10.0607C4.27487 10.342 3.89334 10.5 3.49552 10.5ZM12.4955 15.75C12.1988 15.75 11.9088 15.662 11.6622 15.4972C11.4155 15.3324 11.2232 15.0981 11.1097 14.824C10.9962 14.5499 10.9665 14.2483 11.0243 13.9574C11.0822 13.6664 11.2251 13.3991 11.4349 13.1894C11.6446 12.9796 11.9119 12.8367 12.2029 12.7788C12.4939 12.721 12.7955 12.7507 13.0695 12.8642C13.3436 12.9777 13.5779 13.17 13.7427 13.4167C13.9075 13.6633 13.9955 13.9533 13.9955 14.25C13.9955 14.6478 13.8375 15.0294 13.5562 15.3107C13.2749 15.592 12.8933 15.75 12.4955 15.75Z" fill="#F0F6F7"/>
</svg>
