<svg width="18" height="17" viewBox="0 0 18 17" fill="none" xmlns="http://www.w3.org/2000/svg">
<path d="M16.8371 14.6981L13.7771 11.6426C14.9015 10.1888 15.4295 8.36104 15.2534 6.53157C15.0774 4.7021 14.2106 3.00853 12.8296 1.79577C11.4486 0.583018 9.65726 -0.0577077 7.82038 0.00408796C5.9835 0.0658836 4.23925 0.825553 2.94287 2.12838C1.6465 3.4312 0.895493 5.1792 0.842814 7.01637C0.790135 8.85353 1.43974 10.6417 2.65934 12.0167C3.87893 13.3916 5.57678 14.25 7.4071 14.4169C9.23742 14.5839 11.0626 14.0469 12.5108 12.9152L15.5663 15.9752C15.736 16.1392 15.9634 16.2299 16.1993 16.2278C16.4353 16.2258 16.661 16.1311 16.8279 15.9643C16.9948 15.7974 17.0894 15.5717 17.0915 15.3357C17.0935 15.0997 17.0028 14.8724 16.8389 14.7026L16.8371 14.6981ZM2.70078 7.23444C2.70078 6.16642 3.01749 5.12238 3.61084 4.23436C4.2042 3.34633 5.04757 2.6542 6.03429 2.24549C7.02101 1.83677 8.10677 1.72984 9.15427 1.9382C10.2018 2.14656 11.164 2.66086 11.9192 3.41606C12.6744 4.17126 13.1887 5.13345 13.397 6.18095C13.6054 7.22845 13.4984 8.31421 13.0897 9.30093C12.681 10.2876 11.9889 11.131 11.1009 11.7244C10.2128 12.3177 9.1688 12.6344 8.10078 12.6344C6.66905 12.633 5.29637 12.0636 4.28398 11.0512C3.2716 10.0388 2.70221 8.66617 2.70078 7.23444Z" fill="#F0F6F7"/>
<path d="M10.8008 6.33444H9.00076V4.53444C9.00076 4.29574 8.90594 4.06682 8.73716 3.89804C8.56838 3.72926 8.33946 3.63444 8.10076 3.63444C7.86207 3.63444 7.63315 3.72926 7.46437 3.89804C7.29558 4.06682 7.20076 4.29574 7.20076 4.53444V6.33444H5.40076C5.16207 6.33444 4.93315 6.42926 4.76437 6.59804C4.59558 6.76682 4.50076 6.99574 4.50076 7.23444C4.50076 7.47313 4.59558 7.70205 4.76437 7.87083C4.93315 8.03962 5.16207 8.13444 5.40076 8.13444H7.20076V9.93444C7.20076 10.1731 7.29558 10.402 7.46437 10.5708C7.63315 10.7396 7.86207 10.8344 8.10076 10.8344C8.33946 10.8344 8.56838 10.7396 8.73716 10.5708C8.90594 10.402 9.00076 10.1731 9.00076 9.93444V8.13444H10.8008C11.0395 8.13444 11.2684 8.03962 11.4372 7.87083C11.6059 7.70205 11.7008 7.47313 11.7008 7.23444C11.7008 6.99574 11.6059 6.76682 11.4372 6.59804C11.2684 6.42926 11.0395 6.33444 10.8008 6.33444Z" fill="#F0F6F7"/>
</svg>
