<svg width="51" height="30" viewBox="0 0 51 30" fill="none" xmlns="http://www.w3.org/2000/svg">
<path d="M10.1878 29.0785C10.1667 29.0785 10.1541 26.374 10.1541 23.0708C10.1541 19.0925 10.1667 17.063 10.1963 17.063C10.2216 17.063 10.9931 17.5258 13.59 19.1307L13.6111 23.0071L11.9163 26.0428C10.9804 27.7156 10.2047 29.0785 10.1878 29.0785Z" fill="#3EB82E"/>
<path d="M14.5177 10.342C15.0067 10.0406 15.7065 9.61174 16.0775 9.38672L16.7521 8.97488L19.9772 8.97913C21.7521 8.98337 23.2107 9.00035 23.2234 9.01734C23.236 9.03432 21.0902 10.3717 18.4595 11.9936C15.8288 13.6112 13.6618 14.9402 13.645 14.9402C13.6239 14.9402 13.6155 14.0273 13.6323 10.8855L14.5177 10.342Z" fill="#D40053"/>
<path d="M43.1644 18.4217V11.3737H50.5V18.4217H48.0126V13.4966H45.6517V18.4217H43.1644Z" fill="#190A2D"/>
<path d="M10.1541 12.9659V6.97088C10.1541 3.67193 10.1667 0.971634 10.1878 0.971634C10.2047 0.971634 10.9762 2.33028 11.8995 3.99461C12.8269 5.65895 13.5942 7.02608 13.6069 7.03033C13.6195 7.03882 13.628 8.84751 13.6237 11.0553C13.6153 13.2631 13.6027 15.0675 13.59 15.0675C13.5774 15.0675 12.8017 14.5963 10.1541 12.9659Z" fill="#F4BE1D"/>
<path d="M2.21129 10.134C1.29224 8.47812 0.541814 7.11948 0.541814 7.10674C0.541814 7.09401 0.562894 7.08552 0.583973 7.08552C0.605052 7.08552 2.72563 8.37622 5.29308 9.95565C7.86475 11.5351 10.0401 12.881 10.1329 12.9489C10.2256 13.0126 11.0224 13.5093 11.9035 14.0486C12.7846 14.592 13.5351 15.0463 13.573 15.0633C13.611 15.076 15.7948 16.4177 18.4297 18.0396C21.0688 19.6614 23.2231 21.0158 23.2231 21.0456C23.2231 21.0838 22.5486 21.0965 16.7518 21.1008L15.1919 20.1412C14.3319 19.6147 13.6025 19.1562 13.5688 19.1265C13.5351 19.0968 12.7509 18.6042 11.8276 18.0353C10.9044 17.4664 9.46255 16.5748 8.6236 16.0526C7.78465 15.5303 7.03001 15.076 6.94991 15.0378C6.86981 15.0038 6.17841 14.592 5.41112 14.125C4.64384 13.6537 3.99038 13.2419 3.95244 13.2036C3.9145 13.1654 3.13035 11.7856 2.21129 10.134Z" fill="#4486C6"/>
<path d="M0.537943 22.9222C0.516863 22.9604 0.5 19.6402 0.5 15.0463C0.5 10.2316 0.512648 7.12373 0.537943 7.14921C0.559022 7.17468 1.32631 8.53757 3.91484 13.1782V16.872L2.0513 20.2131C1.22068 21.7019 0.557519 22.8906 0.537943 22.9222Z" fill="#64529D"/>
<path d="M16.7516 21.0965L19.9978 21.088C21.7853 21.0795 23.2524 21.0795 23.2651 21.088C23.2777 21.0923 23.2651 21.1135 23.244 21.1347C23.2229 21.1559 20.2887 22.9646 16.7305 25.1512C13.1723 27.3378 10.2465 29.121 10.2339 29.1125C10.2212 29.104 10.9716 27.7326 13.5981 23.0283L16.7516 21.0965Z" fill="#007F34"/>
<path d="M10.1924 0.984371C10.1714 0.97588 10.1629 0.950405 10.1756 0.929176C10.1924 0.903702 10.2093 0.886719 10.2177 0.886719C10.2304 0.886719 13.1646 2.68267 16.7397 4.87773C20.3189 7.07703 23.2489 8.89421 23.2574 8.92393C23.2658 8.96214 22.5407 8.97913 20.0533 8.98762C17.0558 8.99611 16.8282 8.99186 16.6849 8.92393C16.6005 8.88147 15.9007 8.46114 15.125 7.98562C14.3493 7.5101 13.6874 7.09826 13.6494 7.07278C13.6157 7.04306 12.8316 5.66319 11.9083 4.00735C10.9892 2.3515 10.2177 0.988617 10.1924 0.984371Z" fill="#EB792C"/>
<path d="M3.91484 16.872L5.39874 15.9507C6.21661 15.4454 6.9038 15.0336 6.92909 15.0293C6.95439 15.0293 7.68795 15.4709 8.56906 16.0143C9.44596 16.5578 10.1669 17.0163 10.1711 17.0418C10.1711 17.063 8.01257 18.4132 5.36923 20.0393C2.72589 21.6654 0.558942 22.9774 0.55051 22.9604C0.546294 22.9392 1.30101 21.5593 3.91484 16.872Z" fill="#974390"/>
<path fill-rule="evenodd" clip-rule="evenodd" d="M41.6385 8.83476C41.824 8.83052 41.8999 8.84325 41.8999 8.88147C41.8999 8.90694 41.6554 9.37397 40.8248 10.9024L39.4758 10.9194C38.1562 10.9322 38.1225 10.9322 37.8527 11.0341C37.7009 11.0935 37.4859 11.1996 37.3678 11.2761C37.254 11.3482 37.0516 11.5223 36.921 11.6582C36.7692 11.8153 36.6258 12.0191 36.5331 12.2229C36.4488 12.397 36.3687 12.6177 36.3181 12.881L36.5921 12.6814C36.7397 12.5753 36.9842 12.4267 37.136 12.3545C37.2877 12.2823 37.5618 12.1847 37.7473 12.1337C38.0213 12.0573 38.1984 12.0403 38.6958 12.0403C39.2102 12.0403 39.3704 12.0573 39.7076 12.1465C39.9269 12.2059 40.243 12.3205 40.4032 12.4054C40.5677 12.4904 40.808 12.6432 40.9429 12.7493C41.0736 12.8555 41.2717 13.0635 41.3771 13.2121C41.4867 13.3565 41.6301 13.59 41.6933 13.7301C41.7608 13.8702 41.8535 14.1377 41.9041 14.3245C41.9758 14.592 41.9968 14.7916 41.9968 15.2586C42.0011 15.7044 41.9842 15.9209 41.9252 16.129C41.8872 16.2818 41.7776 16.5578 41.6891 16.7446C41.6005 16.9314 41.4193 17.2116 41.2928 17.373C41.1621 17.5301 40.9302 17.7551 40.7742 17.874C40.614 17.9929 40.3358 18.1627 40.1503 18.2518C39.9648 18.3453 39.6528 18.4641 39.4547 18.5236C39.2565 18.5788 38.9488 18.6467 38.7717 18.6722C38.5904 18.6976 38.2489 18.7189 38.0129 18.7189C37.7726 18.7189 37.41 18.6892 37.1992 18.6552C36.9884 18.617 36.6975 18.549 36.5457 18.4981C36.394 18.4514 36.1579 18.3537 36.0188 18.2858C35.8796 18.2136 35.6351 18.0565 35.4707 17.9334C35.3105 17.8103 35.0997 17.615 35.0027 17.5003C34.9058 17.39 34.7498 17.1734 34.6528 17.0206C34.5559 16.8677 34.4167 16.6002 34.3451 16.4262C34.2734 16.2521 34.1722 15.9337 34.1216 15.7256C34.0668 15.5176 33.9994 15.1227 33.9741 14.8552C33.9403 14.5538 33.9277 14.142 33.9446 13.7726C33.9614 13.4287 34.0078 12.9998 34.0584 12.7536C34.109 12.5201 34.2228 12.1295 34.3156 11.8832C34.4083 11.637 34.5601 11.3058 34.657 11.1402C34.754 10.9789 34.9184 10.7284 35.0238 10.5883C35.1292 10.4481 35.34 10.2104 35.4918 10.066C35.6436 9.91743 35.8881 9.71363 36.0398 9.61174C36.1916 9.51408 36.4108 9.38246 36.5247 9.32302C36.6427 9.26358 36.8535 9.17867 37.0011 9.12772C37.1444 9.07677 37.4016 9.00884 37.5702 8.97063C37.8105 8.91119 38.2279 8.8942 39.6233 8.86873C40.5845 8.85599 41.4909 8.83901 41.6385 8.83476ZM37.2835 14.0401C37.1908 14.0868 37.0432 14.2014 36.9589 14.2906C36.8746 14.3797 36.7608 14.5495 36.7102 14.6642C36.6554 14.7916 36.609 15.0038 36.5963 15.1949C36.5837 15.4242 36.5963 15.5813 36.6511 15.7681C36.6933 15.9082 36.765 16.0908 36.8198 16.1714C36.8704 16.2521 36.9842 16.3837 37.0769 16.4644C37.1655 16.5451 37.3257 16.6512 37.4311 16.6979C37.5828 16.7701 37.7051 16.7871 38.0424 16.7871C38.4429 16.7871 38.4766 16.7786 38.7338 16.6385C38.8813 16.5578 39.0542 16.4219 39.1216 16.3413C39.1849 16.2606 39.2818 16.0992 39.3366 15.9804C39.421 15.7978 39.4336 15.7001 39.4336 15.301C39.4336 14.8807 39.421 14.8085 39.3198 14.6005C39.2608 14.4731 39.1427 14.3033 39.0584 14.2311C38.9741 14.1547 38.8265 14.0485 38.7296 13.9976C38.582 13.9212 38.464 13.8999 38.1056 13.8915C37.8611 13.8872 37.6166 13.8957 37.5575 13.9169C37.4985 13.9339 37.3763 13.9891 37.2835 14.0401ZM30.7279 11.2209C31.3181 11.2336 31.5331 11.2548 31.8029 11.327C31.9884 11.378 32.313 11.5053 32.5196 11.6072C32.7304 11.7134 32.9328 11.8195 32.9707 11.8492C33.0382 11.9002 33.0044 11.9766 32.5702 12.7536C32.3088 13.2206 32.0812 13.6282 32.0643 13.6579C32.0432 13.6962 31.9547 13.6707 31.7102 13.5603C31.5289 13.4796 31.2296 13.3735 31.0441 13.3268C30.8586 13.2801 30.5845 13.2419 30.4328 13.2419C30.281 13.2419 30.0407 13.2716 29.8973 13.3055C29.7498 13.3395 29.539 13.4159 29.421 13.4754C29.3071 13.5348 29.1301 13.6622 29.0289 13.7641C28.9277 13.8617 28.7928 14.057 28.7253 14.1972C28.6073 14.4349 28.5989 14.4816 28.5989 14.9614C28.5989 15.4496 28.6031 15.4836 28.7296 15.7256C28.8054 15.8657 28.9361 16.0568 29.0289 16.1502C29.1216 16.2436 29.3071 16.3795 29.4463 16.4516C29.5812 16.5238 29.8004 16.6087 29.9269 16.6385C30.0744 16.6724 30.3021 16.6852 30.5592 16.6682C30.7785 16.6554 31.082 16.613 31.2338 16.5705C31.3855 16.5323 31.6132 16.4516 31.7397 16.3965C31.8661 16.3413 31.9758 16.2988 31.9842 16.2988C31.9884 16.2988 32.2034 16.6809 32.4564 17.1479C32.7135 17.615 32.9159 18.0056 32.9117 18.0141C32.9033 18.0226 32.7852 18.0863 32.6461 18.1584C32.507 18.2264 32.2414 18.3325 32.0559 18.392C31.8704 18.4514 31.5753 18.5278 31.4024 18.5618C31.2296 18.6 30.9344 18.6425 30.7489 18.6552C30.555 18.6722 30.2135 18.6637 29.9479 18.634C29.695 18.6085 29.3535 18.549 29.1891 18.5066C29.0289 18.4641 28.7633 18.3792 28.5989 18.3155C28.4387 18.2518 28.1731 18.1202 28.0086 18.0226C27.8484 17.9292 27.5533 17.6957 27.3636 17.5088C27.1697 17.322 26.9252 17.0376 26.8282 16.872C26.727 16.7064 26.5963 16.4516 26.5373 16.2988C26.4825 16.146 26.4066 15.8742 26.3687 15.6959C26.3307 15.5133 26.3012 15.1822 26.3012 14.9614C26.3012 14.7406 26.3307 14.4094 26.3687 14.2311C26.4066 14.0485 26.4909 13.7683 26.5584 13.6027C26.6216 13.4372 26.7523 13.1909 26.8409 13.0508C26.9294 12.9107 27.098 12.6942 27.2118 12.5668C27.3257 12.4394 27.5702 12.2229 27.7557 12.0828C27.9412 11.9469 28.2447 11.7601 28.4302 11.6709C28.6157 11.5818 28.9024 11.4671 29.0626 11.4204C29.227 11.3695 29.5011 11.3015 29.6739 11.2676C29.8973 11.2251 30.2051 11.2124 30.7279 11.2209Z" fill="#190A2D"/>
</svg>
