<svg style="display: none;" aria-hidden="true" xmlns="http://www.w3.org/2000/svg" xmlns:xlink="http://www.w3.org/1999/xlink"><symbol viewBox="0 0 12 10" id="svg-accept"><path d="M11.713.954a.952.952 0 0 0-1.346 0L4.31 7.012 1.617 4.319A.952.952 0 1 0 .271 5.665l3.365 3.366a.949.949 0 0 0 1.347 0l6.73-6.731a.952.952 0 0 0 0-1.346Z"/></symbol><symbol viewBox="0 0 24 24" id="svg-aichat"><path fill-rule="evenodd" clip-rule="evenodd" d="M5.772 8.348a.518.518 0 0 0-.518.519v9.229c0 .286.232.518.518.518h3.674c.207 0 .403.091.537.25l2.018 2.387 2.017-2.388a.703.703 0 0 1 .537-.249h3.674a.518.518 0 0 0 .518-.518v-9.23a.518.518 0 0 0-.518-.518H5.772Zm-1.924.519c0-1.063.861-1.925 1.924-1.925H18.23c1.063 0 1.925.862 1.925 1.925v9.229a1.925 1.925 0 0 1-1.925 1.924h-3.347l-2.344 2.774a.703.703 0 0 1-1.074 0L9.12 20.02H5.772a1.925 1.925 0 0 1-1.924-1.924v-9.23Z"/><path fill-rule="evenodd" clip-rule="evenodd" d="M18.746 10.315c0-.388.315-.703.703-.703h2.813c.96 0 1.737.778 1.737 1.738v3.624c0 .96-.778 1.738-1.737 1.738h-2.813a.703.703 0 0 1-.703-.703v-5.694Zm1.406.703v4.288h2.11a.331.331 0 0 0 .331-.332V11.35a.331.331 0 0 0-.331-.332h-2.11ZM0 11.35c0-.96.778-1.738 1.738-1.738H4.55c.388 0 .703.315.703.703v5.694a.703.703 0 0 1-.703.703H1.738c-.96 0-1.738-.778-1.738-1.738V11.35Zm1.738-.332a.331.331 0 0 0-.332.332v3.624c0 .183.149.332.332.332h2.109v-4.288h-2.11Z"/><path fill-rule="evenodd" clip-rule="evenodd" d="M10.394 2.362a7.952 7.952 0 0 0-7.953 7.953.704.704 0 0 1-1.406 0A9.359 9.359 0 0 1 10.394.956h3.213a9.359 9.359 0 0 1 9.36 9.359.703.703 0 0 1-1.407 0 7.952 7.952 0 0 0-7.953-7.953h-3.213Z"/><path d="M9.836 11.635a.703.703 0 1 1-1.406 0 .703.703 0 0 1 1.406 0ZM15.273 11.635a.703.703 0 1 1-1.406 0 .703.703 0 0 1 1.406 0Z"/><path fill-rule="evenodd" clip-rule="evenodd" d="M8.435 14.205a.703.703 0 0 1 .992-.06c.84.745 1.725 1.083 2.572 1.083.848 0 1.733-.338 2.572-1.082a.703.703 0 1 1 .933 1.052c-1.054.934-2.26 1.436-3.505 1.436-1.244 0-2.45-.502-3.505-1.436a.703.703 0 0 1-.06-.993Z"/></symbol><symbol viewBox="0 0 15 38" id="svg-arrow-down"><path fill-rule="evenodd" clip-rule="evenodd" d="m14.23 30.88-6.88 6.88-6.88-6.88 1.06-1.061 5.82 5.82 5.82-5.82 1.06 1.06Z"/><path fill-rule="evenodd" clip-rule="evenodd" d="M6.6 36.7V0h1.5v36.7H6.6Z"/></symbol><symbol viewBox="0 0 38 15" id="svg-arrow-left"><path fill-rule="evenodd" clip-rule="evenodd" d="M7.204.796.5 7.5l6.704 6.705.707-.707-5.997-5.998 5.997-5.995-.707-.708Z"/><path fill-rule="evenodd" clip-rule="evenodd" d="M1.207 8h36.7V7h-36.7v1Z"/></symbol><symbol viewBox="0 0 38 15" id="svg-arrow-right"><path fill-rule="evenodd" clip-rule="evenodd" d="m30.88.47 6.88 6.88-6.88 6.88-1.061-1.06 5.07-5.07H0V6.6h34.889l-5.07-5.07 1.06-1.06Z"/></symbol><symbol viewBox="0 0 21 20" id="svg-attach"><path fill-rule="evenodd" clip-rule="evenodd" d="M19.153 8.253 9.96 17.445a5.5 5.5 0 1 1-7.778-7.778l.707.707a4.5 4.5 0 0 0 6.364 6.364l9.193-9.192.707.707Z"/><path fill-rule="evenodd" clip-rule="evenodd" d="M3.596 11.081 12.79 1.89a4.5 4.5 0 0 1 6.364 6.364l-.707-.707a3.5 3.5 0 0 0-4.95-4.95l-9.192 9.192-.708-.707Z"/><path fill-rule="evenodd" clip-rule="evenodd" d="M4.304 11.788a2.5 2.5 0 1 0 3.535 3.536l.707.707a3.5 3.5 0 0 1-4.95-4.95l.708.707Z"/><path fill-rule="evenodd" clip-rule="evenodd" d="M12.435.828 2.89 10.374l-.707-.707L11.728.121l.707.707Zm5.657 5.657-9.546 9.546-.707-.707 9.546-9.546.707.707Z"/></symbol><symbol viewBox="0 0 15 9" id="svg-chevron-down"><path d="M1.994.948 7.5 6.454 13.006.948a.875.875 0 0 1 1.238 1.237L8.119 8.31a.875.875 0 0 1-1.238 0L.756 2.185A.875.875 0 0 1 1.994.948Z"/></symbol><symbol viewBox="0 0 8 14" id="svg-chevron-left"><path d="M7.681 12.507 2.175 7.001 7.68 1.495A.875.875 0 0 0 6.444.257L.319 6.382a.875.875 0 0 0 0 1.238l6.125 6.125a.875.875 0 0 0 1.237-1.238Z"/></symbol><symbol viewBox="0 0 8 14" id="svg-chevron-right"><path d="m.319 12.507 5.506-5.506L.32 1.495A.875.875 0 0 1 1.556.257l6.125 6.125a.875.875 0 0 1 0 1.238l-6.125 6.125A.875.875 0 0 1 .32 12.507Z"/></symbol><symbol viewBox="0 0 18 18" id="svg-close"><path fill-rule="evenodd" clip-rule="evenodd" d="M.793.793a1 1 0 0 1 1.414 0L9 7.586 15.793.793a1 1 0 1 1 1.414 1.414L10.414 9l6.793 6.793a1 1 0 0 1-1.414 1.414L9 10.414l-6.793 6.793a1 1 0 0 1-1.414-1.414L7.586 9 .793 2.207a1 1 0 0 1 0-1.414Z"/></symbol><symbol viewBox="0 0 20 20" id="svg-close2"><path fill-rule="evenodd" clip-rule="evenodd" d="M18.76.38 20 1.62l-18 18-1.24-1.24 18-18Z"/><path fill-rule="evenodd" clip-rule="evenodd" d="M.758 1.62 1.999.38l18 18-1.241 1.24-18-18Z"/></symbol><symbol viewBox="0 0 20 20" id="svg-copy"><path d="M15.895.561A1.916 1.916 0 0 0 14.54 0H9.582a1.917 1.917 0 0 0-1.916 1.917v11.5a1.917 1.917 0 0 0 1.916 1.916h7.667a1.917 1.917 0 0 0 1.917-1.916v-8.79c0-.508-.202-.996-.562-1.355l-2.71-2.71Zm1.834 4.23h-1.437a1.917 1.917 0 0 1-1.917-1.916V1.437h.165c.127 0 .249.051.339.14l2.71 2.711a.476.476 0 0 1 .14.34v.164ZM0 17.25V5.75a1.917 1.917 0 0 1 1.917-1.917H5.75v9.584a3.838 3.838 0 0 0 3.833 3.833H11.5a1.917 1.917 0 0 1-1.917 1.917H1.917A1.917 1.917 0 0 1 0 17.25Z"/></symbol><symbol viewBox="0 0 18 18" id="svg-copy2"><path d="M2.147 17.997h7.977a2.15 2.15 0 0 0 2.147-2.147V5.42a2.15 2.15 0 0 0-2.147-2.148H2.147A2.15 2.15 0 0 0 0 5.42v10.43a2.15 2.15 0 0 0 2.147 2.147ZM1.637 5.42a.511.511 0 0 1 .51-.512h7.977a.511.511 0 0 1 .51.512v10.43a.511.511 0 0 1-.51.511H2.147a.512.512 0 0 1-.51-.51V5.42Z"/><path d="M15.847 0H7.879a2.15 2.15 0 0 0-1.98 1.317.818.818 0 0 0 1.506.638.515.515 0 0 1 .474-.319h7.968a.516.516 0 0 1 .515.516v10.422a.516.516 0 0 1-.515.515h-1.939a.818.818 0 0 0 0 1.636h1.939a2.154 2.154 0 0 0 2.151-2.151V2.152A2.154 2.154 0 0 0 15.847 0Z"/></symbol><symbol viewBox="0 0 18 17" id="svg-dislike"><path d="M3.163 10.656H6.46L5.812 12.6a2.925 2.925 0 0 0 1.149 3.348 1.835 1.835 0 0 0 2.505-.472l3.52-5.025a.745.745 0 0 0 .514.205h3a.75.75 0 0 0 .75-.75v-9a.75.75 0 0 0-.75-.75h-3a.75.75 0 0 0-.75.75v.1L11.666.281a.755.755 0 0 0-.416-.126H4.5a.75.75 0 0 0-.671.415L1.085 6.059c-.22.441-.334.927-.335 1.42v.764a2.417 2.417 0 0 0 2.413 2.413Zm11.087-9h1.5v7.5h-1.5v-7.5Zm-12 5.823c0-.26.061-.517.177-.75l2.536-5.073h6.062l1.725 1.152V8.17l-4.513 6.446a.323.323 0 0 1-.444.084 1.42 1.42 0 0 1-.559-1.626l.976-2.93a.75.75 0 0 0-.71-.988H3.163a.914.914 0 0 1-.913-.913v-.764Z"/></symbol><symbol viewBox="0 0 20 16" id="svg-email"><path d="M11.63 10.516a3.06 3.06 0 0 1-1.637.48c-.56 0-1.118-.153-1.603-.464L.307 5.09a.198.198 0 0 0-.31.166V15c0 .55.448 1 1 1h18c.552 0 1-.45 1-1V5.256a.199.199 0 0 0-.31-.166l-8.056 5.426Z"/><path d="M9.481 8.858a.993.993 0 0 0 1.051-.015l9.379-6.316a.195.195 0 0 0 .087-.165V.999c0-.55-.45-1-1-1H.996c-.551 0-1 .45-1 1v1.363c0 .067.032.13.087.165L9.48 8.858Z"/></symbol><symbol viewBox="0 0 20 15" id="svg-eye"><path d="M19.85 6.817C19.12 5.217 16.25 0 10 0S.88 5.218.15 6.817a1.64 1.64 0 0 0 0 1.367C.88 9.783 3.75 15 10 15s9.12-5.217 9.85-6.818a1.639 1.639 0 0 0 0-1.365ZM10 13.334c-5.256 0-7.708-4.471-8.333-5.824C2.292 6.14 4.744 1.667 10 1.667c5.243 0 7.697 4.452 8.333 5.833-.636 1.38-3.09 5.833-8.333 5.833Z"/><path d="M10 3.334a4.167 4.167 0 1 0 0 8.333 4.167 4.167 0 0 0 0-8.333ZM10 10a2.5 2.5 0 1 1 0-5 2.5 2.5 0 0 1 0 5Z"/></symbol><symbol viewBox="0 0 18 16" id="svg-eye-line"><path fill-rule="evenodd" clip-rule="evenodd" d="M1.949.968a.659.659 0 0 0 0 .932l1.665 1.665A9.488 9.488 0 0 0 .28 7.713a.807.807 0 0 0 0 .616c1.417 3.429 4.789 5.84 8.722 5.84a9.38 9.38 0 0 0 4.22-.996l1.9 1.901a.659.659 0 1 0 .933-.931L2.88.968a.659.659 0 0 0-.931 0Zm2.614 3.546A8.167 8.167 0 0 0 1.58 8.02a8.12 8.12 0 0 0 10.65 4.161l-1.097-1.097A3.733 3.733 0 0 1 5.938 5.89L4.563 4.514Zm2.33 2.33a2.415 2.415 0 0 0 3.287 3.287L6.891 6.843Z"/><path d="M15.538 11.533a.622.622 0 0 1-.873-.022c-.273-.273-.25-.72.026-.991a8.16 8.16 0 0 0 1.731-2.499 8.12 8.12 0 0 0-9.345-4.6.723.723 0 0 1-.685-.183c-.351-.351-.222-.946.26-1.07a9.435 9.435 0 0 1 2.35-.295c3.933 0 7.304 2.412 8.721 5.84a.807.807 0 0 1 0 .616 9.475 9.475 0 0 1-2.185 3.204Z"/><path d="M12.73 8.189c-.024.553-.679.708-1.07.317l-.09-.09a.553.553 0 0 1-.153-.395 2.415 2.415 0 0 0-2.415-2.415.553.553 0 0 1-.395-.153l-.09-.09c-.391-.391-.236-1.046.317-1.07a3.733 3.733 0 0 1 3.897 3.897Z"/></symbol><symbol viewBox="0 0 24 24" id="svg-icon-img"><path d="M18.378.001H5.628A5.63 5.63 0 0 0 .004 5.626v12.749a5.63 5.63 0 0 0 5.624 5.624h12.75a5.631 5.631 0 0 0 5.625-5.624V5.625A5.631 5.631 0 0 0 18.378.002Zm3.75 18.373a3.754 3.754 0 0 1-3.75 3.75H5.628a3.754 3.754 0 0 1-3.75-3.75V5.627a3.754 3.754 0 0 1 3.75-3.75h12.75a3.754 3.754 0 0 1 3.75 3.75v12.748Z"/><path d="M20.072 13.122a.938.938 0 0 0-1.322.09l-1.587 1.817c-.557.606-1.08.647-1.744.137 0 0-4.36-4.129-4.38-4.146a3.273 3.273 0 0 0-4.23.134c-.02.018-2.754 2.922-2.754 2.922a.938.938 0 0 0 1.366 1.285l2.667-2.836a1.402 1.402 0 0 1 1.758-.057s4.358 4.127 4.38 4.144c.649.514 1.397.778 2.09.778.556-.018 1.432-.221 2.239-1.104l.013-.016 1.594-1.825c.34-.39.3-.983-.09-1.323ZM15.238 10.875a2.816 2.816 0 0 0 2.813-2.812 2.816 2.816 0 0 0-2.813-2.812 2.815 2.815 0 0 0-2.812 2.812 2.815 2.815 0 0 0 2.812 2.812Zm0-3.75a.939.939 0 1 1-.937.937c0-.516.42-.937.937-.937Z"/></symbol><symbol viewBox="0 0 24 24" id="svg-icon-text"><path d="M16 7H8a1 1 0 0 0-1 1v2a1 1 0 1 0 2 0V9h2v6h-1a1 1 0 0 0 0 2h4a1 1 0 1 0 0-2h-1V9h2v1a1 1 0 0 0 2 0V8a1 1 0 0 0-1-1Z"/><path d="M24 4V2a2.002 2.002 0 0 0-2-2h-2a2.002 2.002 0 0 0-2 2H6a2.002 2.002 0 0 0-2-2H2a2.002 2.002 0 0 0-2 2v2a2.002 2.002 0 0 0 2 2v12a2.002 2.002 0 0 0-2 2v2a2.002 2.002 0 0 0 2 2h2a2.002 2.002 0 0 0 2-2h12a2.002 2.002 0 0 0 2 2h2a2.002 2.002 0 0 0 2-2v-2a2.002 2.002 0 0 0-2-2V6a2.002 2.002 0 0 0 2-2Zm-4-2h2l.002 2H20V2ZM2 2h2v1.004L4.003 4H2V2Zm0 20v-2h2v1.004l.002.996H2Zm20.002 0H20v-2h2l.002 2ZM20 18a2.002 2.002 0 0 0-2 2H6a2.002 2.002 0 0 0-2-2V6a2.002 2.002 0 0 0 2-2h12a2.002 2.002 0 0 0 2 2v12Z"/></symbol><symbol viewBox="0 0 18 17" id="svg-like"><path d="M14.836 5.75h-3.295l.647-1.944A2.925 2.925 0 0 0 11.04.458a1.835 1.835 0 0 0-2.505.473l-3.52 5.025A.745.745 0 0 0 4.5 5.75h-3a.75.75 0 0 0-.75.75v9a.75.75 0 0 0 .75.75h3a.75.75 0 0 0 .75-.75v-.099l1.084.723a.754.754 0 0 0 .416.126h6.75a.75.75 0 0 0 .671-.415l2.744-5.488c.22-.44.334-.927.335-1.42v-.763a2.416 2.416 0 0 0-2.414-2.414Zm-11.086 9h-1.5v-7.5h1.5v7.5Zm12-5.823c0 .26-.061.517-.177.75l-2.537 5.073H6.976L5.25 13.599V8.236L9.763 1.79a.322.322 0 0 1 .444-.084 1.42 1.42 0 0 1 .558 1.626L9.79 6.263a.75.75 0 0 0 .71.987h4.336a.914.914 0 0 1 .914.914v.763Z"/></symbol><symbol viewBox="0 0 20 22" id="svg-person"><path d="M9.838 10.598c1.456 0 2.716-.523 3.747-1.553 1.03-1.03 1.552-2.29 1.552-3.746s-.522-2.717-1.553-3.747C12.555.522 11.294 0 9.838 0S7.122.522 6.091 1.552C5.061 2.582 4.54 3.842 4.54 5.3c0 1.456.522 2.716 1.552 3.746 1.03 1.03 2.291 1.553 3.747 1.553ZM7.003 2.463c.79-.79 1.718-1.175 2.835-1.175s2.044.384 2.835 1.175c.79.79 1.175 1.718 1.175 2.835s-.385 2.044-1.175 2.834c-.79.791-1.718 1.175-2.835 1.175s-2.044-.384-2.835-1.175c-.79-.79-1.175-1.717-1.175-2.834s.385-2.045 1.175-2.835ZM19.11 16.917c-.029-.429-.089-.896-.177-1.39-.09-.498-.205-.968-.342-1.398a6.902 6.902 0 0 0-.575-1.303 4.913 4.913 0 0 0-.866-1.13 3.821 3.821 0 0 0-1.245-.781 4.301 4.301 0 0 0-1.589-.288c-.224 0-.441.092-.86.365-.259.169-.56.363-.898.579-.288.183-.678.355-1.16.511a4.61 4.61 0 0 1-1.42.23c-.472 0-.95-.078-1.42-.23-.482-.155-.873-.328-1.16-.511-.334-.213-.636-.408-.898-.579-.42-.273-.637-.365-.861-.365-.572 0-1.107.097-1.589.288a3.816 3.816 0 0 0-1.245.782 4.916 4.916 0 0 0-.866 1.129 6.92 6.92 0 0 0-.574 1.303c-.138.43-.253.9-.342 1.398-.089.493-.149.96-.178 1.39-.03.42-.044.858-.044 1.3 0 1.148.365 2.078 1.085 2.763.71.677 1.651 1.02 2.796 1.02h10.593c1.144 0 2.084-.343 2.795-1.02.72-.685 1.085-1.615 1.085-2.764 0-.443-.015-.88-.044-1.3Zm-1.929 3.13c-.47.446-1.093.664-1.907.664H4.682c-.814 0-1.438-.218-1.907-.665-.461-.438-.685-1.037-.685-1.83 0-.412.014-.819.04-1.21.027-.383.082-.804.162-1.251.08-.442.18-.857.3-1.233.116-.36.273-.716.468-1.06.186-.327.4-.608.637-.834.22-.212.5-.385.828-.515.303-.12.645-.186 1.015-.196.045.024.126.07.256.155.265.173.57.37.908.586.38.242.871.462 1.457.65a5.9 5.9 0 0 0 1.817.293c.606 0 1.217-.099 1.816-.292.586-.19 1.077-.409 1.458-.652.345-.22.642-.412.907-.585.13-.085.211-.13.256-.155.37.01.712.076 1.016.196.328.13.607.304.828.515.236.226.45.507.636.835.195.343.353.7.468 1.06.12.375.221.79.3 1.231.081.449.135.87.162 1.253.027.389.041.796.041 1.21 0 .792-.224 1.39-.685 1.83Z"/></symbol><symbol viewBox="0 0 16 16" id="svg-plus"><path d="M8.001 16c-.6 0-1.087-.487-1.087-1.087V1.087a1.087 1.087 0 1 1 2.174 0v13.826c0 .6-.486 1.087-1.087 1.087Z"/><path d="M14.913 9.087H1.087a1.087 1.087 0 1 1 0-2.174h13.826a1.087 1.087 0 1 1 0 2.174Z"/></symbol><symbol viewBox="0 0 16 16" id="svg-reload"><path d="M14.746 2a.75.75 0 0 0-.75.75v.753a7.516 7.516 0 0 0-6-3.003A7.46 7.46 0 0 0 .682 6.334a.75.75 0 0 0 1.463.332A5.966 5.966 0 0 1 7.996 2a6.008 6.008 0 0 1 5.186 3h-1.436a.75.75 0 1 0 0 1.5h3a.75.75 0 0 0 .75-.75v-3a.75.75 0 0 0-.75-.75ZM1.246 14a.75.75 0 0 0 .75-.75v-.769a7.443 7.443 0 0 0 6 3.019 7.46 7.46 0 0 0 7.315-5.834.75.75 0 0 0-1.464-.332A5.966 5.966 0 0 1 7.997 14a5.956 5.956 0 0 1-5.182-3h1.431a.75.75 0 1 0 0-1.5h-3a.75.75 0 0 0-.75.75v3c0 .414.336.75.75.75Z"/></symbol><symbol viewBox="0 0 15 18" id="svg-ruble"><path d="M12.44 1.409C11.324.469 9.507 0 6.989 0H0v.802l2.23.21c.02 1.072.036 2.143.036 3.215v5.635H0v.875h2.266v1.749H0v.874h2.266v.486c0 1.054-.017 2.099-.035 3.142L0 17.198V18h8.262v-.802l-2.585-.239-.035-3.089v-.51h2.266v-.874H5.642v-1.75h1.062c1.794 0 3.234-.242 4.32-.728 1.102-.486 1.897-1.134 2.385-1.943.488-.826.731-1.741.731-2.745 0-1.668-.566-2.972-1.7-3.911Zm-1.935 6.267A3.456 3.456 0 0 1 9.089 9.28c-.63.389-1.448.583-2.455.583h-.992v-5.66L5.679.9H6.94c1.354 0 2.361.372 3.022 1.117.677.745 1.015 1.838 1.015 3.28 0 .906-.157 1.7-.472 2.38Z"/></symbol><symbol viewBox="0 0 16 18" id="svg-share"><path d="M12.495 11.25a2.992 2.992 0 0 0-2.416 1.238L6.318 9.98a2.791 2.791 0 0 0 0-1.96l3.761-2.507a2.989 2.989 0 1 0-.583-1.763c.004.11.015.218.033.326L5.485 6.772a3 3 0 1 0 0 4.456l4.044 2.696a2.909 2.909 0 0 0-.033.326 3 3 0 1 0 3-3Zm0-9a1.5 1.5 0 1 1 0 3 1.5 1.5 0 0 1 0-3Zm-9 8.25a1.5 1.5 0 1 1 0-3 1.5 1.5 0 0 1 0 3Zm9 5.25a1.5 1.5 0 1 1 0-3 1.5 1.5 0 0 1 0 3Z"/></symbol><symbol viewBox="0 0 40 40" id="svg-social-tg-white"><g clip-path="url(#aza)"><path d="M20 40c11.046 0 20-8.954 20-20S31.046 0 20 0 0 8.954 0 20s8.954 20 20 20Z"/><path fill-rule="evenodd" clip-rule="evenodd" d="M9.053 19.789c5.83-2.54 9.718-4.215 11.664-5.024 5.554-2.31 6.708-2.712 7.46-2.725.166-.003.536.038.775.233.203.164.258.386.285.541.027.156.06.51.033.788-.3 3.162-1.603 10.837-2.265 14.379-.28 1.498-.833 2-1.367 2.05-1.162.107-2.044-.767-3.169-1.505-1.76-1.154-2.754-1.872-4.463-2.998-1.975-1.301-.695-2.016.43-3.185.295-.306 5.413-4.96 5.512-5.383.012-.053.024-.25-.093-.354-.117-.104-.29-.068-.415-.04-.176.04-2.988 1.899-8.436 5.576-.798.548-1.52.815-2.168.801-.715-.015-2.088-.403-3.11-.735-1.252-.407-2.247-.623-2.16-1.314.044-.36.54-.729 1.487-1.105Z"/></g><defs><linearGradient id="azb" x1="20" y1="0" x2="20" y2="39.703" gradientUnits="userSpaceOnUse"><stop stop-color="#fff"/><stop offset="1" stop-color="#fff"/></linearGradient><clipPath id="aza"><rect width="40" height="40"/></clipPath></defs></symbol><symbol viewBox="0 0 40 40" id="svg-social-vk-white"><path d="M0 19.2C0 10.149 0 5.624 2.812 2.812 5.624 0 10.149 0 19.2 0h1.6c9.051 0 13.576 0 16.388 2.812C40 5.624 40 10.149 40 19.2v1.6c0 9.051 0 13.576-2.812 16.388C34.376 40 29.851 40 20.8 40h-1.6c-9.051 0-13.576 0-16.388-2.812C0 34.376 0 29.851 0 20.8v-1.6Z"/><path d="M21.215 28.8C11.922 28.8 6.62 22.494 6.4 12h4.655c.153 7.702 3.585 10.965 6.303 11.637V12h4.383v6.643c2.685-.286 5.505-3.313 6.456-6.643h4.384c-.731 4.103-3.79 7.13-5.964 8.375 2.175 1.009 5.658 3.649 6.983 8.425h-4.825c-1.037-3.195-3.619-5.667-7.034-6.004V28.8h-.526Z"/></symbol><symbol viewBox="0 0 22 24" id="svg-sparkle"><path d="M5.656 20.614c-1.176.417-1.808 1.206-2.169 2.619-.057.223-.381.223-.438 0-.36-1.413-.993-2.202-2.17-2.62-.198-.073-.198-.355 0-.426 1.177-.417 1.81-1.207 2.17-2.62.057-.222.381-.222.438 0 .36 1.413.993 2.203 2.17 2.62.198.071.198.353 0 .427ZM21.107 16.04c-2.08.636-3.105 1.946-3.65 4.468-.053.237-.392.237-.444 0-.548-2.522-1.572-3.832-3.65-4.468a.227.227 0 0 1 0-.436c2.079-.635 3.102-1.944 3.65-4.468.052-.237.391-.237.443 0 .546 2.524 1.572 3.833 3.65 4.468a.227.227 0 0 1 0 .436ZM12.226 7.312c-2.896.816-4.26 2.577-4.963 6.1-.048.239-.396.239-.443 0-.704-3.523-2.067-5.284-4.962-6.1a.224.224 0 0 1 0-.433c2.895-.816 4.258-2.577 4.962-6.1.047-.239.395-.239.443 0 .704 3.523 2.067 5.284 4.963 6.1.221.061.221.372 0 .433Z"/></symbol><symbol viewBox="0 0 20 17" id="svg-telegram"><path d="M17.984.35s1.78-.694 1.632.992c-.05.694-.494 3.125-.84 5.753l-1.188 7.787s-.099 1.141-.99 1.34c-.89.198-2.225-.695-2.472-.893-.198-.15-3.71-2.381-4.947-3.472-.346-.298-.742-.893.05-1.587l5.193-4.96c.594-.595 1.188-1.984-1.286-.298L6.211 9.724s-.791.496-2.275.05L.72 8.782s-1.187-.744.841-1.488C6.508 4.963 12.592 2.582 17.984.35Z"/></symbol><symbol viewBox="0 0 16 16" id="svg-upload"><path fill-rule="evenodd" clip-rule="evenodd" d="M1.71 11.2a.8.8 0 0 1 .8.8v1.6a.8.8 0 0 0 .8.8h9.6a.8.8 0 0 0 .8-.8V12a.8.8 0 0 1 1.6 0v1.6a2.4 2.4 0 0 1-2.4 2.4h-9.6a2.4 2.4 0 0 1-2.4-2.4V12a.8.8 0 0 1 .8-.8Z"/><path fill-rule="evenodd" clip-rule="evenodd" d="M3.545 6.634a.8.8 0 0 1 1.131 0l3.435 3.434 3.434-3.434a.8.8 0 1 1 1.131 1.132l-4 4a.8.8 0 0 1-1.131 0l-4-4a.8.8 0 0 1 0-1.132Z"/><path fill-rule="evenodd" clip-rule="evenodd" d="M8.11.8a.8.8 0 0 1 .8.8v9.6a.8.8 0 0 1-1.6 0V1.6a.8.8 0 0 1 .8-.8Z"/></symbol><symbol viewBox="0 0 18 17" id="svg-zoom"><path d="m16.837 14.698-3.06-3.055a7.223 7.223 0 1 0-1.266 1.272l3.055 3.06a.9.9 0 0 0 1.273-1.272l-.002-.005ZM2.701 7.234a5.4 5.4 0 1 1 10.8 0 5.4 5.4 0 0 1-10.8 0Z"/><path d="M10.8 6.334H9v-1.8a.9.9 0 1 0-1.8 0v1.8H5.4a.9.9 0 0 0 0 1.8h1.8v1.8a.9.9 0 0 0 1.8 0v-1.8h1.8a.9.9 0 0 0 0-1.8Z"/></symbol></svg>