<svg width="24" height="24" viewBox="0 0 24 24" fill="none" xmlns="http://www.w3.org/2000/svg">
<path d="M9.84018 0.16837C10.2361 0.0998221 10.6701 0.0312745 10.7919 0.0160416C10.9138 0.000808841 11.599 -0.00680756 12.3147 0.00842525C13.236 0.0312745 13.8299 0.0845893 14.3705 0.198835C14.7893 0.290232 15.4746 0.473026 15.8933 0.610121C16.3121 0.754833 16.9669 1.02141 17.34 1.21182C17.7131 1.39461 18.3375 1.7602 18.7105 2.01154C19.0836 2.26288 19.6547 2.6894 19.9669 2.95597C20.279 3.23016 20.812 3.77093 21.1394 4.16698C21.4744 4.56304 21.9161 5.14188 22.114 5.45415C22.3196 5.76643 22.6318 6.33766 22.8221 6.71086C23.0049 7.08406 23.279 7.75431 23.4236 8.19606C23.5683 8.63781 23.7587 9.39945 23.85 9.89452C23.9566 10.5267 24.0023 11.1208 24.0023 11.9662C24.0023 12.6136 23.9642 13.4133 23.9186 13.7408C23.8729 14.0607 23.751 14.6548 23.6521 15.0508C23.5531 15.4469 23.3094 16.1476 23.1267 16.6122C22.9363 17.0768 22.5785 17.7927 22.3272 18.2116C22.076 18.6305 21.581 19.316 21.2308 19.7349C20.8882 20.1538 20.3323 20.7327 19.9973 21.0145C19.6699 21.3039 19.0836 21.7456 18.7105 21.997C18.3375 22.2483 17.7131 22.6139 17.34 22.8043C16.9669 22.9871 16.2588 23.2765 15.7791 23.4289C15.2995 23.5888 14.5609 23.7792 14.1421 23.8554C13.5787 23.962 13.0229 24.0001 12.0102 24.0001C10.9975 24.0001 10.4417 23.962 9.87825 23.8554C9.45948 23.7792 8.72092 23.5888 8.24123 23.4289C7.76155 23.2765 7.03821 22.9795 6.64228 22.7815C6.24635 22.5834 5.66007 22.2483 5.3479 22.0351C5.03572 21.8294 4.48751 21.4105 4.13726 21.1135C3.78702 20.8164 3.26165 20.2985 2.9647 19.9634C2.67537 19.6283 2.23375 19.0418 1.98249 18.6686C1.73122 18.2954 1.35814 17.6404 1.16017 17.2215C0.962205 16.8026 0.710942 16.1857 0.596731 15.8505C0.490134 15.5154 0.330239 14.9137 0.238871 14.5177C0.155116 14.1216 0.0561338 13.3828 0.0256777 12.8801C-0.0123926 12.3775 -0.0123926 11.5701 0.0180636 11.0903C0.0561338 10.6105 0.170345 9.8412 0.269327 9.3766C0.375924 8.912 0.596731 8.16559 0.771854 7.70099C0.946977 7.23639 1.23631 6.589 1.41905 6.25388C1.60179 5.91876 1.95203 5.37037 2.18807 5.03525C2.43172 4.70013 2.82003 4.20506 3.06368 3.93087C3.29972 3.65668 3.78702 3.19208 4.13726 2.89504C4.48751 2.598 5.06618 2.16387 5.42404 1.92776C5.7819 1.69927 6.36056 1.36415 6.71842 1.18897C7.07628 1.00617 7.76155 0.731984 8.24123 0.579656C8.72092 0.419711 9.44425 0.236917 9.84018 0.16837Z" fill="#FC3F1D"/>
<path d="M10.4273 5.06575C10.7547 4.97435 11.2953 4.87534 11.6304 4.84487C11.9654 4.81441 13.1303 4.79156 16.1988 4.80679L16.2369 19.2399L13.6862 19.2018L13.6481 6.74897H13.176C12.9095 6.74897 12.3841 6.78705 12.0111 6.83275C11.5999 6.87845 11.1583 6.98508 10.907 7.09171C10.6786 7.19834 10.3436 7.42683 10.1685 7.60201C9.99334 7.7848 9.78015 8.08184 9.69639 8.27225C9.61264 8.46266 9.52127 8.82063 9.49081 9.07198C9.46036 9.33855 9.4832 9.75745 9.52888 10.0621C9.58218 10.3515 9.71162 10.7857 9.81822 11.0142C9.94004 11.2731 10.2141 11.6235 10.5187 11.9281C10.8004 12.2023 11.4552 12.7126 11.9882 13.0706C12.5212 13.4286 12.9552 13.7408 12.9628 13.7713C12.9628 13.8094 12.1481 15.0509 9.34614 19.2475H8.05176C7.34365 19.2475 6.74214 19.2246 6.7193 19.2018C6.69646 19.1789 7.38933 18.0898 8.26495 16.7798C9.13295 15.4698 9.83344 14.3806 9.82583 14.3578C9.8106 14.3349 9.49081 14.0531 9.11772 13.7408C8.74464 13.4286 8.31063 13.0249 8.15835 12.8345C8.00607 12.6517 7.77004 12.3242 7.6406 12.1185C7.51116 11.9129 7.31319 11.4635 7.2066 11.1284C7.09239 10.7704 7.00102 10.2373 6.97056 9.83362C6.94011 9.33855 6.96295 8.97296 7.05432 8.50075C7.13046 8.14277 7.29035 7.63248 7.41979 7.35828C7.57969 7.02316 7.83095 6.68804 8.19642 6.32245C8.56951 5.94925 8.91214 5.69029 9.29285 5.49988C9.58979 5.34755 10.1075 5.15714 10.4273 5.06575Z" fill="white"/>
</svg>
