<svg style="display: none;" aria-hidden="true" xmlns="http://www.w3.org/2000/svg" xmlns:xlink="http://www.w3.org/1999/xlink"><symbol viewBox="0 0 12 12" id="svg-ava"><path fill-rule="evenodd" clip-rule="evenodd" d="M7.8 3.25a1.8 1.8 0 1 1-3.6 0 1.8 1.8 0 0 1 3.6 0Zm1.2 0a3 3 0 1 1-6 0 3 3 0 0 1 6 0Zm-7.4 8.5c0-.717.414-1.427 1.209-1.983C3.6 9.212 4.727 8.85 6 8.85s2.4.362 3.191.917c.795.556 1.209 1.266 1.209 1.983h1.2c0-1.216-.705-2.256-1.72-2.966C8.862 8.07 7.489 7.65 6 7.65c-1.489 0-2.862.421-3.88 1.134C1.105 9.494.4 10.534.4 11.75h1.2Z"/></symbol><symbol viewBox="0 0 12 8" id="svg-chevron-down"><path fill-rule="evenodd" clip-rule="evenodd" d="m11.495 1.747-.99-.99L6 5.264 1.495.758l-.99.99L6 7.241l5.495-5.495Z"/></symbol><symbol viewBox="0 0 8 12" id="svg-chevron-left"><path fill-rule="evenodd" clip-rule="evenodd" d="m6.252 11.495.99-.99L2.737 6l4.505-4.505-.99-.99L.758 6l5.494 5.495Z"/></symbol><symbol viewBox="0 0 8 12" id="svg-chevron-right"><path fill-rule="evenodd" clip-rule="evenodd" d="m1.748.505-.99.99L5.263 6 .758 10.505l.99.99L7.242 6 1.748.505Z"/></symbol><symbol viewBox="0 0 12 8" id="svg-chevron-up"><path fill-rule="evenodd" clip-rule="evenodd" d="m.505 6.253.99.99L6 2.736l4.505 4.505.99-.99L6 .759.505 6.253Z"/></symbol><symbol viewBox="0 0 12 12" id="svg-close"><path fill-rule="evenodd" clip-rule="evenodd" d="m6.99 6 4.505-4.505-.99-.99L6 5.01 1.495.505l-.99.99L5.01 6 .505 10.505l.99.99L6 6.99l4.505 4.505.99-.99L6.99 6Z"/></symbol><symbol viewBox="0 0 12 12" id="svg-exit"><path d="M1.333 12c-.366 0-.68-.13-.942-.391A1.286 1.286 0 0 1 0 10.667V1.333C0 .967.13.653.391.391.653.131.967 0 1.333 0H6v1.333H1.333v9.334H6V12H1.333Zm7.334-2.667-.917-.966 1.7-1.7H4V5.333h5.45l-1.7-1.7.917-.966L12 6 8.667 9.333Z"/></symbol><symbol viewBox="0 0 12 12" id="svg-export"><path d="M9.875 7.937v1.938h-7.75V7.937H.833v1.938c0 .71.582 1.292 1.292 1.292h7.75c.71 0 1.292-.582 1.292-1.292V7.937H9.875Zm-.646-2.583-.91-.91L6.646 6.11V.833H5.354V6.11L3.682 4.444l-.911.91L6 8.584l3.23-3.23Z"/></symbol><symbol viewBox="0 0 16 10" id="svg-eye"><path fill-rule="evenodd" clip-rule="evenodd" d="M16 4.8c0 1.6-3.582 4.8-8 4.8S0 6.4 0 4.8C0 3.2 3.582 0 8 0s8 3.2 8 4.8Zm-5.333 0a2.667 2.667 0 1 1-5.334 0 2.667 2.667 0 0 1 5.334 0ZM8 6.4a1.6 1.6 0 1 0 0-3.2 1.6 1.6 0 0 0 0 3.2Z"/></symbol><symbol viewBox="0 0 16 13" id="svg-eye-line"><path fill-rule="evenodd" clip-rule="evenodd" d="M14.395 11.733 2.66 0 1.605 1.056l11.733 11.733 1.057-1.056ZM16 6.395c0 .875-1.071 2.228-2.764 3.275l-2.644-2.645A2.667 2.667 0 0 0 7.37 3.803l-1.871-1.87A9.572 9.572 0 0 1 8 1.595c4.418 0 8 3.2 8 4.8Zm-10.667 0c0-.218.026-.429.075-.63L2.764 3.12C1.07 4.167 0 5.52 0 6.395c0 1.6 3.582 4.8 8 4.8.873 0 1.714-.125 2.5-.338l-1.87-1.87a2.667 2.667 0 0 1-3.297-2.592Z"/></symbol><symbol viewBox="0 0 12 8" id="svg-filters"><path d="M4.667 8h2.666V6.667H4.667V8ZM0 0v1.333h12V0H0Zm2 4.667h8V3.333H2v1.334Z"/></symbol><symbol viewBox="0 0 12 12" id="svg-info"><path d="M6 12c-3.307 0-6-2.693-6-6s2.693-6 6-6 6 2.693 6 6-2.693 6-6 6Zm0-1.124a4.876 4.876 0 1 0 0-9.752 4.876 4.876 0 0 0 0 9.752Zm0-7.007c-.392 0-.719-.144-.719-.64 0-.523.366-.64.719-.64.444 0 .706.195.706.64 0 .496-.353.64-.706.64Zm-.667 5.412v-4.81h1.32v4.81h-1.32Z"/></symbol><symbol viewBox="0 0 12 12" id="svg-menu-1"><path d="M10.667 1.333v1.334H8V1.333h2.667ZM4 1.333v4H1.333v-4H4Zm6.667 5.334v4H8v-4h2.667ZM4 9.333v1.334H1.333V9.333H4ZM12 0H6.667v4H12V0ZM5.333 0H0v6.667h5.333V0ZM12 5.333H6.667V12H12V5.333ZM5.333 8H0v4h5.333V8Z"/></symbol><symbol viewBox="0 0 14 14" id="svg-menu-2"><path fill-rule="evenodd" clip-rule="evenodd" d="m11.2 6.475-.987-.987 1.106-1.113H.7v-1.4h10.62l-1.107-1.113.987-.987 2.8 2.8-2.8 2.8Zm-8.4 1.05.987.987L2.68 9.625H13.3v1.4H2.68l1.107 1.113-.987.987-2.8-2.8 2.8-2.8Z"/></symbol><symbol viewBox="0 0 16 12" id="svg-menu-3"><path d="M12.666 0H2C1.26 0 .673.593.673 1.333l-.006 8c0 .74.593 1.334 1.333 1.334h6.666V9.333H2v-4h12v-4C14 .593 13.406 0 12.666 0Zm0 2.667H2V1.333h10.666v1.334Zm2.667 6V10h-2v2H12v-2h-2V8.667h2v-2h1.333v2h2Z"/></symbol><symbol viewBox="0 0 14 16" id="svg-menu-4"><path d="M6.667 15.53v-2.4a6.342 6.342 0 0 1-6-6.327A6.34 6.34 0 0 1 7 .47a6.34 6.34 0 0 1 6.333 6.333c0 3.3-2.293 6.62-5.713 8.267l-.954.46ZM7 1.803c-2.76 0-5 2.24-5 5s2.24 5 5 5h1v1.534c2.427-1.534 4-4.054 4-6.534 0-2.76-2.24-5-5-5ZM6.333 9.47h1.333v1.333H6.333V9.47Zm1.333-1H6.333c0-2.167 2-2 2-3.333 0-.734-.6-1.334-1.333-1.334-.734 0-1.333.6-1.333 1.334H4.332a2.666 2.666 0 1 1 5.333 0c0 1.666-2 1.833-2 3.333Z"/></symbol><symbol viewBox="0 0 16 16" id="svg-plus"><path fill-rule="evenodd" clip-rule="evenodd" d="M8.7 0v16H7.3V0h1.4Z"/><path fill-rule="evenodd" clip-rule="evenodd" d="M16 8.7H0V7.3h16v1.4Z"/></symbol><symbol viewBox="0 0 10 12" id="svg-return"><path d="M4.429 11.836a4.57 4.57 0 0 1-1.337-.342 5.666 5.666 0 0 1-1.226-.717l.78-.808c.27.195.555.353.857.474.302.12.61.204.926.25v1.143Zm1.114 0v-1.142A3.785 3.785 0 0 0 7.94 9.392c.631-.73.947-1.577.947-2.542 0-1.087-.379-2.008-1.136-2.765-.756-.757-1.678-1.135-2.764-1.135h-.111l.891.891-.78.78-2.228-2.228L4.986.164l.78.808-.863.864h.083c.696 0 1.349.132 1.957.396a5.107 5.107 0 0 1 1.588 1.073c.45.45.808.98 1.072 1.587.265.609.397 1.261.397 1.958 0 1.272-.422 2.379-1.267 3.322-.845.942-1.908 1.496-3.19 1.664ZM1.058 9.969a5.664 5.664 0 0 1-.716-1.225A4.566 4.566 0 0 1 0 7.407h1.142a4.083 4.083 0 0 0 .724 1.782l-.808.78ZM0 6.292c.056-.473.172-.928.348-1.364.177-.437.413-.836.71-1.198l.808.78c-.195.269-.353.554-.473.856-.121.302-.205.61-.25.926H0Z"/></symbol><symbol viewBox="0 0 12 12" id="svg-search"><path fill-rule="evenodd" clip-rule="evenodd" d="m11.057 12 .932-.932-2.904-2.915a4.845 4.845 0 0 0 1.206-3.19C10.291 2.225 7.985 0 5.151 0 2.317 0 .011 2.226.011 4.962c0 2.737 2.306 4.963 5.14 4.963 1.064 0 2.078-.31 2.945-.898L11.056 12ZM8.95 4.962c0-2.022-1.704-3.667-3.799-3.667-2.095 0-3.799 1.645-3.799 3.667 0 2.023 1.704 3.668 3.8 3.668 2.094 0 3.798-1.645 3.798-3.668Z"/></symbol><symbol viewBox="0 0 14 14" id="svg-settings"><path d="M11.955 7.653A5.19 5.19 0 0 0 12 7c0-.227-.02-.44-.046-.653l1.406-1.1c.127-.1.16-.28.08-.427l-1.333-2.307a.333.333 0 0 0-.407-.146l-1.66.666a4.871 4.871 0 0 0-1.126-.653L8.66.613a.325.325 0 0 0-.326-.28H5.668a.325.325 0 0 0-.327.28L5.088 2.38c-.407.167-.78.393-1.127.653l-1.66-.666a.378.378 0 0 0-.12-.02.33.33 0 0 0-.286.166L.56 4.82a.329.329 0 0 0 .08.427l1.407 1.1A5.286 5.286 0 0 0 2.001 7c0 .22.02.44.047.653l-1.407 1.1c-.126.1-.16.28-.08.427l1.334 2.307a.333.333 0 0 0 .406.146l1.66-.666c.347.266.72.486 1.127.653l.253 1.767c.02.16.16.28.327.28h2.667c.166 0 .306-.12.326-.28l.254-1.767c.406-.167.78-.393 1.127-.653l1.66.666c.04.014.08.02.12.02a.33.33 0 0 0 .286-.166l1.333-2.307a.336.336 0 0 0-.08-.427l-1.406-1.1Zm-1.32-1.14c.027.207.033.347.033.487s-.013.287-.033.487l-.094.753.594.467.72.56-.467.806-.847-.34-.693-.28-.6.454c-.287.213-.56.373-.833.486l-.707.287-.107.753-.133.9h-.933l-.127-.9-.107-.753-.706-.287a3.782 3.782 0 0 1-.82-.473l-.607-.467-.707.287-.846.34-.467-.807.72-.56.593-.466-.093-.754A5.363 5.363 0 0 1 3.335 7c0-.133.013-.287.033-.487l.093-.753-.593-.467-.72-.56.467-.806.846.34.694.28.6-.454c.286-.213.56-.373.833-.486l.707-.287.106-.753.134-.9h.926l.127.9.107.753.706.287c.287.12.554.273.82.473l.607.467.707-.287.847-.34.466.807-.713.566-.594.467.094.753ZM7 4.333a2.666 2.666 0 1 0 0 5.334 2.666 2.666 0 1 0 0-5.334Zm0 4c-.733 0-1.333-.6-1.333-1.333s.6-1.333 1.333-1.333c.734 0 1.334.6 1.334 1.333S7.735 8.333 7 8.333Z"/></symbol><symbol viewBox="0 0 8 6" id="svg-triangle-down"><path d="M4 6 0 0h8L4 6Z"/></symbol><symbol viewBox="0 0 8 6" id="svg-triangle-top"><path d="M4 0 0 6h8L4 0Z"/></symbol></svg>