<svg width="12" height="12" viewBox="0 0 12 12" fill="none" xmlns="http://www.w3.org/2000/svg">
<path fill-rule="evenodd" clip-rule="evenodd" d="M7.80012 3.24998C7.80012 4.2441 6.99423 5.04998 6.00012 5.04998C5.00601 5.04998 4.20012 4.2441 4.20012 3.24998C4.20012 2.25587 5.00601 1.44998 6.00012 1.44998C6.99423 1.44998 7.80012 2.25587 7.80012 3.24998ZM9.00012 3.24998C9.00012 4.90684 7.65698 6.24998 6.00012 6.24998C4.34327 6.24998 3.00012 4.90684 3.00012 3.24998C3.00012 1.59313 4.34327 0.249985 6.00012 0.249985C7.65698 0.249985 9.00012 1.59313 9.00012 3.24998ZM1.60002 11.75C1.60002 11.033 2.0144 10.3226 2.80857 9.76667C3.60084 9.21208 4.72732 8.85001 6.00002 8.85001C7.27273 8.85001 8.39921 9.21208 9.19148 9.76667C9.98565 10.3226 10.4 11.033 10.4 11.75H11.6C11.6 10.534 10.8951 9.49443 9.87964 8.7836C8.86227 8.07144 7.48874 7.65001 6.00002 7.65001C4.5113 7.65001 3.13778 8.07144 2.12041 8.7836C1.10494 9.49443 0.400024 10.534 0.400024 11.75H1.60002Z" fill="black"/>
</svg>
