<svg width="16" height="10" viewBox="0 0 16 10" fill="none" xmlns="http://www.w3.org/2000/svg">
<path fill-rule="evenodd" clip-rule="evenodd" d="M16 4.8C16 6.4 12.4183 9.6 8 9.6C3.58172 9.6 0 6.4 0 4.8C0 3.2 3.58172 0 8 0C12.4183 0 16 3.2 16 4.8ZM10.6667 4.8C10.6667 6.27276 9.47276 7.46667 8 7.46667C6.52724 7.46667 5.33333 6.27276 5.33333 4.8C5.33333 3.32724 6.52724 2.13333 8 2.13333C9.47276 2.13333 10.6667 3.32724 10.6667 4.8ZM8 6.4C8.88366 6.4 9.6 5.68366 9.6 4.8C9.6 3.91634 8.88366 3.2 8 3.2C7.11634 3.2 6.4 3.91634 6.4 4.8C6.4 5.68366 7.11634 6.4 8 6.4Z" fill="#010101"/>
</svg>
