<svg width="12" height="12" viewBox="0 0 12 12" fill="none" xmlns="http://www.w3.org/2000/svg">
<path fill-rule="evenodd" clip-rule="evenodd" d="M11.0569 12L11.9888 11.0681L9.08539 8.15273C9.86446 7.25862 10.2913 6.13364 10.2913 4.96249C10.2913 2.22622 7.98544 0 5.1513 0C2.31711 0 0.0112305 2.22622 0.0112305 4.96249C0.0112305 7.69876 2.31711 9.92498 5.1513 9.92498C6.21525 9.92498 7.22919 9.61516 8.09609 9.02699L11.0569 12ZM8.95042 4.96249C8.95042 2.93996 7.24619 1.29456 5.1513 1.29456C3.05635 1.29456 1.35212 2.93996 1.35212 4.96249C1.35212 6.98503 3.05635 8.63042 5.1513 8.63042C7.24619 8.63042 8.95042 6.98503 8.95042 4.96249Z" fill="#010101"/>
</svg>
