<svg width="14" height="14" viewBox="0 0 14 14" fill="none" xmlns="http://www.w3.org/2000/svg">
<path d="M11.9548 7.65333C11.9815 7.43999 12.0015 7.22666 12.0015 6.99999C12.0015 6.77333 11.9815 6.55999 11.9548 6.34666L13.3615 5.24666C13.4881 5.14666 13.5215 4.96666 13.4415 4.81999L12.1081 2.51333C12.0481 2.40666 11.9348 2.34666 11.8148 2.34666C11.7748 2.34666 11.7348 2.35333 11.7015 2.36666L10.0415 3.03333C9.69481 2.76666 9.32148 2.54666 8.91481 2.37999L8.66148 0.613328C8.64148 0.453328 8.50148 0.333328 8.33481 0.333328H5.66815C5.50148 0.333328 5.36148 0.453328 5.34148 0.613328L5.08815 2.37999C4.68148 2.54666 4.30815 2.77333 3.96148 3.03333L2.30148 2.36666C2.26148 2.35333 2.22148 2.34666 2.18148 2.34666C2.06815 2.34666 1.95481 2.40666 1.89481 2.51333L0.56148 4.81999C0.474813 4.96666 0.514813 5.14666 0.64148 5.24666L2.04815 6.34666C2.02148 6.55999 2.00148 6.77999 2.00148 6.99999C2.00148 7.21999 2.02148 7.43999 2.04815 7.65333L0.64148 8.75333C0.514813 8.85333 0.48148 9.03333 0.56148 9.17999L1.89481 11.4867C1.95481 11.5933 2.06815 11.6533 2.18815 11.6533C2.22815 11.6533 2.26815 11.6467 2.30148 11.6333L3.96148 10.9667C4.30815 11.2333 4.68148 11.4533 5.08815 11.62L5.34148 13.3867C5.36148 13.5467 5.50148 13.6667 5.66815 13.6667H8.33481C8.50148 13.6667 8.64148 13.5467 8.66148 13.3867L8.91481 11.62C9.32148 11.4533 9.69481 11.2267 10.0415 10.9667L11.7015 11.6333C11.7415 11.6467 11.7815 11.6533 11.8215 11.6533C11.9348 11.6533 12.0481 11.5933 12.1081 11.4867L13.4415 9.17999C13.5215 9.03333 13.4881 8.85333 13.3615 8.75333L11.9548 7.65333ZM10.6348 6.51333C10.6615 6.72 10.6681 6.85999 10.6681 6.99999C10.6681 7.13999 10.6548 7.28666 10.6348 7.48666L10.5415 8.23999L11.1348 8.70666L11.8548 9.26666L11.3881 10.0733L10.5415 9.73333L9.84815 9.45333L9.24815 9.90666C8.96148 10.12 8.68815 10.28 8.41481 10.3933L7.70815 10.68L7.60148 11.4333L7.46815 12.3333H6.53481L6.40815 11.4333L6.30148 10.68L5.59481 10.3933C5.30815 10.2733 5.04148 10.12 4.77481 9.91999L4.16815 9.45333L3.46148 9.74L2.61481 10.08L2.14815 9.27333L2.86815 8.71333L3.46148 8.24666L3.36815 7.49333C3.34815 7.28666 3.33481 7.13333 3.33481 6.99999C3.33481 6.86666 3.34815 6.71333 3.36815 6.51333L3.46148 5.75999L2.86815 5.29333L2.14815 4.73333L2.61481 3.92666L3.46148 4.26666L4.15481 4.54666L4.75481 4.09333C5.04148 3.87999 5.31481 3.71999 5.58815 3.60666L6.29481 3.31999L6.40148 2.56666L6.53481 1.66666H7.46148L7.58815 2.56666L7.69481 3.31999L8.40148 3.60666C8.68815 3.72666 8.95481 3.87999 9.22148 4.07999L9.82815 4.54666L10.5348 4.25999L11.3815 3.91999L11.8481 4.72666L11.1348 5.29333L10.5415 5.75999L10.6348 6.51333ZM7.00148 4.33333C5.52815 4.33333 4.33481 5.52666 4.33481 6.99999C4.33481 8.47333 5.52815 9.66666 7.00148 9.66666C8.47481 9.66666 9.66815 8.47333 9.66815 6.99999C9.66815 5.52666 8.47481 4.33333 7.00148 4.33333ZM7.00148 8.33333C6.26815 8.33333 5.66815 7.73333 5.66815 6.99999C5.66815 6.26666 6.26815 5.66666 7.00148 5.66666C7.73481 5.66666 8.33481 6.26666 8.33481 6.99999C8.33481 7.73333 7.73481 8.33333 7.00148 8.33333Z" fill="#010101"/>
</svg>
