<svg width="24" height="24" viewBox="0 0 24 24" fill="none" xmlns="http://www.w3.org/2000/svg">
<path fill-rule="evenodd" clip-rule="evenodd" d="M5.77225 8.34842C5.48598 8.34842 5.25391 8.58048 5.25391 8.86676V18.0957C5.25391 18.382 5.48597 18.614 5.77225 18.614H9.44594C9.65293 18.614 9.84941 18.7053 9.98301 18.8634L12.0006 21.2512L14.0182 18.8633C14.1518 18.7052 14.3483 18.614 14.5553 18.614H18.229C18.5153 18.614 18.7473 18.3819 18.7473 18.0957V8.86676C18.7473 8.58053 18.5153 8.34842 18.229 8.34842H5.77225ZM3.84766 8.86676C3.84766 7.8038 4.70936 6.94217 5.77225 6.94217H18.229C19.2919 6.94217 20.1536 7.80384 20.1536 8.86676V18.0957C20.1536 19.1586 19.2919 20.0202 18.229 20.0202H14.8817L12.5377 22.7944C12.4041 22.9525 12.2076 23.0437 12.0006 23.0437C11.7936 23.0437 11.5972 22.9525 11.4636 22.7944L9.11953 20.0203H5.77225C4.70928 20.0203 3.84766 19.1586 3.84766 18.0957V8.86676Z" fill="#010101"/>
<path fill-rule="evenodd" clip-rule="evenodd" d="M18.7461 10.315C18.7461 9.92669 19.0609 9.61189 19.4492 9.61189H22.2617C23.2214 9.61189 23.9994 10.3899 23.9994 11.3495V14.9742C23.9994 15.9339 23.2214 16.7119 22.2617 16.7119H19.4492C19.0609 16.7119 18.7461 16.3971 18.7461 16.0088V10.315ZM20.1523 11.0181V15.3057H22.2617C22.4447 15.3057 22.5931 15.1573 22.5931 14.9742V11.3495C22.5931 11.1665 22.4448 11.0181 22.2617 11.0181H20.1523Z" fill="#010101"/>
<path fill-rule="evenodd" clip-rule="evenodd" d="M0 11.3495C0 10.3899 0.777972 9.61189 1.73766 9.61189H4.55016C4.93848 9.61189 5.25328 9.92669 5.25328 10.315V16.0088C5.25328 16.3971 4.93848 16.7119 4.55016 16.7119H1.73766C0.777931 16.7119 0 15.9338 0 14.9742V11.3495ZM1.73766 11.0181C1.55462 11.0181 1.40625 11.1665 1.40625 11.3495V14.9742C1.40625 15.1573 1.55466 15.3057 1.73766 15.3057H3.84703V11.0181H1.73766Z" fill="#010101"/>
<path fill-rule="evenodd" clip-rule="evenodd" d="M10.3939 2.36249C6.00186 2.36249 2.44141 5.92294 2.44141 10.315C2.44141 10.7033 2.12598 11.0181 1.73766 11.0181C1.34933 11.0181 1.03516 10.7033 1.03516 10.315C1.03516 5.14629 5.22521 0.956238 10.3939 0.956238H13.6073C18.776 0.956238 22.9661 5.14629 22.9661 10.315C22.9661 10.7033 22.6513 11.0181 22.263 11.0181C21.8746 11.0181 21.5598 10.7033 21.5598 10.315C21.5598 5.92294 17.9994 2.36249 13.6073 2.36249H10.3939Z" fill="#010101"/>
<path d="M9.83594 11.6352C9.83594 12.0235 9.52114 12.3383 9.13281 12.3383C8.74449 12.3383 8.42969 12.0235 8.42969 11.6352C8.42969 11.2469 8.74449 10.9321 9.13281 10.9321C9.52114 10.9321 9.83594 11.2469 9.83594 11.6352Z" fill="#010101"/>
<path d="M15.2734 11.6352C15.2734 12.0235 14.9586 12.3383 14.5703 12.3383C14.182 12.3383 13.8672 12.0235 13.8672 11.6352C13.8672 11.2469 14.182 10.9321 14.5703 10.9321C14.9586 10.9321 15.2734 11.2469 15.2734 11.6352Z" fill="#010101"/>
<path fill-rule="evenodd" clip-rule="evenodd" d="M8.43488 14.2053C8.69254 13.9148 9.13694 13.8881 9.42747 14.1458C10.2663 14.8897 11.1515 15.2277 11.9993 15.2277C12.847 15.2277 13.7322 14.8897 14.5711 14.1458C14.8616 13.8881 15.306 13.9148 15.5637 14.2053C15.8213 14.4959 15.7947 14.9403 15.5041 15.1979C14.4502 16.1325 13.2435 16.6339 11.9993 16.6339C10.7551 16.6339 9.54829 16.1325 8.49441 15.1979C8.20388 14.9402 8.17722 14.4958 8.43488 14.2053Z" fill="#010101"/>
</svg>
