<svg width="21" height="20" viewBox="0 0 21 20" fill="none" xmlns="http://www.w3.org/2000/svg">
<path fill-rule="evenodd" clip-rule="evenodd" d="M19.1528 8.25282L9.96038 17.4452C7.81249 19.5931 4.33009 19.5931 2.1822 17.4452C0.0343184 15.2973 0.0343176 11.8149 2.1822 9.66703L2.88931 10.3741C1.13195 12.1315 1.13195 14.9807 2.88931 16.7381C4.64667 18.4955 7.49591 18.4955 9.25327 16.7381L18.4457 7.54571L19.1528 8.25282Z" fill="white"/>
<path fill-rule="evenodd" clip-rule="evenodd" d="M3.59642 11.0812L12.7888 1.88885C14.5462 0.131495 17.3954 0.131499 19.1528 1.88886C20.9101 3.64622 20.9101 6.49546 19.1528 8.25282L18.4457 7.54571C19.8125 6.17888 19.8125 3.9628 18.4457 2.59596C17.0788 1.22913 14.8628 1.22913 13.4959 2.59596L4.30352 11.7884L3.59642 11.0812Z" fill="white"/>
<path fill-rule="evenodd" clip-rule="evenodd" d="M4.30352 11.7884C3.32721 12.7647 3.32721 14.3476 4.30352 15.3239C5.27983 16.3002 6.86275 16.3002 7.83906 15.3239L8.54616 16.031C7.17933 17.3978 4.96325 17.3978 3.59642 16.031C2.22958 14.6642 2.22958 12.4481 3.59642 11.0812L4.30352 11.7884Z" fill="white"/>
<path fill-rule="evenodd" clip-rule="evenodd" d="M12.4352 0.8282L2.88931 10.3741L2.1822 9.66703L11.7281 0.121094L12.4352 0.8282ZM18.0921 6.48505L8.54616 16.031L7.83906 15.3239L17.385 5.77795L18.0921 6.48505Z" fill="white"/>
</svg>
