<svg width="8" height="14" viewBox="0 0 8 14" fill="none" xmlns="http://www.w3.org/2000/svg">
<path d="M7.68118 12.5074L2.17492 7.00113L7.68118 1.49483C7.84363 1.3304 7.93442 1.10837 7.93372 0.877227C7.93302 0.646084 7.84088 0.424608 7.67744 0.261164C7.514 0.0977207 7.29252 0.00558849 7.06138 0.00488685C6.83023 0.0041852 6.6082 0.0949712 6.44377 0.257419L0.31877 6.38242C0.154683 6.54651 0.0625 6.76907 0.0625 7.00113C0.0625 7.23319 0.154683 7.45574 0.31877 7.61983L6.44377 13.7448C6.6082 13.9073 6.83023 13.9981 7.06138 13.9974C7.29252 13.9967 7.514 13.9045 7.67744 13.7411C7.84088 13.5776 7.93302 13.3562 7.93372 13.125C7.93442 12.8939 7.84363 12.6719 7.68118 12.5074Z" fill="black"/>
</svg>
