<svg width="8" height="14" viewBox="0 0 8 14" fill="none" xmlns="http://www.w3.org/2000/svg">
<path d="M0.318943 12.5074L5.82521 7.00113L0.318943 1.49483C0.156495 1.3304 0.0657086 1.10837 0.0664103 0.877227C0.0671119 0.646084 0.159244 0.424608 0.322688 0.261164C0.486131 0.0977207 0.707607 0.00558849 0.93875 0.00488685C1.16989 0.0041852 1.39192 0.0949712 1.55636 0.257419L7.68136 6.38242C7.84545 6.54651 7.93763 6.76907 7.93763 7.00113C7.93763 7.23319 7.84545 7.45574 7.68136 7.61983L1.55636 13.7448C1.39192 13.9073 1.16989 13.9981 0.93875 13.9974C0.707607 13.9967 0.486131 13.9045 0.322688 13.7411C0.159244 13.5776 0.0671119 13.3562 0.0664103 13.125C0.0657086 12.8939 0.156495 12.6719 0.318943 12.5074Z" fill="black"/>
</svg>
