<svg width="15" height="9" viewBox="0 0 15 9" fill="none" xmlns="http://www.w3.org/2000/svg">
<path d="M1.99386 0.948017L7.50015 6.45428L13.0064 0.948017C13.1709 0.785569 13.3929 0.694783 13.6241 0.695484C13.8552 0.696186 14.0767 0.788318 14.2401 0.951762C14.4036 1.11521 14.4957 1.33668 14.4964 1.56782C14.4971 1.79897 14.4063 2.021 14.2439 2.18543L8.11886 8.31043C7.95476 8.47452 7.73221 8.5667 7.50015 8.5667C7.26809 8.5667 7.04554 8.47452 6.88144 8.31043L0.756443 2.18543C0.593994 2.021 0.503208 1.79897 0.50391 1.56782C0.504612 1.33668 0.596745 1.11521 0.760188 0.951762C0.923632 0.788318 1.14511 0.696186 1.37625 0.695484C1.60739 0.694783 1.82942 0.785569 1.99386 0.948017Z" fill="black"/>
</svg>
