<svg width="18" height="18" viewBox="0 0 18 18" fill="none" xmlns="http://www.w3.org/2000/svg">
<path fill-rule="evenodd" clip-rule="evenodd" d="M0.792893 0.792893C1.18342 0.402369 1.81658 0.402369 2.20711 0.792893L9 7.58579L15.7929 0.792893C16.1834 0.402369 16.8166 0.402369 17.2071 0.792893C17.5976 1.18342 17.5976 1.81658 17.2071 2.20711L10.4142 9L17.2071 15.7929C17.5976 16.1834 17.5976 16.8166 17.2071 17.2071C16.8166 17.5976 16.1834 17.5976 15.7929 17.2071L9 10.4142L2.20711 17.2071C1.81658 17.5976 1.18342 17.5976 0.792893 17.2071C0.402369 16.8166 0.402369 16.1834 0.792893 15.7929L7.58579 9L0.792893 2.20711C0.402369 1.81658 0.402369 1.18342 0.792893 0.792893Z" fill="#A7B2B4"/>
</svg>
