<svg width="18" height="18" viewBox="0 0 18 18" fill="none" xmlns="http://www.w3.org/2000/svg">
<path d="M2.14744 17.9975H10.1236C10.6929 17.9967 11.2386 17.7702 11.6411 17.3676C12.0437 16.9651 12.2702 16.4194 12.2711 15.8501V5.41971C12.2702 4.85044 12.0437 4.30473 11.6411 3.9022C11.2386 3.49966 10.6929 3.27314 10.1236 3.27227H2.14744C1.57817 3.27314 1.03246 3.49966 0.629925 3.9022C0.22739 4.30473 0.000865482 4.85044 0 5.41971V15.8501C0.000865482 16.4194 0.22739 16.9651 0.629925 17.3676C1.03246 17.7702 1.57817 17.9967 2.14744 17.9975ZM1.63614 5.41971C1.63614 5.2841 1.69001 5.15405 1.7859 5.05817C1.88178 4.96228 2.01183 4.90841 2.14744 4.90841H10.1236C10.2592 4.90841 10.3893 4.96228 10.4852 5.05817C10.5811 5.15405 10.6349 5.2841 10.6349 5.41971V15.8501C10.6349 15.9857 10.5811 16.1158 10.4852 16.2117C10.3893 16.3075 10.2592 16.3614 10.1236 16.3614H2.14744C2.01183 16.3614 1.88178 16.3075 1.7859 16.2117C1.69001 16.1158 1.63614 15.9857 1.63614 15.8501V5.41971Z" fill="#F0F6F7"/>
<path d="M15.8469 0H7.87887C7.45579 0.000399994 7.04224 0.12557 6.68995 0.359845C6.33766 0.594121 6.0623 0.927094 5.89832 1.31709C5.8137 1.51692 5.81193 1.74217 5.89339 1.94331C5.97486 2.14444 6.13289 2.30497 6.33271 2.38959C6.53254 2.4742 6.75779 2.47597 6.95892 2.39451C7.16005 2.31304 7.32059 2.15502 7.4052 1.95519C7.44391 1.86124 7.50953 1.78083 7.5938 1.72406C7.67808 1.66729 7.77726 1.63671 7.87887 1.63614H15.8469C15.9835 1.63636 16.1145 1.69073 16.2111 1.78733C16.3077 1.88394 16.362 2.0149 16.3623 2.15153V12.5738C16.362 12.7104 16.3077 12.8413 16.2111 12.9379C16.1145 13.0345 15.9835 13.0889 15.8469 13.0891H13.908C13.6911 13.0891 13.483 13.1753 13.3296 13.3287C13.1762 13.4822 13.09 13.6902 13.09 13.9072C13.09 14.1242 13.1762 14.3323 13.3296 14.4857C13.483 14.6391 13.6911 14.7253 13.908 14.7253H15.8469C16.4173 14.7246 16.9642 14.4977 17.3675 14.0944C17.7709 13.691 17.9978 13.1442 17.9984 12.5738V2.15153C17.9978 1.58111 17.7709 1.03423 17.3675 0.630885C16.9642 0.227536 16.4173 0.000649559 15.8469 0Z" fill="#F0F6F7"/>
</svg>
