<svg width="20" height="20" viewBox="0 0 20 20" fill="none" xmlns="http://www.w3.org/2000/svg">
<path d="M15.8947 0.561392C15.5353 0.201945 15.0478 6.89416e-06 14.5395 0H9.58333C9.075 0 8.58749 0.201934 8.22805 0.561379C7.8686 0.920823 7.66667 1.40834 7.66667 1.91667V13.4167C7.66667 13.925 7.8686 14.4125 8.22805 14.772C8.58749 15.1314 9.075 15.3333 9.58333 15.3333H17.25C17.7583 15.3333 18.2458 15.1314 18.6053 14.772C18.9647 14.4125 19.1667 13.925 19.1667 13.4167V4.62722C19.1667 4.11889 18.9647 3.63138 18.6053 3.27194L15.8947 0.561392ZM17.7292 4.79167H16.2917C15.7833 4.79167 15.2958 4.58973 14.9364 4.23029C14.5769 3.87084 14.375 3.38333 14.375 2.875V1.4375H14.5397C14.6667 1.43788 14.7885 1.48833 14.8785 1.5779L17.5888 4.28816C17.6335 4.3326 17.6689 4.38547 17.693 4.44371C17.7171 4.50194 17.7294 4.56438 17.7292 4.62741V4.79167ZM0 17.25V5.75C0 5.24167 0.201934 4.75416 0.561379 4.39471C0.920823 4.03527 1.40834 3.83333 1.91667 3.83333H5.75V13.4167C5.75114 14.433 6.15538 15.4073 6.87402 16.126C7.59266 16.8446 8.56702 17.2489 9.58333 17.25H11.5C11.5 17.7583 11.2981 18.2458 10.9386 18.6053C10.5792 18.9647 10.0917 19.1667 9.58333 19.1667H1.91667C1.40834 19.1667 0.920823 18.9647 0.561379 18.6053C0.201934 18.2458 0 17.7583 0 17.25Z" fill="white"/>
</svg>
