<svg width="18" height="17" viewBox="0 0 18 17" fill="none" xmlns="http://www.w3.org/2000/svg">
<path d="M3.1635 10.6563H6.459L5.81175 12.6003C5.61111 13.2072 5.61483 13.8632 5.82233 14.4678C6.02984 15.0724 6.4297 15.5924 6.96075 15.9483C7.35822 16.2096 7.84163 16.3064 8.30908 16.2182C8.77654 16.1301 9.1915 15.8639 9.4665 15.4758L12.9862 10.4508C13.1248 10.5827 13.3087 10.6563 13.5 10.6563H16.5C16.6989 10.6563 16.8897 10.5772 17.0303 10.4366C17.171 10.2959 17.25 10.1052 17.25 9.90625V0.90625C17.25 0.707338 17.171 0.516572 17.0303 0.375919C16.8897 0.235267 16.6989 0.15625 16.5 0.15625H13.5C13.3011 0.15625 13.1103 0.235267 12.9697 0.375919C12.829 0.516572 12.75 0.707338 12.75 0.90625V1.00525L11.6663 0.28225C11.5429 0.200305 11.3981 0.156484 11.25 0.15625H4.5C4.36063 0.156185 4.22399 0.194958 4.10542 0.268218C3.98686 0.341478 3.89105 0.446326 3.82875 0.571L1.08525 6.05875C0.865501 6.50008 0.750762 6.98624 0.75 7.47925V8.24275C0.750794 8.88261 1.00533 9.49603 1.45777 9.94848C1.91022 10.4009 2.52364 10.6555 3.1635 10.6563ZM14.25 1.65625H15.75V9.15625H14.25V1.65625ZM2.25 7.47925C2.2505 7.21896 2.31107 6.9623 2.427 6.72925L4.9635 1.65625H11.025L12.75 2.8075V8.17L8.23725 14.6163C8.18899 14.6858 8.1153 14.7337 8.03209 14.7494C7.94887 14.7651 7.86282 14.7474 7.7925 14.7003C7.53449 14.5275 7.34021 14.275 7.23943 13.9813C7.13865 13.6876 7.13692 13.369 7.2345 13.0743L8.2095 10.1433C8.24699 10.0307 8.25724 9.91082 8.23941 9.79352C8.22158 9.67622 8.17617 9.56482 8.10692 9.46848C8.03766 9.37214 7.94654 9.29361 7.84103 9.23933C7.73553 9.18505 7.61865 9.15658 7.5 9.15625H3.1635C2.92129 9.15605 2.68905 9.05974 2.51778 8.88847C2.34651 8.7172 2.2502 8.48496 2.25 8.24275V7.47925Z" fill="#F0F6F7"/>
</svg>
