<svg width="20" height="16" viewBox="0 0 20 16" fill="none" xmlns="http://www.w3.org/2000/svg">
<path d="M11.6309 10.5159C11.1269 10.8349 10.5599 10.9963 9.99294 10.9963C9.43384 10.9963 8.87474 10.8427 8.39045 10.5317L0.307142 5.09032C0.173273 4.99977 -0.00390625 5.09426 -0.00390625 5.25569V15.0005C-0.00390625 15.5518 0.444948 16.0006 0.996172 16.0006H18.9976C19.5488 16.0006 19.9977 15.5518 19.9977 15.0005V5.25569C19.9977 5.09426 19.8205 4.99977 19.6866 5.09032L11.6309 10.5159Z" fill="white"/>
<path d="M9.48109 8.85835C9.78426 9.05128 10.2056 9.05128 10.5323 8.8426L19.911 2.52715C19.9662 2.49171 19.9977 2.42871 19.9977 2.36178V0.999468C19.9977 0.448244 19.5488 -0.000610352 18.9976 -0.000610352H0.996172C0.444948 -0.000610141 -0.00390625 0.448244 -0.00390625 0.999468V2.36178C-0.00390625 2.42871 0.0275923 2.49171 0.0827147 2.52715L9.48109 8.85835Z" fill="white"/>
</svg>
