<svg width="20" height="15" viewBox="0 0 20 15" fill="none" xmlns="http://www.w3.org/2000/svg">
<path d="M19.8507 6.8175C19.1191 5.2175 16.2499 0 9.99989 0C3.74989 0 0.880726 5.2175 0.149059 6.8175C0.0508413 7.03192 0 7.26499 0 7.50083C0 7.73668 0.0508413 7.96975 0.149059 8.18417C0.880726 9.7825 3.74989 15 9.99989 15C16.2499 15 19.1191 9.7825 19.8507 8.1825C19.9488 7.96832 19.9995 7.73554 19.9995 7.5C19.9995 7.26446 19.9488 7.03168 19.8507 6.8175ZM9.99989 13.3333C4.74406 13.3333 2.29156 8.86167 1.66656 7.50917C2.29156 6.13833 4.74406 1.66667 9.99989 1.66667C15.2432 1.66667 17.6966 6.11917 18.3332 7.5C17.6966 8.88083 15.2432 13.3333 9.99989 13.3333Z" fill="#010101"/>
<path d="M9.99987 3.33359C9.17578 3.33359 8.3702 3.57796 7.68499 4.0358C6.99979 4.49364 6.46574 5.14439 6.15037 5.90575C5.83501 6.66711 5.75249 7.50488 5.91326 8.31314C6.07404 9.12139 6.47087 9.86382 7.05359 10.4465C7.63631 11.0293 8.37874 11.4261 9.18699 11.5869C9.99525 11.7476 10.833 11.6651 11.5944 11.3498C12.3557 11.0344 13.0065 10.5003 13.4643 9.81514C13.9222 9.12993 14.1665 8.32435 14.1665 7.50026C14.1652 6.3956 13.7258 5.33656 12.9447 4.55544C12.1636 3.77433 11.1045 3.33492 9.99987 3.33359ZM9.99987 10.0003C9.50542 10.0003 9.02207 9.85364 8.61094 9.57894C8.19982 9.30423 7.87939 8.91379 7.69017 8.45697C7.50095 8.00015 7.45144 7.49749 7.5479 7.01254C7.64437 6.52758 7.88247 6.08213 8.2321 5.73249C8.58173 5.38286 9.02719 5.14476 9.51214 5.0483C9.9971 4.95183 10.4998 5.00134 10.9566 5.19056C11.4134 5.37978 11.8038 5.70021 12.0785 6.11134C12.3532 6.52246 12.4999 7.00581 12.4999 7.50026C12.4999 8.1633 12.2365 8.79919 11.7676 9.26803C11.2988 9.73687 10.6629 10.0003 9.99987 10.0003Z" fill="#010101"/>
</svg>
