<svg width="24" height="24" viewBox="0 0 24 24" fill="none" xmlns="http://www.w3.org/2000/svg">
<path d="M18.3777 0.00115967H5.62849C2.52712 0.00115967 0.00390625 2.52415 0.00390625 5.62552V18.3747C0.00390625 21.4761 2.52712 23.9991 5.62849 23.9991H18.3777C21.479 23.9991 24.0025 21.4761 24.0025 18.3747V5.62552C24.0022 2.52415 21.479 0.00115967 18.3777 0.00115967ZM22.1275 18.3745C22.1275 20.4419 20.4455 22.1241 18.3777 22.1241H5.62849C3.56106 22.1241 1.87884 20.4421 1.87884 18.3745V5.62552C1.87884 3.55809 3.56106 1.8761 5.62849 1.8761H18.3777C20.4455 1.8761 22.1275 3.55809 22.1275 5.62552V18.3745Z" fill="#F0F6F7"/>
<path d="M20.0721 13.1217C19.6827 12.7816 19.0905 12.8213 18.7495 13.2115L17.163 15.0286C16.6061 15.6349 16.0822 15.6764 15.4192 15.1659C15.4192 15.1659 11.0599 11.0373 11.0382 11.0201C9.77987 10.025 8.00118 10.0815 6.80869 11.1541C6.78926 11.1715 4.05524 14.0761 4.05524 14.0761C3.70084 14.4531 3.71871 15.0464 4.09588 15.4013C4.47306 15.7561 5.0664 15.7376 5.42102 15.3609L8.08827 12.5254C8.58983 12.0956 9.31783 12.0721 9.84597 12.4683C9.84597 12.4683 14.2039 16.5951 14.2256 16.6123C14.875 17.1259 15.6233 17.3901 16.3156 17.3901C16.8716 17.372 17.7481 17.169 18.5545 16.2858C18.5588 16.2809 18.5639 16.2755 18.5684 16.2702L20.1621 14.4446C20.5029 14.0547 20.4623 13.4622 20.0721 13.1217Z" fill="#F0F6F7"/>
<path d="M15.2381 10.8749C16.7886 10.8749 18.0505 9.61345 18.0505 8.06298C18.0505 6.5123 16.7888 5.25058 15.2381 5.25058C13.6872 5.25058 12.4257 6.51207 12.4257 8.06298C12.4259 9.61345 13.6872 10.8749 15.2381 10.8749ZM15.2381 7.12529C15.7548 7.12529 16.1758 7.54601 16.1758 8.06276C16.1758 8.57973 15.7548 9.00001 15.2381 9.00001C14.7214 9.00001 14.3009 8.57973 14.3009 8.06276C14.3009 7.54601 14.7214 7.12529 15.2381 7.12529Z" fill="#F0F6F7"/>
</svg>
