<svg width="24" height="24" viewBox="0 0 24 24" fill="none" xmlns="http://www.w3.org/2000/svg">
<path d="M15.9999 7H7.99994C7.73472 7 7.48037 7.10536 7.29283 7.29289C7.1053 7.48043 6.99994 7.73478 6.99994 8V10C6.99994 10.2652 7.1053 10.5196 7.29283 10.7071C7.48037 10.8946 7.73472 11 7.99994 11C8.26516 11 8.51951 10.8946 8.70705 10.7071C8.89458 10.5196 8.99994 10.2652 8.99994 10V9H10.9999V15H9.99994C9.73472 15 9.48037 15.1054 9.29283 15.2929C9.1053 15.4804 8.99994 15.7348 8.99994 16C8.99994 16.2652 9.1053 16.5196 9.29283 16.7071C9.48037 16.8946 9.73472 17 9.99994 17H13.9999C14.2652 17 14.5195 16.8946 14.707 16.7071C14.8946 16.5196 14.9999 16.2652 14.9999 16C14.9999 15.7348 14.8946 15.4804 14.707 15.2929C14.5195 15.1054 14.2652 15 13.9999 15H12.9999V9H14.9999V10C14.9999 10.2652 15.1053 10.5196 15.2928 10.7071C15.4804 10.8946 15.7347 11 15.9999 11C16.2652 11 16.5195 10.8946 16.707 10.7071C16.8946 10.5196 16.9999 10.2652 16.9999 10V8C16.9999 7.73478 16.8946 7.48043 16.707 7.29289C16.5195 7.10536 16.2652 7 15.9999 7Z" fill="black"/>
<path d="M24 4V2C23.9995 1.46973 23.7886 0.961329 23.4136 0.586371C23.0387 0.211413 22.5303 0.000529477 22 0H20C19.4697 0.000529477 18.9613 0.211413 18.5864 0.586371C18.2114 0.961329 18.0005 1.46973 18 2H6C5.99947 1.46973 5.78859 0.961329 5.41363 0.586371C5.03867 0.211413 4.53027 0.000529477 4 0H2C1.46973 0.000529477 0.961329 0.211413 0.586371 0.586371C0.211413 0.961329 0.000529477 1.46973 0 2V4C0.000529477 4.53027 0.211413 5.03867 0.586371 5.41363C0.961329 5.78859 1.46973 5.99947 2 6V18C1.46973 18.0005 0.961329 18.2114 0.586371 18.5864C0.211413 18.9613 0.000529477 19.4697 0 20V22C0.000529477 22.5303 0.211413 23.0387 0.586371 23.4136C0.961329 23.7886 1.46973 23.9995 2 24H4C4.53027 23.9995 5.03867 23.7886 5.41363 23.4136C5.78859 23.0387 5.99947 22.5303 6 22H18C18.0005 22.5303 18.2114 23.0387 18.5864 23.4136C18.9613 23.7886 19.4697 23.9995 20 24H22C22.5303 23.9995 23.0387 23.7886 23.4136 23.4136C23.7886 23.0387 23.9995 22.5303 24 22V20C23.9995 19.4697 23.7886 18.9613 23.4136 18.5864C23.0387 18.2114 22.5303 18.0005 22 18V6C22.5303 5.99947 23.0387 5.78859 23.4136 5.41363C23.7886 5.03867 23.9995 4.53027 24 4ZM20 2H22L22.0015 4H20V2ZM2 2H4L4.0007 2.9964L4 3L4.0007 3.0037L4.0015 4H2V2ZM2 22V20H4L4.0007 20.9964L4 21L4.0007 21.0037L4.0015 22H2ZM22.0015 22H20V20H22L22.0015 22ZM20 18C19.4697 18.0005 18.9613 18.2114 18.5864 18.5864C18.2114 18.9613 18.0005 19.4697 18 20H6C5.99947 19.4697 5.78859 18.9613 5.41363 18.5864C5.03867 18.2114 4.53027 18.0005 4 18V6C4.53027 5.99947 5.03867 5.78859 5.41363 5.41363C5.78859 5.03867 5.99947 4.53027 6 4H18C18.0005 4.53027 18.2114 5.03867 18.5864 5.41363C18.9613 5.78859 19.4697 5.99947 20 6V18Z" fill="black"/>
</svg>
