<svg width="20" height="22" viewBox="0 0 20 22" fill="none" xmlns="http://www.w3.org/2000/svg">
<path d="M9.83796 10.5975C11.2939 10.5975 12.5544 10.0753 13.5846 9.04506C14.6145 8.01499 15.1369 6.75463 15.1369 5.29856C15.1369 3.843 14.6147 2.58248 13.5845 1.55207C12.5542 0.522169 11.2937 0 9.83796 0C8.3819 0 7.12154 0.522169 6.09147 1.55224C5.0614 2.58231 4.53906 3.84284 4.53906 5.29856C4.53906 6.75463 5.0614 8.01515 6.09147 9.04522C7.12188 10.0751 8.3824 10.5975 9.83796 10.5975ZM7.00321 2.46381C7.7936 1.67343 8.72078 1.28923 9.83796 1.28923C10.955 1.28923 11.8823 1.67343 12.6729 2.46381C13.4633 3.25437 13.8476 4.18172 13.8476 5.29856C13.8476 6.41575 13.4633 7.34293 12.6729 8.13348C11.8823 8.92404 10.955 9.30824 9.83796 9.30824C8.72112 9.30824 7.79393 8.92387 7.00321 8.13348C6.21266 7.3431 5.82829 6.41575 5.82829 5.29856C5.82829 4.18172 6.21266 3.25437 7.00321 2.46381Z" fill="#F0F6F7"/>
<path d="M19.1109 16.9169C19.0812 16.4882 19.0211 16.0206 18.9327 15.5268C18.8434 15.0293 18.7284 14.559 18.5908 14.1291C18.4485 13.6848 18.2553 13.2461 18.0161 12.8256C17.7682 12.3892 17.4768 12.0092 17.1498 11.6965C16.8079 11.3694 16.3893 11.1064 15.9052 10.9145C15.4229 10.7237 14.8883 10.627 14.3164 10.627C14.0918 10.627 13.8746 10.7192 13.4552 10.9923C13.1971 11.1606 12.8951 11.3553 12.5581 11.5707C12.2699 11.7543 11.8795 11.9263 11.3972 12.0821C10.9268 12.2343 10.4491 12.3115 9.97743 12.3115C9.50612 12.3115 9.02843 12.2343 8.55762 12.0821C8.0759 11.9265 7.68532 11.7545 7.39764 11.5708C7.06379 11.3575 6.76167 11.1628 6.49966 10.9921C6.08055 10.719 5.86335 10.6269 5.63878 10.6269C5.06676 10.6269 4.53234 10.7237 4.05011 10.9147C3.56638 11.1062 3.1476 11.3692 2.80537 11.6967C2.4784 12.0096 2.18702 12.3894 1.93928 12.8256C1.70044 13.2461 1.50708 13.6847 1.36474 14.1293C1.22728 14.5592 1.1123 15.0293 1.02301 15.5268C0.934387 16.0199 0.874466 16.4877 0.844757 16.9174C0.815552 17.3375 0.800781 17.7748 0.800781 18.2165C0.800781 19.3649 1.16585 20.2946 1.88574 20.9803C2.59673 21.6569 3.53734 21.9999 4.68155 21.9999H15.2747C16.4185 21.9999 17.3591 21.6569 18.0703 20.9803C18.7904 20.2951 19.1554 19.3651 19.1554 18.2164C19.1553 17.7731 19.1403 17.3358 19.1109 16.9169ZM17.1814 20.0462C16.7116 20.4934 16.0879 20.7107 15.2745 20.7107H4.68155C3.868 20.7107 3.24428 20.4934 2.77465 20.0464C2.31391 19.6078 2.09001 19.0091 2.09001 18.2165C2.09001 17.8043 2.1036 17.3973 2.13079 17.0065C2.15731 16.6232 2.21153 16.202 2.29193 15.7546C2.37132 15.3126 2.47236 14.8979 2.59254 14.5224C2.70785 14.1624 2.86512 13.8059 3.06016 13.4625C3.2463 13.1352 3.46047 12.8543 3.6968 12.6281C3.91785 12.4164 4.19648 12.2432 4.52478 12.1133C4.82842 11.9931 5.16965 11.9273 5.54008 11.9174C5.58523 11.9414 5.66563 11.9873 5.79588 12.0722C6.06091 12.2449 6.36639 12.4419 6.7041 12.6576C7.08477 12.9003 7.57522 13.1195 8.16117 13.3087C8.76021 13.5024 9.37117 13.6008 9.9776 13.6008C10.584 13.6008 11.1952 13.5024 11.7939 13.3089C12.3803 13.1194 12.8706 12.9003 13.2518 12.6573C13.5974 12.4364 13.8943 12.2451 14.1593 12.0722C14.2896 11.9874 14.37 11.9414 14.4151 11.9174C14.7857 11.9273 15.1269 11.9931 15.4307 12.1133C15.7589 12.2432 16.0375 12.4166 16.2586 12.6281C16.4949 12.8542 16.7091 13.135 16.8952 13.4626C17.0904 13.8059 17.2479 14.1625 17.363 14.5222C17.4833 14.8982 17.5845 15.3128 17.6638 15.7544C17.744 16.2027 17.7984 16.624 17.8249 17.0067C17.8523 17.3959 17.866 17.8031 17.8662 18.2165C17.866 19.0093 17.6421 19.6078 17.1814 20.0462Z" fill="#F0F6F7"/>
</svg>
