<svg width="40" height="40" viewBox="0 0 40 40" fill="none" xmlns="http://www.w3.org/2000/svg">
<path d="M0 19.2C0 10.149 0 5.62355 2.81177 2.81177C5.62355 0 10.149 0 19.2 0H20.8C29.851 0 34.3764 0 37.1882 2.81177C40 5.62355 40 10.149 40 19.2V20.8C40 29.851 40 34.3764 37.1882 37.1882C34.3764 40 29.851 40 20.8 40H19.2C10.149 40 5.62355 40 2.81177 37.1882C0 34.3764 0 29.851 0 20.8V19.2Z" fill="white"/>
<path d="M21.2147 28.8C11.9215 28.8 6.62086 22.4937 6.4 12H11.0551C11.208 19.7021 14.6398 22.9646 17.3581 23.6372V12H21.7415V18.6426C24.4258 18.3568 27.2457 15.3297 28.1971 12H32.5805C31.8499 16.1033 28.7918 19.1303 26.6172 20.3748C28.7918 21.3838 32.2748 24.024 33.6 28.8H28.7748C27.7385 25.6048 25.1564 23.1327 21.7415 22.7964V28.8H21.2147Z" fill="#010101"/>
</svg>
