<svg width="22" height="24" viewBox="0 0 22 24" fill="none" xmlns="http://www.w3.org/2000/svg">
<path d="M5.65615 20.6136C4.48044 21.0308 3.84756 21.8202 3.48726 23.2329C3.43037 23.4557 3.10563 23.4557 3.04871 23.2329C2.68843 21.8202 2.05553 21.0308 0.879819 20.6136C0.680685 20.5401 0.680685 20.2581 0.879819 20.187C2.05553 19.7698 2.68843 18.9804 3.04871 17.5677C3.10563 17.3448 3.43037 17.3448 3.48726 17.5677C3.84756 18.9804 4.48044 19.7698 5.65615 20.187C5.85528 20.2581 5.85528 20.5401 5.65615 20.6136Z" fill="black"/>
<path d="M21.1067 16.0402C19.0279 16.6755 18.0015 17.9863 17.4563 20.5084C17.4041 20.7454 17.0652 20.7454 17.0131 20.5084C16.4655 17.9863 15.4415 16.6755 13.3626 16.0402C13.1445 15.9738 13.1445 15.6704 13.3626 15.604C15.4415 14.9688 16.4655 13.6603 17.0131 11.1358C17.0652 10.8988 17.4041 10.8988 17.4563 11.1358C18.0015 13.6603 19.0279 14.9688 21.1067 15.604C21.3248 15.6704 21.3248 15.9738 21.1067 16.0402Z" fill="black"/>
<path d="M12.2265 7.31241C9.32985 8.12783 7.96687 9.88904 7.26287 13.4114C7.21547 13.6509 6.86703 13.6509 6.81963 13.4114C6.1156 9.88904 4.75262 8.12783 1.85837 7.31241C1.63554 7.25078 1.63554 6.94026 1.85837 6.87863C4.75262 6.06321 6.1156 4.302 6.81963 0.779596C6.86703 0.540183 7.21547 0.540183 7.26287 0.779596C7.96687 4.302 9.32985 6.06321 12.2265 6.87863C12.447 6.94026 12.447 7.25078 12.2265 7.31241Z" fill="black"/>
</svg>
