<svg width="20" height="17" viewBox="0 0 20 17" fill="none" xmlns="http://www.w3.org/2000/svg">
<path d="M17.9838 0.349949C17.9838 0.349949 19.7646 -0.344426 19.6162 1.34191C19.5667 2.0363 19.1216 4.46661 18.7753 7.09534L17.5881 14.8823C17.5881 14.8823 17.4892 16.023 16.5988 16.2214C15.7084 16.4198 14.3729 15.5271 14.1255 15.3287C13.9276 15.1799 10.4156 12.9479 9.17894 11.8568C8.83267 11.5592 8.43695 10.964 9.2284 10.2696L14.4223 5.30981C15.0159 4.71462 15.6095 3.32587 13.1362 5.01221L6.211 9.72406C6.211 9.72406 5.41955 10.22 3.93561 9.77365L0.720318 8.78168C0.720318 8.78168 -0.466862 8.03771 1.56124 7.2937C6.50782 4.96257 12.5921 2.58185 17.9838 0.349949Z" fill="black"/>
</svg>
