<svg width="16" height="16" viewBox="0 0 16 16" fill="none" xmlns="http://www.w3.org/2000/svg">
<path fill-rule="evenodd" clip-rule="evenodd" d="M1.71016 11.1998C2.15198 11.1998 2.51016 11.558 2.51016 11.9998V13.5998C2.51016 13.812 2.59443 14.0154 2.74448 14.1655C2.8945 14.3155 3.09797 14.3998 3.31016 14.3998H12.9101C13.1223 14.3998 13.3257 14.3156 13.4758 14.1655C13.6259 14.0154 13.7101 13.812 13.7101 13.5998V11.9998C13.7101 11.558 14.0683 11.1998 14.5101 11.1998C14.952 11.1998 15.3101 11.558 15.3101 11.9998V13.5998C15.3101 14.2363 15.0573 14.8468 14.6072 15.2968C14.1571 15.7469 13.5466 15.9998 12.9101 15.9998H3.31016C2.67365 15.9998 2.06318 15.747 1.61308 15.2968C1.16302 14.8468 0.910156 14.2363 0.910156 13.5998V11.9998C0.910156 11.558 1.26832 11.1998 1.71016 11.1998Z" fill="#F0F6F7"/>
<path fill-rule="evenodd" clip-rule="evenodd" d="M3.54489 6.63422C3.85731 6.3218 4.36384 6.3218 4.67627 6.63422L8.11056 10.0685L11.5449 6.63422C11.8573 6.3218 12.3638 6.3218 12.6762 6.63422C12.9887 6.94662 12.9887 7.45318 12.6762 7.76558L8.67624 11.7656C8.36384 12.078 7.85728 12.078 7.54488 11.7656L3.54489 7.76558C3.23247 7.45318 3.23247 6.94662 3.54489 6.63422Z" fill="#F0F6F7"/>
<path fill-rule="evenodd" clip-rule="evenodd" d="M8.11058 0.799805C8.55242 0.799805 8.91058 1.15798 8.91058 1.5998V11.1998C8.91058 11.6416 8.55242 11.9998 8.11058 11.9998C7.66874 11.9998 7.31058 11.6416 7.31058 11.1998V1.5998C7.31058 1.15798 7.66874 0.799805 8.11058 0.799805Z" fill="#F0F6F7"/>
</svg>
