<svg style="display: none;" aria-hidden="true" xmlns="http://www.w3.org/2000/svg" xmlns:xlink="http://www.w3.org/1999/xlink"><symbol viewBox="0 0 12 10" id="svg-accept"><path d="M11.713.954a.952.952 0 0 0-1.346 0L4.31 7.012 1.617 4.319A.952.952 0 1 0 .271 5.665l3.365 3.366a.949.949 0 0 0 1.347 0l6.73-6.731a.952.952 0 0 0 0-1.346Z"/></symbol><symbol viewBox="0 0 15 38" id="svg-arrow-down"><path fill-rule="evenodd" clip-rule="evenodd" d="m14.23 30.88-6.88 6.88-6.88-6.88 1.06-1.061 5.82 5.82 5.82-5.82 1.06 1.06Z"/><path fill-rule="evenodd" clip-rule="evenodd" d="M6.6 36.7V0h1.5v36.7H6.6Z"/></symbol><symbol viewBox="0 0 38 15" id="svg-arrow-left"><path fill-rule="evenodd" clip-rule="evenodd" d="M7.204.796.5 7.5l6.704 6.705.707-.707-5.997-5.998 5.997-5.995-.707-.708Z"/><path fill-rule="evenodd" clip-rule="evenodd" d="M1.207 8h36.7V7h-36.7v1Z"/></symbol><symbol viewBox="0 0 38 15" id="svg-arrow-right"><path fill-rule="evenodd" clip-rule="evenodd" d="m30.88.47 6.88 6.88-6.88 6.88-1.061-1.06 5.07-5.07H0V6.6h34.889l-5.07-5.07 1.06-1.06Z"/></symbol><symbol viewBox="0 0 21 20" id="svg-attach"><path fill-rule="evenodd" clip-rule="evenodd" d="M19.153 8.253 9.96 17.445a5.5 5.5 0 1 1-7.778-7.778l.707.707a4.5 4.5 0 0 0 6.364 6.364l9.193-9.192.707.707Z"/><path fill-rule="evenodd" clip-rule="evenodd" d="M3.596 11.081 12.79 1.89a4.5 4.5 0 0 1 6.364 6.364l-.707-.707a3.5 3.5 0 0 0-4.95-4.95l-9.192 9.192-.708-.707Z"/><path fill-rule="evenodd" clip-rule="evenodd" d="M4.304 11.788a2.5 2.5 0 1 0 3.535 3.536l.707.707a3.5 3.5 0 0 1-4.95-4.95l.708.707Z"/><path fill-rule="evenodd" clip-rule="evenodd" d="M12.435.828 2.89 10.374l-.707-.707L11.728.121l.707.707Zm5.657 5.657-9.546 9.546-.707-.707 9.546-9.546.707.707Z"/></symbol><symbol viewBox="0 0 18 18" id="svg-close"><path fill-rule="evenodd" clip-rule="evenodd" d="M.793.793a1 1 0 0 1 1.414 0L9 7.586 15.793.793a1 1 0 1 1 1.414 1.414L10.414 9l6.793 6.793a1 1 0 0 1-1.414 1.414L9 10.414l-6.793 6.793a1 1 0 0 1-1.414-1.414L7.586 9 .793 2.207a1 1 0 0 1 0-1.414Z"/></symbol><symbol viewBox="0 0 20 20" id="svg-copy"><path d="M15.895.561A1.916 1.916 0 0 0 14.54 0H9.582a1.917 1.917 0 0 0-1.916 1.917v11.5a1.917 1.917 0 0 0 1.916 1.916h7.667a1.917 1.917 0 0 0 1.917-1.916v-8.79c0-.508-.202-.996-.562-1.355l-2.71-2.71Zm1.834 4.23h-1.437a1.917 1.917 0 0 1-1.917-1.916V1.437h.165c.127 0 .249.051.339.14l2.71 2.711a.476.476 0 0 1 .14.34v.164ZM0 17.25V5.75a1.917 1.917 0 0 1 1.917-1.917H5.75v9.584a3.838 3.838 0 0 0 3.833 3.833H11.5a1.917 1.917 0 0 1-1.917 1.917H1.917A1.917 1.917 0 0 1 0 17.25Z"/></symbol><symbol viewBox="0 0 20 16" id="svg-email"><path d="M11.63 10.516a3.06 3.06 0 0 1-1.637.48c-.56 0-1.118-.153-1.603-.464L.307 5.09a.198.198 0 0 0-.31.166V15c0 .55.448 1 1 1h18c.552 0 1-.45 1-1V5.256a.199.199 0 0 0-.31-.166l-8.056 5.426Z"/><path d="M9.481 8.858a.993.993 0 0 0 1.051-.015l9.379-6.316a.195.195 0 0 0 .087-.165V.999c0-.55-.45-1-1-1H.996c-.551 0-1 .45-1 1v1.363c0 .067.032.13.087.165L9.48 8.858Z"/></symbol><symbol viewBox="0 0 20 15" id="svg-eye"><path d="M19.85 6.817C19.12 5.217 16.25 0 10 0S.88 5.218.15 6.817a1.64 1.64 0 0 0 0 1.367C.88 9.783 3.75 15 10 15s9.12-5.217 9.85-6.818a1.639 1.639 0 0 0 0-1.365ZM10 13.334c-5.256 0-7.708-4.471-8.333-5.824C2.292 6.14 4.744 1.667 10 1.667c5.243 0 7.697 4.452 8.333 5.833-.636 1.38-3.09 5.833-8.333 5.833Z"/><path d="M10 3.334a4.167 4.167 0 1 0 0 8.333 4.167 4.167 0 0 0 0-8.333ZM10 10a2.5 2.5 0 1 1 0-5 2.5 2.5 0 0 1 0 5Z"/></symbol><symbol viewBox="0 0 18 16" id="svg-eye-line"><path fill-rule="evenodd" clip-rule="evenodd" d="M1.949.968a.659.659 0 0 0 0 .932l1.665 1.665A9.488 9.488 0 0 0 .28 7.713a.807.807 0 0 0 0 .616c1.417 3.429 4.789 5.84 8.722 5.84a9.38 9.38 0 0 0 4.22-.996l1.9 1.901a.659.659 0 1 0 .933-.931L2.88.968a.659.659 0 0 0-.931 0Zm2.614 3.546A8.167 8.167 0 0 0 1.58 8.02a8.12 8.12 0 0 0 10.65 4.161l-1.097-1.097A3.733 3.733 0 0 1 5.938 5.89L4.563 4.514Zm2.33 2.33a2.415 2.415 0 0 0 3.287 3.287L6.891 6.843Z"/><path d="M15.538 11.533a.622.622 0 0 1-.873-.022c-.273-.273-.25-.72.026-.991a8.16 8.16 0 0 0 1.731-2.499 8.12 8.12 0 0 0-9.345-4.6.723.723 0 0 1-.685-.183c-.351-.351-.222-.946.26-1.07a9.435 9.435 0 0 1 2.35-.295c3.933 0 7.304 2.412 8.721 5.84a.807.807 0 0 1 0 .616 9.475 9.475 0 0 1-2.185 3.204Z"/><path d="M12.73 8.189c-.024.553-.679.708-1.07.317l-.09-.09a.553.553 0 0 1-.153-.395 2.415 2.415 0 0 0-2.415-2.415.553.553 0 0 1-.395-.153l-.09-.09c-.391-.391-.236-1.046.317-1.07a3.733 3.733 0 0 1 3.897 3.897Z"/></symbol><symbol viewBox="0 0 15 18" id="svg-ruble"><path d="M12.44 1.409C11.324.469 9.507 0 6.989 0H0v.802l2.23.21c.02 1.072.036 2.143.036 3.215v5.635H0v.875h2.266v1.749H0v.874h2.266v.486c0 1.054-.017 2.099-.035 3.142L0 17.198V18h8.262v-.802l-2.585-.239-.035-3.089v-.51h2.266v-.874H5.642v-1.75h1.062c1.794 0 3.234-.242 4.32-.728 1.102-.486 1.897-1.134 2.385-1.943.488-.826.731-1.741.731-2.745 0-1.668-.566-2.972-1.7-3.911Zm-1.935 6.267A3.456 3.456 0 0 1 9.089 9.28c-.63.389-1.448.583-2.455.583h-.992v-5.66L5.679.9H6.94c1.354 0 2.361.372 3.022 1.117.677.745 1.015 1.838 1.015 3.28 0 .906-.157 1.7-.472 2.38Z"/></symbol><symbol viewBox="0 0 40 40" id="svg-social-tg-white"><g clip-path="url(#la)"><path d="M20 40c11.046 0 20-8.954 20-20S31.046 0 20 0 0 8.954 0 20s8.954 20 20 20Z"/><path fill-rule="evenodd" clip-rule="evenodd" d="M9.053 19.789c5.83-2.54 9.718-4.215 11.664-5.024 5.554-2.31 6.708-2.712 7.46-2.725.166-.003.536.038.775.233.203.164.258.386.285.541.027.156.06.51.033.788-.3 3.162-1.603 10.837-2.265 14.379-.28 1.498-.833 2-1.367 2.05-1.162.107-2.044-.767-3.169-1.505-1.76-1.154-2.754-1.872-4.463-2.998-1.975-1.301-.695-2.016.43-3.185.295-.306 5.413-4.96 5.512-5.383.012-.053.024-.25-.093-.354-.117-.104-.29-.068-.415-.04-.176.04-2.988 1.899-8.436 5.576-.798.548-1.52.815-2.168.801-.715-.015-2.088-.403-3.11-.735-1.252-.407-2.247-.623-2.16-1.314.044-.36.54-.729 1.487-1.105Z"/></g><defs><linearGradient id="lb" x1="20" y1="0" x2="20" y2="39.703" gradientUnits="userSpaceOnUse"><stop stop-color="#fff"/><stop offset="1" stop-color="#fff"/></linearGradient><clipPath id="la"><rect width="40" height="40"/></clipPath></defs></symbol><symbol viewBox="0 0 40 40" id="svg-social-vk-white"><path d="M0 19.2C0 10.149 0 5.624 2.812 2.812 5.624 0 10.149 0 19.2 0h1.6c9.051 0 13.576 0 16.388 2.812C40 5.624 40 10.149 40 19.2v1.6c0 9.051 0 13.576-2.812 16.388C34.376 40 29.851 40 20.8 40h-1.6c-9.051 0-13.576 0-16.388-2.812C0 34.376 0 29.851 0 20.8v-1.6Z"/><path d="M21.215 28.8C11.922 28.8 6.62 22.494 6.4 12h4.655c.153 7.702 3.585 10.965 6.303 11.637V12h4.383v6.643c2.685-.286 5.505-3.313 6.456-6.643h4.384c-.731 4.103-3.79 7.13-5.964 8.375 2.175 1.009 5.658 3.649 6.983 8.425h-4.825c-1.037-3.195-3.619-5.667-7.034-6.004V28.8h-.526Z"/></symbol><symbol viewBox="0 0 20 17" id="svg-telegram"><path d="M17.984.35s1.78-.694 1.632.992c-.05.694-.494 3.125-.84 5.753l-1.188 7.787s-.099 1.141-.99 1.34c-.89.198-2.225-.695-2.472-.893-.198-.15-3.71-2.381-4.947-3.472-.346-.298-.742-.893.05-1.587l5.193-4.96c.594-.595 1.188-1.984-1.286-.298L6.211 9.724s-.791.496-2.275.05L.72 8.782s-1.187-.744.841-1.488C6.508 4.963 12.592 2.582 17.984.35Z"/></symbol><symbol viewBox="0 0 16 16" id="svg-upload"><path fill-rule="evenodd" clip-rule="evenodd" d="M1.71 11.2a.8.8 0 0 1 .8.8v1.6a.8.8 0 0 0 .8.8h9.6a.8.8 0 0 0 .8-.8V12a.8.8 0 0 1 1.6 0v1.6a2.4 2.4 0 0 1-2.4 2.4h-9.6a2.4 2.4 0 0 1-2.4-2.4V12a.8.8 0 0 1 .8-.8Z"/><path fill-rule="evenodd" clip-rule="evenodd" d="M3.545 6.634a.8.8 0 0 1 1.131 0l3.435 3.434 3.434-3.434a.8.8 0 1 1 1.131 1.132l-4 4a.8.8 0 0 1-1.131 0l-4-4a.8.8 0 0 1 0-1.132Z"/><path fill-rule="evenodd" clip-rule="evenodd" d="M8.11.8a.8.8 0 0 1 .8.8v9.6a.8.8 0 0 1-1.6 0V1.6a.8.8 0 0 1 .8-.8Z"/></symbol></svg>