<svg width="302" height="36" viewBox="0 0 302 36" fill="none" xmlns="http://www.w3.org/2000/svg">
<g clip-path="url(#clip0_145_426)">
<path d="M26.5976 23.9081C22.5813 30.9447 14.7429 33.974 9.09052 30.6725C3.43757 27.3716 2.11217 18.9903 6.1284 11.9537C10.1452 4.91709 17.9831 1.88771 23.6355 5.18922C29.2878 8.49017 30.6138 16.8709 26.5976 23.9081ZM16.3627 1.37939C7.32577 1.37939 0 8.78968 0 17.9309C0 27.0721 7.32577 34.4829 16.3627 34.4829C25.3996 34.4829 32.7254 27.0721 32.7254 17.9309C32.7254 8.78968 25.3996 1.37939 16.3627 1.37939Z" fill="white"/>
<path d="M67.1234 1.83911H62.5781V34.0236H76.2145V32.1843H67.1239L67.1234 1.83911Z" fill="white"/>
<path d="M54.701 28.0658L39.7314 1.83911H36.0654V34.0236H37.8832V7.79632L52.8528 34.023H56.5188V1.83911H54.701V28.0658Z" fill="white"/>
<path d="M94.0588 1.83911H92.1001L85.9288 17.4236L79.757 1.83911H74.8604L82.1889 20.3451V34.0236H86.7342V20.3451H86.7302L94.0588 1.83911Z" fill="white"/>
<path d="M111.138 1.83932V34.0238H115.683V18.8512H121.138V17.0119H115.683V3.67805H124.773V1.83875L111.138 1.83932Z" fill="white"/>
<path d="M133.349 1.83911H128.804V34.0236H133.349V1.83911Z" fill="white"/>
<path d="M157.353 28.0658L142.384 1.83911H138.718V34.0236H140.536V7.79632L155.505 34.023H159.172V1.83911H157.353V28.0658Z" fill="white"/>
<path d="M205.626 28.0658L190.657 1.83911H186.99V34.0236H188.808V7.79632L203.778 34.023H207.444V1.83911H205.626V28.0658Z" fill="white"/>
<path d="M167.08 25.0575L171.865 5.62156L176.7 25.0575H167.08ZM170.924 1.83911L163 34.0236H164.874L166.628 26.8968H177.159L178.931 34.0236H183.618L175.611 1.83911H170.924Z" fill="white"/>
<path d="M237.695 23.908C233.679 30.9446 225.84 33.974 220.188 30.6725C214.536 27.3716 213.21 18.9903 217.226 11.9537C221.242 4.91648 229.081 1.88767 234.733 5.18919C238.15 7.18481 239.983 11.0374 240.014 15.3265H243.621C242.386 7.42271 235.622 1.37878 227.461 1.37878C218.424 1.37878 211.099 8.78964 211.099 17.9308C211.099 27.072 218.424 34.4829 227.461 34.4829C235.831 34.4829 242.728 28.1252 243.702 19.9248H239.376C238.992 21.2711 238.435 22.6124 237.695 23.908Z" fill="white"/>
<path d="M261.093 3.67805V1.83875H247.457V34.0232H261.093V32.1839H252.002V18.8506H257.457V17.0113H252.002V3.67805H261.093Z" fill="white"/>
<path d="M302 -0.00012207H288.364V35.8624H302V-0.00012207Z" fill="white"/>
</g>
<defs>
<clipPath id="clip0_145_426">
<rect width="302" height="35.8625" fill="white"/>
</clipPath>
</defs>
</svg>
