<svg width="24" height="25" viewBox="0 0 24 25" fill="none" xmlns="http://www.w3.org/2000/svg">
<path d="M0.131917 14.1495C0.0192816 13.5922 0.00195312 12.4345 0.00195312 7.04947V0.618271H24.002V7.02375C24.002 11.1397 23.9673 13.6265 23.9153 13.9523C23.8633 14.2353 23.742 14.7412 23.6381 15.067C23.5427 15.3929 23.3088 15.976 23.1182 16.3533C22.9276 16.7306 22.607 17.2708 22.3991 17.5538C22.1998 17.8367 21.7579 18.3255 21.4373 18.6428C21.1081 18.9601 20.6229 19.3717 20.363 19.5517C20.103 19.7404 19.0893 20.3406 18.1103 20.898C17.1312 21.4554 15.3724 22.4672 14.194 23.1446C13.007 23.8221 12.0366 24.3708 12.0279 24.3708C12.0106 24.3708 11.1615 23.8992 10.1391 23.3161C9.11675 22.733 7.47921 21.7984 6.50015 21.241C5.52109 20.6836 4.45538 20.0662 4.12614 19.8776C3.7969 19.6804 3.17307 19.2002 2.74852 18.7971C2.32397 18.3941 1.80412 17.8367 1.60484 17.5538C1.3969 17.2708 1.09365 16.7649 0.929029 16.439C0.764408 16.1132 0.547801 15.6073 0.44383 15.3243C0.348524 15.0413 0.201231 14.5097 0.131917 14.1495Z" fill="#F7D62C"/>
<path d="M6.57002 8.73879C6.56135 7.7784 6.58735 6.96378 6.63067 6.93806C6.67399 6.90376 9.11731 6.87803 17.4177 6.87803V10.651L17.0451 10.3509C16.8285 10.1708 16.4559 9.97358 16.118 9.87068C15.7108 9.75064 15.3036 9.70776 13.7787 9.70776V12.2545C13.7787 14.2525 13.8047 14.9127 13.9086 15.2986C13.978 15.573 14.1339 15.9846 14.4718 16.6535H9.5332L9.78446 16.1561C9.92309 15.8903 10.079 15.4615 10.131 15.2214C10.1917 14.947 10.2263 13.738 10.2263 9.70776L9.16063 9.73349C8.1989 9.75064 8.05161 9.77636 7.54908 10.0079C7.24583 10.1537 6.93392 10.3337 6.85594 10.4109C6.77796 10.4967 6.69132 10.5395 6.648 10.5224C6.61334 10.4967 6.57868 9.69061 6.57002 8.73879Z" fill="#313131"/>
</svg>
