<?xml version="1.0" standalone="no"?>
<!DOCTYPE svg PUBLIC "-//W3C//DTD SVG 20010904//EN"
 "http://www.w3.org/TR/2001/REC-SVG-20010904/DTD/svg10.dtd">
<svg version="1.0" xmlns="http://www.w3.org/2000/svg"
 width="260.000000pt" height="260.000000pt" viewBox="0 0 260.000000 260.000000"
 preserveAspectRatio="xMidYMid meet">
<metadata>
Created by potrace 1.14, written by Peter Selinger 2001-2017
</metadata>
<g transform="translate(0.000000,260.000000) scale(0.100000,-0.100000)"
fill="#000000" stroke="none">
<path d="M200 2516 c0 -46 3 -91 6 -100 5 -13 24 -16 99 -16 l93 0 4 -65 3
-64 -41 -16 c-23 -9 -58 -28 -79 -44 -32 -24 -41 -26 -61 -17 -22 10 -24 17
-24 93 0 117 4 113 -106 113 l-94 0 0 -100 0 -100 98 0 c69 0 104 -4 118 -14
10 -8 16 -18 11 -22 -4 -4 -7 -2 -7 4 0 7 -4 12 -9 12 -5 0 -9 -16 -9 -35 0
-20 -4 -41 -10 -48 -5 -6 -16 -31 -23 -54 l-12 -43 -79 0 -78 0 0 -100 0 -100
80 0 80 0 0 -100 0 -100 -80 0 -80 0 0 -100 0 -100 80 0 80 0 0 -100 0 -100
-80 0 -80 0 0 -100 0 -100 80 0 80 0 0 -100 0 -100 -80 0 -80 0 0 -100 0 -100
78 0 79 0 12 -43 c7 -23 21 -59 31 -80 10 -20 14 -35 9 -31 -10 6 -12 -7 -3
-30 3 -9 13 -16 21 -16 8 0 11 4 8 10 -3 5 -1 10 4 10 6 0 11 -3 11 -8 0 -8 2
-9 93 -57 l57 -29 0 -63 0 -63 -100 0 -100 0 0 80 c0 57 -4 80 -12 80 -10 0
-9 3 1 9 31 20 -3 31 -95 31 l-94 0 0 -100 0 -100 100 0 99 0 3 -97 3 -98 98
-3 97 -3 0 101 0 100 100 0 99 0 3 -97 3 -98 98 -3 97 -3 0 101 0 100 100 0
99 0 3 -97 3 -98 98 -3 97 -3 0 101 0 100 100 0 99 0 3 -97 3 -98 98 -3 97 -3
0 101 0 100 100 0 99 0 3 -97 3 -98 98 -3 97 -3 0 101 0 100 100 0 99 0 3 -97
3 -98 98 -3 97 -3 0 101 0 100 100 0 100 0 0 100 0 100 -100 0 -100 0 0 100 0
100 100 0 100 0 0 100 0 100 -100 0 -100 0 0 100 0 100 100 0 100 0 0 100 0
100 -100 0 -100 0 0 100 0 100 100 0 100 0 0 100 0 100 -100 0 -100 0 0 100 0
100 100 0 100 0 0 100 0 100 -100 0 -100 0 0 100 0 100 100 0 100 0 0 100 0
100 -100 0 -100 0 0 100 0 100 -100 0 -100 0 0 -84 c0 -46 3 -91 6 -100 5 -13
24 -16 100 -16 l94 0 0 -99 0 -99 -61 -4 -60 -3 -18 40 c-10 22 -28 49 -40 59
-12 11 -21 31 -21 47 0 42 -10 59 -34 59 -17 0 -18 -2 -6 -10 12 -7 10 -9 -7
-7 -12 0 -20 3 -17 6 6 6 -96 50 -118 51 -16 0 -18 11 -18 80 l0 80 -100 0
-100 0 0 -93 c0 -52 3 -97 7 -100 3 -4 17 3 30 15 12 12 26 18 30 15 3 -4 1
-7 -6 -7 -7 0 -10 -4 -6 -9 7 -13 -50 -78 -76 -86 -11 -4 -16 -11 -13 -17 4
-7 2 -8 -5 -4 -6 4 -9 11 -6 16 3 4 -1 11 -7 14 -7 3 -4 5 7 5 11 -1 26 -1 33
0 14 1 16 37 2 46 -6 3 -10 1 -10 -4 0 -6 -5 -11 -11 -11 -5 0 -7 5 -4 10 4 6
-25 10 -79 10 l-86 0 0 100 0 100 -100 0 -100 0 0 -84 c0 -46 3 -91 6 -100 5
-13 24 -16 100 -16 l94 0 1 -72 c0 -40 2 -83 3 -96 3 -27 -4 -33 -43 -34 -19
-1 -28 -5 -24 -13 2 -7 0 -16 -5 -19 -5 -3 -9 2 -8 12 1 13 -9 18 -37 22 l-39
5 31 29 c17 17 31 33 31 38 0 4 -25 8 -55 8 l-55 0 0 44 c0 76 -1 76 -106 76
l-94 0 0 100 0 100 -100 0 -100 0 0 -84 c0 -46 3 -91 6 -100 5 -13 24 -16 100
-16 l94 0 0 -60 0 -60 -100 0 -100 0 0 44 c0 76 -1 76 -106 76 l-94 0 0 100 0
100 -100 0 -100 0 0 -84 c0 -46 3 -91 6 -100 5 -13 24 -16 100 -16 l94 0 0
-60 0 -60 -100 0 -100 0 0 44 c0 76 -1 76 -106 76 l-94 0 0 100 0 100 -100 0
-100 0 0 -84z m1508 -163 c-10 -2 -18 -12 -18 -20 0 -9 -3 -14 -6 -10 -12 11
5 37 23 36 17 -1 17 -2 1 -6z m12 -17 c0 -3 -4 -8 -10 -11 -5 -3 -10 -1 -10 4
0 6 5 11 10 11 6 0 10 -2 10 -4z m20 -10 c0 -2 -8 -10 -17 -17 -16 -13 -17
-12 -4 4 13 16 21 21 21 13z m-27 -51 c-3 -9 -8 -14 -10 -11 -3 3 -2 9 2 15 9
16 15 13 8 -4z m-77 -21 c-4 -9 -9 -15 -11 -12 -3 3 -3 13 1 22 4 9 9 15 11
12 3 -3 3 -13 -1 -22z m24 -3 c-14 -27 -13 -31 8 -24 9 3 -3 -15 -28 -41 -43
-45 -58 -57 -45 -36 3 6 1 10 -4 10 -6 0 -11 -4 -11 -10 0 -5 -5 -10 -11 -10
-8 0 -8 5 1 15 15 18 0 20 -20 3 -12 -11 -12 -10 -1 5 9 11 21 15 33 11 12 -4
18 -1 16 8 -2 8 8 14 25 16 24 3 40 22 18 22 -5 0 -4 11 2 25 7 14 16 25 20
25 4 0 3 -9 -3 -19z m342 2 c9 -41 -3 -53 -50 -53 l-46 0 34 35 c37 39 57 44
62 18z m32 -31 c3 -5 -1 -9 -9 -9 -8 0 -12 4 -9 9 3 4 7 8 9 8 2 0 6 -4 9 -8z
m76 -74 c0 -10 -100 -118 -109 -118 -3 0 -5 38 -3 84 3 83 4 85 30 88 26 4 82
-34 82 -54z m-229 9 c-10 -9 -11 -8 -5 6 3 10 9 15 12 12 3 -3 0 -11 -7 -18z
m-467 -23 c3 -8 2 -12 -4 -9 -6 4 -10 -14 -10 -47 0 -54 9 -80 26 -77 22 4 23
-3 8 -26 -9 -14 -26 -31 -38 -37 -17 -9 -19 -8 -8 3 17 18 15 46 -4 53 -9 3
-54 6 -101 6 l-85 0 2 -82 c3 -115 2 -118 -17 -118 -15 0 -16 -2 -3 -10 8 -5
10 -10 5 -10 -6 0 -16 5 -23 12 -8 8 -15 8 -28 -3 -12 -9 -15 -10 -10 -1 5 9
-9 12 -58 12 l-66 0 0 -84 c0 -46 3 -91 6 -100 9 -24 53 -20 65 7 9 21 9 21 4
-3 -30 -148 -50 -220 -62 -220 -10 0 -13 21 -13 84 0 46 -3 91 -6 100 -5 13
-24 16 -100 16 l-94 0 0 -101 0 -100 95 2 c53 1 99 -1 102 -5 11 -11 5 -106
-9 -155 l-13 -44 -88 2 -87 2 0 -100 0 -101 100 0 100 0 0 60 c0 60 -10 75
-29 43 -6 -10 -11 -13 -11 -7 0 20 23 31 115 53 118 28 166 35 143 21 -15 -9
-18 -25 -18 -90 l0 -80 100 0 100 0 0 78 c0 73 -2 80 -25 92 -13 7 -22 17 -19
22 3 4 -2 8 -10 8 -9 0 -16 -6 -16 -12 0 -9 -3 -8 -10 2 -7 12 0 17 38 27 39
10 48 10 55 -2 6 -11 30 -15 97 -15 l90 0 0 76 c0 47 -4 73 -10 69 -5 -3 -10
-1 -10 4 0 6 5 11 10 11 6 0 10 9 10 20 0 15 7 20 26 20 17 0 23 4 18 13 -6 9
-4 9 7 1 8 -6 44 -12 81 -13 l67 -2 -1 89 -1 90 47 46 c29 28 52 43 59 39 7
-5 21 -8 31 -8 11 0 21 -6 23 -12 3 -7 0 -13 -7 -13 -6 0 -8 5 -5 10 8 13 -1
13 -27 -1 -13 -7 -18 -7 -14 -1 8 13 -7 23 -19 14 -6 -4 -18 -17 -28 -28 l-18
-22 63 0 c115 0 118 -2 68 -59 -26 -29 -30 -42 -30 -88 l0 -55 -70 0 -70 0 0
-87 c0 -49 4 -94 9 -102 6 -10 25 -12 70 -9 l61 4 0 -103 0 -103 -70 0 -70 0
0 -87 c0 -49 4 -94 9 -102 6 -10 25 -12 70 -9 l61 4 0 -103 c0 -66 -4 -103
-11 -103 -5 0 -8 -4 -5 -8 3 -5 -1 -9 -9 -9 -8 0 -12 4 -9 8 2 4 -21 8 -52 8
l-55 0 1 -42 c1 -23 1 -48 1 -54 -1 -10 -28 -13 -101 -13 l-100 0 0 55 0 55
-100 0 -100 0 0 -55 0 -55 -100 0 -100 0 0 55 0 55 -100 0 -100 0 0 -55 0 -55
-100 0 -100 0 0 55 0 55 -100 0 -100 0 0 -55 0 -55 -57 0 c-77 0 -134 17 -140
41 -3 10 -9 17 -13 14 -5 -3 -11 -1 -14 4 -4 5 -1 13 5 17 8 5 9 3 4 -6 -5 -9
-4 -11 4 -6 6 4 10 15 9 24 -3 15 10 17 100 20 l102 3 0 84 c0 46 -3 90 -6 99
-5 13 -24 16 -100 16 l-94 0 0 100 0 100 -35 0 -35 0 0 100 0 100 35 0 35 0 0
-100 0 -100 100 0 100 0 0 84 c0 46 -3 91 -6 100 -5 13 -24 16 -100 16 l-94 0
0 100 0 100 -35 0 -35 0 0 100 0 100 35 0 35 0 0 -100 0 -100 100 0 100 0 0
84 c0 46 -3 91 -6 100 -5 13 -24 16 -100 16 l-94 0 0 100 0 100 -35 0 -35 0 0
88 c0 92 3 100 37 119 29 16 33 3 33 -113 l0 -94 100 0 100 0 0 84 c0 46 -3
91 -6 100 -5 13 -24 16 -100 16 -68 0 -94 3 -95 13 -1 6 -3 22 -4 35 -4 36 35
55 126 60 l79 5 0 -41 c0 -71 1 -72 106 -72 l94 0 0 55 0 55 100 0 100 0 0
-39 c0 -70 2 -71 106 -71 l94 0 0 55 0 55 78 0 c66 0 82 3 97 20 22 24 31 25
39 4z m428 -13 c-8 -4 -13 -12 -13 -17 1 -5 -5 -9 -11 -9 -15 0 -22 -37 -14
-71 6 -22 11 -24 67 -24 50 0 60 3 56 15 -4 8 -1 17 5 21 6 4 8 3 4 -4 -3 -6
3 -17 13 -24 19 -14 17 -18 -52 -84 -78 -76 -116 -108 -103 -86 4 7 2 20 -6
29 -9 12 -9 15 0 9 9 -5 12 6 12 46 0 69 -8 80 -53 74 -20 -2 -37 -2 -37 2 0
11 124 132 135 132 5 0 4 -4 -3 -9z m-388 -31 c-6 -6 -10 -3 -10 10 0 13 4 16
10 10 7 -7 7 -13 0 -20z m72 21 c-4 -5 -1 -11 6 -13 8 -3 6 -6 -4 -10 -11 -5
-15 -2 -13 10 5 23 4 22 11 22 3 0 3 -4 0 -9z m-36 -15 c0 -2 -7 -9 -15 -16
-13 -11 -14 -10 -9 4 5 14 24 23 24 12z m825 -16 c3 -5 1 -10 -4 -10 -6 0 -11
5 -11 10 0 6 2 10 4 10 3 0 8 -4 11 -10z m-803 -14 c7 4 8 2 4 -4 -4 -6 -13
-9 -21 -6 -8 4 -12 11 -8 17 5 8 8 7 11 -1 2 -7 9 -9 14 -6z m313 -15 c3 -5 2
-12 -3 -15 -5 -3 -9 1 -9 9 0 17 3 19 12 6z m-335 -15 c0 -2 -8 -10 -17 -17
-16 -13 -17 -12 -4 4 13 16 21 21 21 13z m478 -10 c-7 -8 -15 -12 -17 -11 -5
6 10 25 20 25 5 0 4 -6 -3 -14z m302 10 c0 -2 -8 -10 -17 -17 -16 -13 -17 -12
-4 4 13 16 21 21 21 13z m130 -137 l0 -99 -100 0 -100 0 0 -84 c0 -46 3 -91 6
-100 5 -13 24 -16 100 -16 l94 0 0 -100 0 -100 -100 0 -100 0 0 -84 c0 -46 3
-91 6 -100 5 -13 24 -16 100 -16 l94 0 0 -100 0 -100 -100 0 -100 0 0 -84 c0
-46 3 -91 6 -100 5 -13 24 -16 100 -16 l94 0 0 -100 0 -100 -100 0 -100 0 0
-84 c0 -46 3 -91 6 -100 5 -13 24 -16 100 -16 l94 0 0 -100 0 -100 -100 0
-100 0 0 88 c0 48 -4 93 -9 100 -6 10 -31 13 -95 10 -47 -2 -86 -2 -86 -1 0 2
16 24 36 50 38 50 52 79 63 128 6 28 9 29 49 27 l42 -4 0 85 c0 108 -4 117
-46 117 l-34 0 0 100 0 100 40 0 40 0 0 84 c0 107 -4 116 -46 116 l-34 0 0
100 0 100 40 0 40 0 0 84 c0 107 -4 116 -46 116 -32 0 -34 2 -34 35 0 19 -3
35 -6 35 -3 0 -24 -16 -47 -35 -60 -51 -67 -47 -67 35 0 39 -4 70 -10 70 -5 0
-7 -8 -4 -17 5 -15 4 -16 -5 -3 -8 11 -7 18 3 25 8 6 15 19 17 30 3 12 14 21
27 23 14 2 20 8 16 15 -5 8 -2 8 7 0 7 -7 33 -13 59 -13 42 1 43 2 22 14 -21
11 -22 14 -7 26 13 11 15 10 9 -5 -5 -12 -4 -16 3 -12 6 4 13 0 17 -8 3 -8 15
-15 26 -15 19 0 21 5 19 65 -1 35 -6 62 -10 59 -5 -3 -9 0 -9 6 0 6 -4 9 -9 5
-6 -3 -8 -14 -6 -25 2 -12 0 -18 -5 -15 -20 13 4 57 27 48 12 -5 15 -2 10 9
-6 18 18 44 47 49 10 2 49 3 87 1 l69 -4 0 -99z m-638 79 c-13 -13 -64 -20
-56 -7 2 4 13 6 24 4 11 -2 20 0 20 6 0 5 5 9 12 9 9 0 9 -3 0 -12z m-442 -24
c0 0 -8 -8 -18 -17 -16 -15 -18 -15 -18 1 0 10 8 18 18 18 10 0 18 -1 18 -2z
m46 -16 c-2 -33 -14 -48 -33 -41 -14 5 -13 9 7 25 12 10 19 18 16 18 -4 0 -4
5 -1 10 9 15 12 12 11 -12z m-36 -2 c0 -2 -8 -10 -17 -17 -16 -13 -17 -12 -4
4 13 16 21 21 21 13z m315 -6 c-3 -5 -2 -10 3 -10 6 0 13 -8 16 -17 6 -15 4
-15 -14 2 -20 18 -29 8 -10 -11 7 -7 6 -11 -3 -11 -16 0 -19 27 -4 45 11 14
21 16 12 2z m36 -132 l80 -3 -83 -82 -83 -83 3 85 3 85 -47 0 -48 0 44 46 45
45 3 -45 3 -45 80 -3z m-379 64 c-4 -11 -1 -13 8 -7 9 5 11 4 6 -4 -4 -6 -11
-9 -16 -6 -11 7 -40 -5 -40 -17 0 -5 6 -6 13 -2 14 9 -4 -17 -42 -59 -16 -18
-27 -23 -32 -16 -8 14 11 75 20 62 3 -4 18 4 33 20 15 15 21 27 15 27 -8 0 -8
3 1 8 21 14 41 10 34 -6z m800 -22 c-12 -10 -19 -20 -17 -22 3 -3 -1 -5 -9 -5
-7 0 -13 6 -12 13 3 22 27 43 43 37 14 -5 13 -9 -5 -23z m-852 16 c0 -2 -8
-10 -17 -17 -16 -13 -17 -12 -4 4 13 16 21 21 21 13z m-114 -111 c-9 -23 6
-25 26 -2 l19 22 -17 -28 c-12 -19 -20 -25 -27 -18 -13 13 -17 52 -5 45 5 -4
7 -12 4 -19z m370 3 c4 -7 3 -8 -4 -4 -7 4 -12 2 -12 -3 0 -6 -4 -11 -10 -11
-5 0 -7 7 -4 15 7 18 20 19 30 3z m434 -43 c-27 -28 -17 -34 14 -8 20 16 20
16 0 -6 -13 -13 -27 -20 -34 -16 -8 5 -5 14 11 31 12 13 25 24 27 24 3 0 -5
-11 -18 -25z m-840 5 c0 -5 -5 -10 -11 -10 -5 0 -7 5 -4 10 3 6 8 10 11 10 2
0 4 -4 4 -10z m337 -32 c1 -23 -1 -37 -5 -31 -12 20 -35 -2 -27 -26 6 -19 14
-21 74 -21 60 0 71 3 85 23 16 21 16 21 2 -8 -19 -39 -166 -184 -167 -165 0 8
0 40 0 70 2 66 -5 77 -47 82 l-32 3 41 40 c22 22 48 48 57 58 9 9 17 17 17 17
0 0 1 -19 2 -42z m-367 12 c0 -5 -4 -10 -9 -10 -6 0 -13 5 -16 10 -3 6 1 10 9
10 9 0 16 -4 16 -10z m43 -21 c4 -3 2 -11 -5 -17 -10 -8 -13 -5 -14 15 -1 13
1 21 5 16 3 -4 10 -10 14 -14z m240 -92 c3 -8 -1 -14 -8 -14 -7 0 -11 6 -8 14
3 7 6 13 8 13 2 0 5 -6 8 -13z m437 -20 c0 -2 -10 -12 -22 -23 l-23 -19 19 23
c18 21 26 27 26 19z m-510 -23 c0 -8 -19 -13 -24 -6 -3 5 1 9 9 9 8 0 15 -2
15 -3z m485 -34 c-3 -5 -1 -10 6 -10 7 0 10 -3 6 -6 -9 -9 -28 6 -22 17 4 5 8
9 11 9 3 0 2 -4 -1 -10z m-532 -25 c-3 -9 -8 -14 -10 -11 -3 3 -2 9 2 15 9 16
15 13 8 -4z m142 -35 c1 -10 -2 -17 -6 -14 -4 2 -7 13 -6 24 2 23 10 17 12
-10z m355 10 c0 -5 -9 -14 -20 -20 -14 -7 -20 -7 -20 0 0 5 7 10 15 10 8 0 15
5 15 10 0 6 2 10 5 10 3 0 5 -4 5 -10z m-57 -25 c-7 -21 -12 -19 -10 4 0 11 5
18 9 15 4 -3 5 -11 1 -19z m-706 -7 c-3 -8 -6 -5 -6 6 -1 11 2 17 5 13 3 -3 4
-12 1 -19z m318 -39 c-38 -10 -73 -19 -77 -19 -8 0 -11 34 -4 41 2 2 37 2 78
0 l73 -4 -70 -18z m-885 -677 c0 -96 -8 -122 -35 -122 -22 0 -35 51 -35 135
l0 85 35 0 35 0 0 -98z m1477 -148 c0 -7 -6 -10 -14 -7 -7 3 -13 8 -13 12 0 4
6 8 13 8 8 0 14 -6 14 -13z m123 -259 l0 -95 -100 0 -100 0 0 45 c0 25 -5 45
-11 45 -28 0 22 27 71 38 30 7 73 23 95 37 22 13 41 25 43 25 1 0 2 -43 2 -95z
m61 78 c13 -17 12 -17 -4 -4 -16 13 -20 13 -28 0 -5 -8 -9 -9 -9 -3 0 27 22
31 41 7z m-1508 -60 c-13 -2 -35 -2 -50 0 -16 2 -5 4 22 4 28 0 40 -2 28 -4z
m335 0 l-88 -4 0 -54 0 -55 -100 0 -100 0 0 54 c0 34 -5 56 -12 59 -7 3 77 5
187 4 110 -1 161 -3 113 -4z m400 0 l-88 -4 0 -54 0 -55 -100 0 -100 0 0 54
c0 34 -5 56 -12 59 -7 3 77 5 187 4 110 -1 161 -3 113 -4z m475 0 c3 -5 -33
-7 -79 -5 l-84 3 0 -55 0 -56 -100 0 -100 0 0 54 c0 34 -5 56 -12 59 -7 3 73
6 179 6 105 1 194 -2 196 -6z"/>
<path d="M800 1900 l0 -100 -100 0 -100 0 0 -84 c0 -46 3 -91 6 -100 5 -13 24
-16 100 -16 l94 0 0 100 0 100 100 0 100 0 0 84 c0 46 -3 91 -6 100 -5 13 -24
16 -100 16 l-94 0 0 -100z"/>
<path d="M600 1316 c0 -46 3 -91 6 -100 5 -13 24 -16 100 -16 l94 0 0 100 0
100 -100 0 -100 0 0 -84z"/>
<path d="M1376 1192 c-3 -6 -1 -14 5 -17 15 -10 25 3 12 16 -7 7 -13 7 -17 1z"/>
<path d="M1600 1100 l0 -100 -100 0 -100 0 0 -84 c0 -46 3 -91 6 -100 5 -13
24 -16 100 -16 l94 0 0 -100 0 -100 100 0 100 0 0 84 c0 46 -3 91 -6 100 -5
13 -24 16 -100 16 l-94 0 0 100 0 100 100 0 100 0 0 84 c0 46 -3 91 -6 100 -5
13 -24 16 -100 16 l-94 0 0 -100z"/>
<path d="M600 916 c0 -46 3 -91 6 -100 5 -13 24 -16 100 -16 l94 0 0 -100 0
-100 100 0 100 0 0 84 c0 46 -3 91 -6 100 -5 13 -24 16 -100 16 l-94 0 0 100
0 100 -100 0 -100 0 0 -84z"/>
<path d="M1000 916 c0 -46 3 -91 6 -100 5 -13 24 -16 100 -16 l94 0 0 -100 0
-100 100 0 100 0 0 84 c0 46 -3 91 -6 100 -5 13 -24 16 -100 16 l-94 0 0 100
0 100 -100 0 -100 0 0 -84z"/>
<path d="M1340 1909 c0 -5 5 -7 10 -4 6 3 10 8 10 11 0 2 -4 4 -10 4 -5 0 -10
-5 -10 -11z"/>
<path d="M1240 1809 c0 -5 5 -7 10 -4 6 3 10 8 10 11 0 2 -4 4 -10 4 -5 0 -10
-5 -10 -11z"/>
<path d="M2080 1845 c-11 -13 -10 -14 4 -9 9 3 16 10 16 15 0 13 -6 11 -20 -6z"/>
<path d="M1413 1683 c-15 -5 -17 -23 -4 -23 5 0 11 7 15 15 3 8 4 15 3 14 -1
0 -8 -3 -14 -6z"/>
</g>
</svg>
